<?xml version="1.0" standalone="no"?>
<!DOCTYPE svg PUBLIC "-//W3C//DTD SVG 1.1//EN" "http://www.w3.org/Graphics/SVG/1.1/DTD/svg11.dtd" >
<svg>
<metadata>
Created by FontForge 20120731 at Thu Mar  9 18:33:53 2017
 By www-data
Copyright (c) 2011 by . All rights reserved.
</metadata>
<defs>
<font id="MaaxRounded" horiz-adv-x="566" >
  <font-face 
    font-family="Maax Rounded"
    font-weight="400"
    font-stretch="normal"
    units-per-em="1000"
    panose-1="2 0 5 6 0 0 0 2 0 2"
    ascent="775"
    descent="-225"
    x-height="488"
    cap-height="706"
    bbox="-20 -215 1352 917"
    underline-thickness="50"
    underline-position="-80"
    unicode-range="U+0020-FB02"
  />
<missing-glyph horiz-adv-x="883" 
d="M186 251h99c14 0 21 6 21 19c0 11 -9 19 -21 19h-76c5 13 17 24 37 34l19 10c33 18 52 30 55 65c0 32 -25 53 -64 53c-24 0 -45 -8 -63 -25c-11 -11 -12 -20 -3 -29c7 -9 17 -8 30 1c12 10 23 15 34 15c17 0 25 -6 25 -17c0 -9 -9 -18 -28 -28l-13 -7
c-46 -23 -71 -51 -75 -83c-3 -18 4 -27 23 -27zM476 368c0 -37 -14 -82 -46 -82c-20 0 -30 15 -30 44c0 40 13 83 45 83c21 0 31 -15 31 -45zM448 451c-59 -1 -90 -57 -90 -122c0 -48 27 -81 70 -81c59 0 90 57 90 121c0 48 -27 82 -70 82zM611 375l7 34h68c13 0 20 6 20 19
s-7 20 -20 20h-74c-19 0 -29 -8 -32 -24l-14 -74c-3 -17 3 -26 19 -26c6 0 13 3 20 9c8 8 17 12 28 12c17 0 29 -11 29 -26c0 -19 -17 -33 -38 -33c-11 0 -22 3 -32 10c-12 8 -22 7 -30 -2c-9 -10 -7 -20 4 -29c38 -36 143 -14 138 58c0 35 -28 59 -63 59
c-11 0 -21 -2 -30 -7zM185 94c-70 71 -105 156 -105 256s35 185 105 256c71 71 156 106 256 106s185 -35 256 -106s106 -156 106 -256s-35 -185 -106 -256c-71 -70 -156 -105 -256 -105s-185 35 -256 105z" />
    <glyph glyph-name="arrowwest" unicode="&#x3c;&#x2d;" horiz-adv-x="814" 
d="M342 2l-259 256c-23 21 -22 41 -1 62l260 261c19 19 37 19 54 2c16 -17 15 -35 -4 -53l-206 -205h547c27 0 40 -12 40 -36c0 -23 -13 -35 -40 -35h-545l204 -201c19 -18 20 -36 4 -53c-17 -17 -35 -17 -54 2z" />
    <glyph glyph-name="arrownorth" unicode="&#x2d;^" horiz-adv-x="726" 
d="M421 685l259 -259c19 -19 19 -37 2 -54c-17 -16 -35 -15 -53 4l-202 205v-546c0 -27 -16 -40 -37 -40c-25 0 -38 13 -38 40v547l-203 -206c-18 -19 -36 -20 -53 -4c-17 17 -17 35 2 54l261 260c21 21 41 22 62 -1z" />
    <glyph glyph-name="arroweast" unicode="&#x2d;&#x3e;" horiz-adv-x="814" 
d="M732 258l-259 -256c-19 -19 -37 -19 -54 -2c-16 17 -15 35 4 53l204 201h-545c-27 0 -40 12 -40 35c0 24 13 36 40 36h547l-206 205c-19 18 -20 36 -4 53c17 17 35 17 54 -2l260 -261c21 -21 22 -41 -1 -62z" />
    <glyph glyph-name="arrowwest2" unicode="&#x3c;&#x2d;&#x2d;" horiz-adv-x="1110" 
d="M341 2l-259 256c-23 21 -22 41 -1 62l260 261c19 19 37 19 54 2c16 -17 15 -35 -4 -53l-206 -205h845c27 0 40 -12 40 -36c0 -23 -13 -35 -40 -35h-843l204 -201c19 -18 20 -36 4 -53c-17 -17 -35 -17 -54 2z" />
    <glyph glyph-name="arrowwest3" unicode="&#x3c;&#x2d;&#x2d;&#x2d;" horiz-adv-x="1395" 
d="M341 2l-259 256c-23 21 -22 41 -1 62l260 261c19 19 37 19 54 2c16 -17 15 -35 -4 -53l-206 -205h1127c27 0 40 -12 40 -36c0 -23 -13 -35 -40 -35h-1125l204 -201c19 -18 20 -36 4 -53c-17 -17 -35 -17 -54 2z" />
    <glyph glyph-name="arroweast2" unicode="&#x2d;&#x2d;&#x3e;" horiz-adv-x="1110" 
d="M1027 258l-259 -256c-19 -19 -37 -19 -54 -2c-16 17 -15 35 4 53l204 201h-840c-27 0 -40 12 -40 35c0 24 13 36 40 36h842l-206 205c-19 18 -20 36 -4 53c17 17 35 17 54 -2l260 -261c21 -21 22 -41 -1 -62z" />
    <glyph glyph-name="arroweast3" unicode="&#x2d;&#x2d;&#x2d;&#x3e;" horiz-adv-x="1395" 
d="M1312 258l-259 -256c-19 -19 -37 -19 -54 -2c-16 17 -15 35 4 53l204 201h-1125c-27 0 -40 12 -40 35c0 24 13 36 40 36h1127l-206 205c-19 18 -20 36 -4 53c17 17 35 17 54 -2l260 -261c21 -21 22 -41 -1 -62z" />
    <glyph glyph-name=".notdef" horiz-adv-x="883" 
d="M186 251h99c14 0 21 6 21 19c0 11 -9 19 -21 19h-76c5 13 17 24 37 34l19 10c33 18 52 30 55 65c0 32 -25 53 -64 53c-24 0 -45 -8 -63 -25c-11 -11 -12 -20 -3 -29c7 -9 17 -8 30 1c12 10 23 15 34 15c17 0 25 -6 25 -17c0 -9 -9 -18 -28 -28l-13 -7
c-46 -23 -71 -51 -75 -83c-3 -18 4 -27 23 -27zM476 368c0 -37 -14 -82 -46 -82c-20 0 -30 15 -30 44c0 40 13 83 45 83c21 0 31 -15 31 -45zM448 451c-59 -1 -90 -57 -90 -122c0 -48 27 -81 70 -81c59 0 90 57 90 121c0 48 -27 82 -70 82zM611 375l7 34h68c13 0 20 6 20 19
s-7 20 -20 20h-74c-19 0 -29 -8 -32 -24l-14 -74c-3 -17 3 -26 19 -26c6 0 13 3 20 9c8 8 17 12 28 12c17 0 29 -11 29 -26c0 -19 -17 -33 -38 -33c-11 0 -22 3 -32 10c-12 8 -22 7 -30 -2c-9 -10 -7 -20 4 -29c38 -36 143 -14 138 58c0 35 -28 59 -63 59
c-11 0 -21 -2 -30 -7zM185 94c-70 71 -105 156 -105 256s35 185 105 256c71 71 156 106 256 106s185 -35 256 -106s106 -156 106 -256s-35 -185 -106 -256c-71 -70 -156 -105 -256 -105s-185 35 -256 105z" />
    <glyph glyph-name="NULL" horiz-adv-x="0" 
 />
    <glyph glyph-name="CR" horiz-adv-x="333" 
 />
    <glyph glyph-name="space" unicode=" " horiz-adv-x="308" 
 />
    <glyph glyph-name="exclam" unicode="!" horiz-adv-x="301" 
d="M95 42c0 31 23 55 54 55s54 -24 54 -55c0 -29 -23 -53 -54 -53c-29 0 -54 24 -54 53zM186 661v-411c0 -29 -12 -44 -37 -44c-26 0 -39 15 -39 44v411c0 29 13 44 39 44c25 0 37 -15 37 -44z" />
    <glyph glyph-name="quotedbl" unicode="&#x22;" horiz-adv-x="439" 
d="M162 663v-170c0 -28 -12 -42 -35 -42c-25 0 -37 14 -37 42v170c0 28 12 42 37 42c23 0 35 -14 35 -42zM348 663v-170c0 -28 -12 -42 -35 -42c-25 0 -37 14 -37 42v170c0 28 12 42 37 42c23 0 35 -14 35 -42z" />
    <glyph glyph-name="numbersign" unicode="#" horiz-adv-x="794" 
d="M172 496h114l52 180c9 25 24 34 45 28c21 -7 28 -23 21 -47l-46 -161h168l52 180c9 25 24 34 45 28c21 -7 28 -23 21 -47l-46 -161h85c25 0 38 -11 38 -33c0 -24 -13 -36 -38 -36h-105l-44 -153h96c25 0 38 -11 38 -33c0 -24 -13 -36 -38 -36h-115l-52 -181
c-9 -24 -23 -33 -44 -26c-21 5 -28 21 -21 46l46 161h-169l-52 -181c-9 -24 -23 -33 -44 -26c-21 5 -28 21 -21 46l46 161h-85c-26 0 -39 12 -39 36c0 22 13 33 39 33h104l44 153h-95c-26 0 -39 12 -39 36c0 22 13 33 39 33zM507 427h-169l-44 -153h169z" />
    <glyph glyph-name="dollar" unicode="$" horiz-adv-x="660" 
d="M518 575c-35 34 -77 55 -124 62v-249l11 -2c136 -24 213 -91 213 -200c0 -53 -20 -97 -61 -134c-41 -36 -95 -56 -163 -61v-68c0 -28 -11 -42 -34 -42c-25 0 -37 14 -37 42v68c-87 9 -156 42 -209 100c-19 21 -20 40 -1 57s38 15 57 -6c38 -43 89 -70 153 -79v260l-14 3
c-57 10 -105 31 -142 63s-56 75 -56 129c0 55 20 99 61 133s92 54 151 59v68c0 28 12 42 37 42c23 0 34 -14 34 -42v-68c72 -8 132 -36 180 -84c19 -21 20 -40 1 -57c-17 -15 -36 -13 -57 6zM395 311h-1v-251c88 7 148 53 148 125c0 67 -49 109 -147 126zM187 521
c0 -63 45 -104 136 -121v239c-80 -8 -136 -55 -136 -118z" />
    <glyph glyph-name="percent" unicode="%" horiz-adv-x="705" 
d="M191 712c35 0 65 -13 90 -38s37 -55 37 -90s-12 -66 -37 -91s-55 -37 -90 -37c-36 0 -67 12 -92 37s-37 56 -37 91s12 65 37 90s56 38 92 38zM191 519c32 0 61 26 61 65c0 61 -66 86 -105 47c-13 -12 -19 -28 -19 -47c0 -39 30 -65 63 -65zM387 116c0 36 12 66 37 91
s56 38 92 38c35 0 65 -13 90 -38s37 -55 37 -91c0 -35 -13 -65 -38 -90s-54 -37 -89 -37c-36 0 -67 12 -92 37s-37 55 -37 90zM516 51c32 0 61 26 61 65s-29 66 -61 66c-33 0 -63 -27 -63 -66s30 -65 63 -65zM575 648l-387 -632c-14 -22 -31 -28 -50 -17
c-19 13 -22 30 -9 53l387 632c13 23 30 28 51 16c19 -12 22 -29 8 -52z" />
    <glyph glyph-name="ampersand" unicode="&#x26;" horiz-adv-x="679" 
d="M274 57c56 0 105 23 147 70l-167 216l-15 -8c-80 -41 -114 -83 -114 -146c0 -35 13 -65 40 -92s63 -40 109 -40zM208 563c0 -29 17 -64 50 -106l19 -24l38 21c54 30 81 64 81 103c0 51 -39 87 -96 87s-92 -32 -92 -81zM507 16l-43 55c-53 -55 -116 -82 -191 -82
c-165 0 -222 119 -222 200c0 84 41 148 123 191l36 19c-29 37 -49 66 -60 88c-11 23 -16 48 -16 76c0 88 65 149 169 149c51 0 92 -15 122 -45c30 -29 45 -66 45 -111c0 -62 -34 -112 -102 -151l-47 -27l148 -191c23 36 44 82 63 137c9 26 24 37 45 33c17 -3 26 -15 26 -34
c0 -31 -30 -111 -87 -195l50 -66c19 -24 18 -43 -1 -58c-20 -16 -39 -12 -58 12z" />
    <glyph glyph-name="quotesingle" unicode="'" horiz-adv-x="253" 
d="M162 663v-170c0 -28 -12 -42 -35 -42c-25 0 -37 14 -37 42v170c0 28 12 42 37 42c23 0 35 -14 35 -42z" />
    <glyph glyph-name="parenleft" unicode="(" horiz-adv-x="370" 
d="M320 -132c17 -21 16 -39 -2 -56c-18 -13 -36 -10 -55 10c-119 126 -178 272 -178 438s59 312 178 438c19 20 37 23 55 10c18 -17 19 -35 2 -56c-105 -114 -158 -245 -158 -392s53 -278 158 -392z" />
    <glyph glyph-name="parenright" unicode=")" horiz-adv-x="370" 
d="M75 652c-17 21 -16 39 2 56c18 13 36 10 55 -10c119 -126 178 -272 178 -438s-59 -312 -178 -438c-19 -20 -37 -23 -55 -10c-18 17 -19 35 -2 56c105 114 158 245 158 392s-53 278 -158 392z" />
    <glyph glyph-name="asterisk" unicode="*" horiz-adv-x="468" 
d="M297 468l-52 79l-52 -79c-15 -22 -32 -26 -52 -12c-21 15 -23 33 -6 53l60 75l-90 19c-27 6 -36 21 -29 45c5 25 21 33 47 24l90 -30l-3 92c-1 27 11 40 35 40c25 0 37 -13 36 -40l-4 -92l89 30c26 9 42 1 47 -24c7 -24 -2 -39 -29 -45l-89 -19l60 -75
c17 -20 15 -38 -6 -53c-20 -14 -37 -10 -52 12z" />
    <glyph glyph-name="plus" unicode="+" horiz-adv-x="640" 
d="M283 34v178h-180c-25 0 -38 12 -38 35c0 22 13 33 38 33h180v176c0 26 12 39 35 39c24 0 36 -13 36 -39v-176h183c25 0 38 -11 38 -33c0 -23 -13 -35 -38 -35h-183v-178c0 -26 -12 -39 -36 -39c-23 0 -35 13 -35 39z" />
    <glyph glyph-name="comma" unicode="," horiz-adv-x="278" 
d="M70 -77l68 167c12 29 31 40 56 31c29 -11 36 -30 23 -59l-76 -167c-12 -27 -29 -35 -51 -26c-24 10 -31 28 -20 54z" />
    <glyph glyph-name="hyphen" unicode="-" horiz-adv-x="512" 
d="M113 296h286c25 0 38 -11 38 -33c0 -23 -13 -35 -38 -35h-286c-25 0 -38 12 -38 35c0 22 13 33 38 33z" />
    <glyph glyph-name="period" unicode="." horiz-adv-x="312" 
d="M155 108c35 0 61 -25 61 -60c0 -33 -26 -59 -61 -59c-33 0 -59 26 -59 59s26 60 59 60z" />
    <glyph glyph-name="slash" unicode="/" horiz-adv-x="541" 
d="M481 649l-264 -627c-11 -26 -28 -34 -50 -24s-28 28 -17 53l263 627c11 26 28 34 51 24c22 -10 28 -28 17 -53z" />
    <glyph glyph-name="zero" unicode="0" horiz-adv-x="628" 
d="M443 139c31 53 46 124 46 212s-15 158 -46 211c-30 53 -73 79 -129 79s-99 -27 -130 -80s-46 -123 -46 -210s15 -158 46 -211s74 -80 130 -80s99 26 129 79zM77 217c-20 84 -20 184 0 268s58 156 123 196c33 21 71 31 114 31s80 -10 113 -31c67 -40 104 -112 124 -196
s20 -184 0 -268s-57 -157 -124 -198c-33 -20 -70 -30 -113 -30s-81 10 -114 30c-65 41 -103 114 -123 198z" />
    <glyph glyph-name="one" unicode="1" horiz-adv-x="537" 
d="M328 660v-588h138c54 0 54 -72 0 -72h-362c-54 0 -54 72 0 72h148v535l-122 -68c-24 -15 -57 -1 -57 28c0 15 9 28 28 39l141 81c21 12 36 18 46 18c23 0 40 -14 40 -45z" />
    <glyph glyph-name="two" unicode="2" horiz-adv-x="587" 
d="M62 47c0 107 70 201 223 304l24 16l49 33c10 7 22 18 37 32c31 28 41 57 41 93c0 71 -55 116 -139 116c-67 0 -118 -33 -154 -98c-12 -21 -38 -26 -53 -14c-16 11 -20 34 -8 55c41 73 119 128 215 128c59 0 110 -17 152 -50c43 -33 64 -79 64 -138
c0 -89 -55 -149 -168 -222l-45 -29c-88 -56 -153 -133 -157 -201h336c55 0 55 -72 0 -72h-372c-25 0 -45 22 -45 47z" />
    <glyph glyph-name="three" unicode="3" horiz-adv-x="579" 
d="M96 63c-21 19 -24 38 -7 56s35 18 56 -1c44 -39 97 -58 159 -58c85 0 150 46 150 134c0 85 -72 126 -172 126h-21c-28 0 -42 12 -42 36c0 25 14 37 42 37h10c100 0 166 48 166 131c0 39 -14 69 -43 88c-28 19 -59 29 -94 29c-51 0 -97 -18 -138 -53
c-21 -19 -39 -19 -56 -1s-14 37 7 56c52 46 113 69 183 69c58 0 109 -17 152 -50s65 -79 65 -139c0 -38 -11 -71 -33 -100c-21 -29 -43 -48 -66 -57c65 -27 116 -87 116 -171c0 -66 -22 -117 -67 -153c-44 -35 -99 -53 -164 -53c-72 0 -151 27 -203 74z" />
    <glyph glyph-name="four" unicode="4" horiz-adv-x="593" 
d="M369 574l-236 -325h236v325zM54 255l309 430c9 13 22 20 38 20c29 0 44 -17 44 -50v-406h66c27 0 41 -12 41 -36s-14 -36 -41 -36h-66v-139c0 -29 -13 -43 -38 -43s-38 14 -38 43v139h-280c-33 0 -49 14 -49 43c0 10 5 22 14 35z" />
    <glyph glyph-name="five" unicode="5" horiz-adv-x="562" 
d="M466 628h-274l-11 -236c27 31 82 53 143 53c62 0 115 -20 159 -60s66 -96 66 -167c0 -63 -23 -117 -68 -162s-105 -67 -180 -67c-73 0 -137 26 -191 79c-21 20 -24 39 -10 57c15 17 33 22 57 2c45 -45 94 -67 148 -67c47 0 87 14 119 43c33 29 49 68 49 115
c0 97 -67 155 -159 155c-51 0 -94 -21 -131 -64c-10 -12 -21 -18 -34 -18c-28 0 -42 15 -41 46l14 317c1 25 21 46 45 46h299c55 0 55 -72 0 -72z" />
    <glyph glyph-name="six" unicode="6" horiz-adv-x="626" 
d="M334 382c-41 0 -77 -15 -107 -44c-29 -29 -44 -68 -44 -115c0 -46 15 -85 45 -116s67 -47 111 -47c39 0 74 14 103 42c30 28 45 68 45 120c0 49 -15 87 -45 116s-66 44 -108 44zM460 592c-33 33 -72 49 -119 49c-58 0 -105 -27 -141 -82s-52 -125 -49 -211
c37 69 111 106 183 106c62 0 116 -21 161 -64c46 -43 69 -99 69 -168c0 -71 -23 -127 -70 -170c-47 -42 -100 -63 -160 -63c-78 0 -140 33 -186 100s-69 157 -69 268c0 107 23 193 70 258s111 97 192 97c68 0 125 -22 171 -67c20 -20 21 -39 4 -56c-15 -15 -37 -16 -56 3z
" />
    <glyph glyph-name="seven" unicode="7" horiz-adv-x="545" 
d="M51 522v132c0 25 20 46 45 46h366c32 0 48 -18 48 -43c0 -10 -4 -20 -12 -30c-140 -165 -220 -362 -241 -590c-3 -28 -15 -42 -37 -42c-21 0 -38 15 -37 43c7 109 32 215 73 320c42 105 94 195 156 270h-290v-106c0 -27 -12 -40 -36 -40c-23 0 -35 13 -35 40z" />
    <glyph glyph-name="eight" unicode="8" horiz-adv-x="564" 
d="M56 185c0 41 13 78 40 109s55 51 82 58c-25 11 -48 29 -71 55s-34 58 -34 97c0 58 21 104 62 139c42 35 91 52 147 52s105 -17 146 -52c42 -35 63 -81 63 -139c0 -39 -11 -71 -34 -97s-46 -44 -71 -55c27 -7 54 -27 81 -58s41 -68 41 -109c0 -59 -22 -106 -66 -142
c-43 -36 -97 -54 -160 -54s-117 18 -161 54c-43 36 -65 83 -65 142zM282 313c-87 0 -149 -48 -149 -127c0 -77 65 -126 149 -126s149 49 149 126c0 79 -64 127 -149 127zM150 503c0 -73 55 -118 132 -118c76 0 132 45 132 118c0 39 -14 69 -41 90s-58 31 -91 31
s-64 -10 -91 -31s-41 -51 -41 -90z" />
    <glyph glyph-name="nine" unicode="9" horiz-adv-x="608" 
d="M291 319c41 0 77 15 106 44c30 29 45 68 45 115c0 46 -15 85 -45 116s-67 47 -111 47c-39 0 -74 -14 -104 -42c-29 -28 -44 -68 -44 -120c0 -49 15 -88 45 -117s66 -43 108 -43zM165 109c33 -33 72 -49 119 -49c58 0 105 27 141 82s52 125 49 211
c-37 -69 -111 -106 -183 -106c-62 0 -116 21 -162 64c-45 43 -68 99 -68 168c0 71 23 127 70 169c47 43 100 64 160 64c78 0 140 -34 186 -101s69 -156 69 -267c0 -107 -24 -193 -71 -258s-110 -97 -191 -97c-68 0 -125 22 -171 67c-20 20 -21 39 -4 56c18 17 37 16 56 -3z
" />
    <glyph glyph-name="colon" unicode=":" horiz-adv-x="301" 
d="M144 108c35 0 61 -25 61 -60c0 -33 -26 -59 -61 -59c-33 0 -59 26 -59 59s26 60 59 60zM144 496c35 0 61 -25 61 -60c0 -33 -26 -59 -61 -59c-33 0 -59 26 -59 59s26 60 59 60z" />
    <glyph glyph-name="semicolon" unicode=";" horiz-adv-x="321" 
d="M81 -77l68 167c12 29 31 40 56 31c29 -11 36 -30 23 -59l-76 -167c-12 -27 -29 -35 -51 -26c-24 10 -31 28 -20 54zM192 496c35 0 61 -25 61 -60c0 -33 -26 -59 -61 -59c-33 0 -59 26 -59 59s26 60 59 60z" />
    <glyph glyph-name="less" unicode="&#x3c;" horiz-adv-x="615" 
d="M493 10l-411 181c-27 12 -41 30 -41 53c0 24 14 42 41 55l412 182c26 11 44 6 54 -16c9 -21 1 -38 -25 -49l-401 -171l400 -170c25 -11 34 -31 26 -50c-10 -22 -28 -27 -55 -15z" />
    <glyph glyph-name="equal" unicode="=" horiz-adv-x="660" 
d="M113 388h434c25 0 38 -11 38 -34s-13 -35 -38 -35h-434c-25 0 -38 12 -38 35s13 34 38 34zM113 206h434c25 0 38 -11 38 -34s-13 -35 -38 -35h-434c-25 0 -38 12 -38 35s13 34 38 34z" />
    <glyph glyph-name="greater" unicode="&#x3e;" horiz-adv-x="615" 
d="M547 191l-411 -181c-27 -12 -45 -7 -55 15c-8 19 1 39 26 50l400 170l-401 171c-26 11 -34 28 -25 49c10 22 28 27 54 16l412 -182c27 -13 41 -31 41 -55c0 -23 -14 -41 -41 -53z" />
    <glyph glyph-name="question" unicode="?" horiz-adv-x="556" 
d="M270 108c35 0 61 -25 61 -60c0 -33 -26 -59 -61 -59c-33 0 -59 26 -59 59s26 60 59 60zM232 248v80c0 27 15 43 45 46c99 12 155 66 155 141c0 73 -59 126 -139 126c-61 0 -113 -26 -154 -77c-18 -21 -36 -23 -55 -8s-19 33 -2 54c55 68 126 102 211 102
c62 0 113 -18 154 -54c41 -35 62 -82 62 -140c0 -105 -75 -190 -200 -210v-60c0 -29 -13 -43 -39 -43c-25 0 -38 14 -38 43z" />
    <glyph glyph-name="at" unicode="@" horiz-adv-x="1086" 
d="M525 57c49 0 88 18 117 53c29 36 44 81 44 135s-15 99 -44 134s-68 53 -117 53s-87 -18 -116 -53s-43 -80 -43 -134s14 -99 43 -135c29 -35 68 -53 116 -53zM735 -179c-55 -17 -111 -26 -170 -26c-141 0 -257 44 -347 132c-89 88 -134 197 -134 326
c-6 249 193 463 464 459c93 0 173 -21 242 -62c137 -83 205 -222 205 -386c0 -80 -19 -146 -57 -198c-37 -51 -83 -77 -136 -77c-55 0 -91 34 -106 85c-43 -55 -109 -85 -178 -85c-67 0 -121 25 -164 74s-64 110 -64 182s21 133 64 182c43 50 97 75 164 75
c66 0 121 -26 165 -77v28c0 28 12 42 37 42s37 -14 37 -42v-324c0 -48 17 -72 51 -72c35 0 62 21 83 64s31 91 31 143c0 109 -33 200 -98 272s-157 108 -276 108c-116 0 -211 -37 -284 -112s-109 -168 -109 -279s38 -204 113 -278c76 -75 175 -112 297 -112
c54 0 105 7 153 22c25 8 43 -2 47 -21c5 -22 -5 -36 -30 -43z" />
    <glyph glyph-name="A" unicode="A" horiz-adv-x="700" 
d="M507 234l-143 369l-141 -369h284zM68 51l239 612c11 28 31 42 58 42c28 0 47 -14 58 -43l238 -611c10 -27 3 -44 -21 -53c-23 -9 -40 0 -51 27l-54 136h-342l-53 -136c-11 -27 -28 -36 -51 -27c-24 9 -31 26 -21 53z" />
    <glyph glyph-name="B" unicode="B" horiz-adv-x="669" 
d="M161 321v-249h208c93 0 155 44 155 129c0 79 -63 120 -151 120h-212zM356 628h-195v-235h196c88 0 150 41 150 120s-62 115 -151 115zM130 700h212c149 0 242 -61 242 -185c0 -61 -35 -122 -91 -150c67 -31 108 -95 108 -166c0 -61 -22 -110 -66 -146
c-44 -35 -102 -53 -175 -53h-230c-25 0 -45 22 -45 47v607c0 25 20 46 45 46z" />
    <glyph glyph-name="C" unicode="C" horiz-adv-x="710" 
d="M639 616c19 -19 21 -38 4 -55c-18 -17 -37 -16 -56 3c-51 51 -114 77 -189 77c-77 0 -142 -28 -194 -84c-51 -56 -77 -125 -77 -208c0 -81 26 -150 78 -206c53 -55 119 -83 198 -83c77 0 142 26 195 77c19 19 38 20 56 3c17 -19 16 -37 -4 -55c-69 -64 -151 -96 -247 -96
c-101 0 -185 35 -252 105s-100 155 -100 255c0 101 33 186 99 257c67 71 149 106 248 106c97 0 177 -32 241 -96z" />
    <glyph glyph-name="D" unicode="D" horiz-adv-x="705" 
d="M275 0h-145c-25 1 -45 22 -45 47v607c0 25 20 46 45 46h145c189 0 380 -79 380 -345s-191 -355 -380 -355zM284 628h-123v-556h124c150 0 291 75 291 283c0 202 -141 273 -292 273z" />
    <glyph glyph-name="E" unicode="E" horiz-adv-x="624" 
d="M512 0h-382c-25 0 -45 21 -45 46v608c0 25 20 46 45 46h382c28 0 42 -12 42 -36c0 -20 -14 -36 -42 -36h-351v-235h340c28 0 42 -12 42 -36c0 -20 -14 -36 -42 -36h-340v-249h351c28 0 42 -12 42 -36c0 -20 -14 -36 -42 -36z" />
    <glyph glyph-name="F" unicode="F" 
d="M85 38v616c0 25 20 46 45 46h359c28 0 42 -12 42 -36c0 -20 -14 -36 -42 -36h-328v-235h304c28 0 42 -12 42 -36c0 -20 -14 -36 -42 -36h-304v-283c0 -29 -13 -43 -38 -43s-38 14 -38 43z" />
    <glyph glyph-name="G" unicode="G" horiz-adv-x="738" 
d="M653 90c-69 -67 -153 -101 -250 -101c-101 0 -185 35 -252 105s-100 155 -100 255c0 101 33 186 99 257c67 71 149 106 248 106c97 0 177 -32 241 -96c19 -19 21 -38 4 -55c-18 -17 -37 -16 -56 3c-51 51 -114 77 -189 77c-77 0 -142 -28 -194 -84
c-51 -56 -77 -125 -77 -208c0 -81 26 -150 78 -206c53 -55 119 -83 198 -83s143 25 194 76v141h-162c-28 0 -42 16 -42 36c0 24 14 36 42 36h191c25 0 45 -21 45 -46v-170c0 -17 -6 -31 -18 -43z" />
    <glyph glyph-name="H" unicode="H" horiz-adv-x="703" 
d="M618 663v-625c0 -29 -13 -43 -38 -43s-38 14 -38 43v283h-381v-283c0 -29 -13 -43 -38 -43s-38 14 -38 43v625c0 29 13 43 38 43s38 -14 38 -43v-270h381v270c0 29 13 43 38 43s38 -14 38 -43z" />
    <glyph glyph-name="I" unicode="I" horiz-adv-x="246" 
d="M161 663v-625c0 -29 -13 -43 -38 -43s-38 14 -38 43v625c0 29 13 43 38 43s38 -14 38 -43z" />
    <glyph glyph-name="J" unicode="J" horiz-adv-x="493" 
d="M41 67c-20 23 -19 46 -2 61c20 16 39 14 56 -7c33 -41 71 -61 114 -61c89 0 135 58 135 158v444c0 29 13 43 38 43s38 -14 38 -43v-444c0 -140 -76 -229 -213 -229c-65 0 -120 26 -166 78z" />
    <glyph glyph-name="K" unicode="K" horiz-adv-x="611" 
d="M478 18l-216 314l-122 -147v-147c0 -29 -13 -43 -39 -43c-25 0 -38 14 -38 43v625c0 29 13 43 38 43c26 0 39 -14 39 -43v-367l325 390c17 21 35 25 54 12c20 -15 21 -34 4 -55l-207 -248l224 -332c17 -25 15 -45 -4 -59c-16 -15 -42 -11 -58 14z" />
    <glyph glyph-name="L" unicode="L" horiz-adv-x="547" 
d="M161 662v-590h309c28 0 42 -16 42 -36c0 -24 -14 -36 -42 -36h-340c-25 0 -45 21 -45 46v616c0 29 13 43 38 43s38 -14 38 -43z" />
    <glyph glyph-name="M" unicode="M" horiz-adv-x="808" 
d="M356 175l-195 360v-497c0 -29 -13 -43 -38 -43s-38 14 -38 43v616c0 31 17 51 42 51c19 0 34 -8 43 -25l234 -438l234 438c9 17 24 25 43 25c25 0 42 -20 42 -51v-616c0 -29 -13 -43 -38 -43s-38 14 -38 43v497l-194 -359c-11 -21 -27 -31 -50 -31c-21 0 -36 10 -47 30z
" />
    <glyph glyph-name="N" unicode="N" horiz-adv-x="722" 
d="M545 20l-384 548v-530c0 -29 -13 -43 -38 -43s-38 14 -38 43v612c0 33 20 55 49 55c18 0 33 -8 44 -25l383 -549v531c0 29 13 43 38 43c26 0 39 -14 39 -43v-612c0 -33 -20 -55 -49 -55c-18 0 -33 8 -44 25z" />
    <glyph glyph-name="O" unicode="O" horiz-adv-x="801" 
d="M51 351c0 100 33 185 100 255c67 71 149 106 248 106s183 -35 250 -106c68 -70 102 -155 102 -255c0 -101 -34 -187 -101 -257s-151 -105 -251 -105c-99 0 -182 35 -249 105c-66 70 -99 156 -99 257zM127 351c0 -83 26 -153 77 -208s118 -83 199 -83c80 0 145 28 196 83
s77 125 77 208c0 82 -26 151 -77 206c-51 56 -116 84 -196 84c-81 0 -147 -28 -199 -84c-51 -55 -77 -124 -77 -206z" />
    <glyph glyph-name="P" unicode="P" horiz-adv-x="619" 
d="M340 628h-179v-299h179c104 0 169 51 169 150c0 95 -65 149 -169 149zM130 700h199c78 0 140 -20 186 -60c47 -40 70 -94 70 -161s-23 -121 -69 -161s-108 -60 -187 -60h-168v-220c0 -29 -13 -43 -38 -43s-38 14 -38 43v616c0 25 20 46 45 46z" />
    <glyph glyph-name="Q" unicode="Q" horiz-adv-x="824" 
d="M687 1l-66 66c-64 -52 -138 -78 -222 -78c-99 0 -182 35 -249 105c-66 70 -99 156 -99 257c0 100 33 185 100 255c67 71 149 106 248 106s183 -35 250 -106c68 -70 102 -155 102 -255c0 -88 -27 -166 -80 -233l66 -66c19 -19 20 -37 3 -54s-34 -16 -53 3zM558 231l62 -62
c37 52 56 113 56 182c0 82 -26 151 -77 206c-51 56 -116 84 -196 84c-81 0 -147 -28 -199 -84c-51 -55 -77 -124 -77 -206c0 -83 26 -153 77 -208s118 -83 199 -83c65 0 121 19 168 57l-63 63c-19 19 -20 37 -3 54s34 16 53 -3z" />
    <glyph glyph-name="R" unicode="R" horiz-adv-x="659" 
d="M340 628h-179v-299h179c104 0 169 51 169 150c0 95 -65 149 -169 149zM501 14l-172 244h-168v-220c0 -29 -13 -43 -38 -43s-38 14 -38 43v616c0 25 20 46 45 46h199c78 0 140 -20 186 -60c47 -40 70 -94 70 -161c0 -108 -65 -186 -172 -213l148 -205
c17 -23 16 -42 -2 -57c-16 -13 -42 -11 -58 10z" />
    <glyph glyph-name="S" unicode="S" horiz-adv-x="648" 
d="M512 575c-45 44 -102 66 -171 66c-92 0 -160 -49 -160 -120c0 -66 50 -107 149 -123l69 -12c136 -24 213 -91 213 -200c0 -57 -23 -104 -70 -141s-109 -56 -186 -56c-109 0 -196 46 -248 102c-19 21 -20 40 -1 57s38 15 57 -6c49 -55 116 -82 201 -82
c99 0 171 46 171 125c0 67 -49 109 -147 126l-86 15c-57 10 -105 31 -142 63s-56 75 -56 129c0 59 24 106 72 141s105 53 170 53c91 0 165 -29 221 -86c19 -21 20 -40 1 -57c-17 -15 -36 -13 -57 6z" />
    <glyph glyph-name="T" unicode="T" horiz-adv-x="596" 
d="M69 700h458c27 0 40 -12 40 -36s-13 -36 -40 -36h-194v-590c0 -29 -13 -43 -38 -43s-38 14 -38 43v590h-188c-27 0 -40 12 -40 36s13 36 40 36z" />
    <glyph glyph-name="U" unicode="U" horiz-adv-x="678" 
d="M73 275v387c0 29 13 43 38 43s38 -14 38 -43v-388c0 -62 17 -113 50 -154c33 -40 80 -60 140 -60s107 20 140 61s50 92 50 154v387c0 29 13 43 38 43s38 -14 38 -43v-387c0 -84 -24 -153 -71 -206s-112 -80 -195 -80s-148 27 -195 80s-71 122 -71 206z" />
    <glyph glyph-name="V" unicode="V" horiz-adv-x="629" 
d="M121 675l209 -582l210 582c9 27 26 36 51 27c23 -8 30 -26 21 -53l-224 -612c-11 -28 -31 -42 -58 -42s-46 14 -57 43l-224 611c-10 27 -3 44 21 53c25 9 42 0 51 -27z" />
    <glyph glyph-name="W" unicode="W" horiz-adv-x="897" 
d="M880 650l-168 -611c-8 -29 -26 -44 -54 -44c-27 0 -45 15 -54 45l-143 536l-143 -536c-9 -30 -27 -45 -54 -45s-45 15 -54 45l-168 610c-8 28 1 46 27 54c26 6 43 -5 50 -34l146 -555l140 543c8 31 27 47 56 47s48 -16 56 -47l141 -543l145 555c7 29 24 40 50 34
c26 -8 35 -26 27 -54z" />
    <glyph glyph-name="X" unicode="X" horiz-adv-x="661" 
d="M540 17l-187 281l-188 -281c-15 -24 -34 -29 -55 -15s-24 33 -9 57l202 300l-188 282c-15 24 -12 43 9 57s40 9 55 -15l174 -262l175 262c15 24 34 29 55 15s24 -33 9 -57l-189 -282l201 -300c15 -24 12 -43 -9 -57s-40 -9 -55 15z" />
    <glyph glyph-name="Y" unicode="Y" horiz-adv-x="588" 
d="M552 645l-199 -362v-245c0 -29 -13 -43 -38 -43s-38 14 -38 43v245l-198 362c-14 25 -10 43 13 55c22 12 40 5 53 -20l171 -322l170 322c13 25 31 32 53 20c23 -12 27 -30 13 -55z" />
    <glyph glyph-name="Z" unicode="Z" horiz-adv-x="631" 
d="M529 0h-418c-28 0 -48 17 -48 42c0 12 3 22 9 31l397 555h-367c-28 0 -42 16 -42 36c0 24 14 36 42 36h419c28 0 48 -17 48 -42c0 -12 -3 -22 -9 -31l-398 -555h367c28 0 42 -16 42 -36c0 -24 -14 -36 -42 -36z" />
    <glyph glyph-name="bracketleft" unicode="[" horiz-adv-x="371" 
d="M141 700h161c27 0 40 -12 40 -36s-13 -36 -40 -36h-129v-750h129c27 0 40 -12 40 -36s-13 -36 -40 -36h-161c-25 0 -45 22 -45 47v801c0 25 20 46 45 46z" />
    <glyph glyph-name="backslash" unicode="\" horiz-adv-x="541" 
d="M348 22l-264 627c-11 25 -5 43 17 53c23 10 40 2 51 -24l263 -627c11 -25 5 -43 -17 -53s-39 -2 -50 24z" />
    <glyph glyph-name="bracketright" unicode="]" horiz-adv-x="371" 
d="M69 700h161c25 0 45 -21 45 -46v-801c0 -25 -20 -47 -45 -47h-161c-27 0 -40 12 -40 36s13 36 40 36h129v750h-129c-27 0 -40 12 -40 36s13 36 40 36z" />
    <glyph glyph-name="asciicircum" unicode="^" horiz-adv-x="631" 
d="M393 669l168 -274c14 -23 10 -40 -12 -53c-21 -11 -38 -5 -51 18l-162 272l-161 -272c-13 -23 -30 -29 -51 -18c-22 13 -26 30 -12 53l166 273c14 25 33 37 58 37c24 0 43 -12 57 -36z" />
    <glyph glyph-name="underscore" unicode="_" horiz-adv-x="580" 
d="M90 -125h400c25 0 38 -11 38 -34s-13 -35 -38 -35h-400c-25 0 -38 12 -38 35s13 34 38 34z" />
    <glyph glyph-name="grave" unicode="`" 
d="M274 697l103 -72c19 -14 24 -29 15 -45c-11 -18 -27 -21 -47 -8l-108 64c-23 15 -28 32 -17 52c14 21 32 24 54 9z" />
    <glyph glyph-name="a" unicode="a" horiz-adv-x="523" 
d="M138 381c-19 -17 -36 -19 -51 -6s-16 32 1 52c40 43 106 75 169 75c117 0 187 -68 187 -192v-274c0 -54 -72 -54 -72 0v19c-33 -37 -92 -66 -157 -66c-92 0 -160 55 -160 144c0 87 73 142 181 154l134 16v15c0 75 -43 115 -114 115c-41 0 -80 -17 -118 -52zM129 131
c0 -45 35 -76 90 -76c61 0 122 34 151 78v101l-130 -16c-74 -9 -111 -38 -111 -87z" />
    <glyph glyph-name="b" unicode="b" horiz-adv-x="614" 
d="M433 111c29 35 43 80 43 134s-14 99 -43 134s-67 53 -116 53s-88 -18 -117 -53s-43 -80 -43 -134s14 -99 43 -134s68 -53 117 -53s87 18 116 53zM85 36v627c0 28 12 42 37 42s37 -14 37 -42v-238c44 51 99 77 165 77c67 0 121 -25 164 -75c43 -49 64 -110 64 -182
s-21 -133 -64 -182s-97 -74 -164 -74s-122 26 -167 78v-31c0 -54 -72 -54 -72 0z" />
    <glyph glyph-name="c" unicode="c" horiz-adv-x="555" 
d="M423 389c-34 29 -71 43 -112 43c-50 0 -91 -18 -124 -54c-33 -35 -49 -80 -49 -133c0 -109 67 -187 176 -187c46 0 86 17 119 50c19 19 37 19 54 2c15 -17 13 -35 -5 -53c-47 -45 -105 -68 -174 -68c-70 0 -129 25 -176 74c-47 50 -70 111 -70 182s24 131 72 181
c49 51 108 76 177 76c66 0 120 -21 161 -62c18 -18 20 -36 5 -53c-15 -15 -33 -15 -54 2z" />
    <glyph glyph-name="d" unicode="d" horiz-adv-x="614" 
d="M181 379c-29 -35 -43 -80 -43 -134s14 -99 43 -134s67 -53 116 -53s87 18 116 53s44 80 44 134s-15 99 -44 134s-67 53 -116 53s-87 -18 -116 -53zM529 663v-627c0 -54 -72 -54 -72 0v31c-45 -52 -100 -78 -167 -78s-121 25 -164 74s-64 110 -64 182s21 133 64 182
c43 50 97 75 164 75c66 0 121 -26 165 -77v238c0 28 12 42 37 42s37 -14 37 -42z" />
    <glyph glyph-name="e" unicode="e" 
d="M295 432c-84 0 -142 -60 -154 -144h288c-1 87 -53 144 -134 144zM504 268c0 -31 -17 -46 -51 -46h-315c7 -103 69 -164 165 -164c46 0 86 17 119 50c19 19 37 19 54 2c15 -17 13 -35 -5 -53c-47 -45 -103 -68 -168 -68c-73 0 -132 23 -176 70c-43 47 -65 108 -65 183
c0 72 22 133 65 184c44 51 99 76 166 76c152 0 211 -124 211 -234z" />
    <glyph glyph-name="f" unicode="f" horiz-adv-x="341" 
d="M281 633c-73 0 -99 -33 -99 -106v-37h85c26 0 39 -11 39 -34s-13 -34 -39 -34h-85v-385c0 -28 -12 -42 -37 -42s-37 14 -37 42v385h-51c-26 0 -39 11 -39 34s13 34 39 34h51v37c0 121 59 174 172 174c26 0 39 -11 39 -34s-13 -34 -38 -34z" />
    <glyph glyph-name="g" unicode="g" horiz-adv-x="603" 
d="M138 256c0 -51 14 -93 43 -126s65 -49 110 -49s82 16 111 49s44 75 44 126c0 52 -15 94 -44 127s-66 49 -111 49s-81 -16 -110 -49s-43 -75 -43 -127zM96 -120c-17 21 -16 39 2 54s36 13 54 -8c36 -42 79 -63 130 -63c105 0 162 68 162 171v51c-37 -49 -90 -74 -160 -74
c-63 0 -115 23 -158 70s-64 105 -64 175c0 71 21 129 64 176s95 70 158 70c69 0 123 -25 162 -75v28c0 55 72 55 72 0v-415c0 -149 -91 -245 -236 -245c-79 0 -141 28 -186 85z" />
    <glyph glyph-name="h" unicode="h" horiz-adv-x="577" 
d="M85 37v628c0 27 16 41 37 41c25 0 37 -14 37 -41v-235c33 43 92 72 153 72c125 0 195 -78 195 -217v-248c0 -28 -17 -42 -38 -42c-25 0 -37 14 -37 42v254c0 91 -46 142 -125 142c-96 0 -148 -73 -148 -190v-206c0 -28 -12 -42 -37 -42s-37 14 -37 42z" />
    <glyph glyph-name="i" unicode="i" horiz-adv-x="259" 
d="M89 612c-21 23 -21 58 0 79c23 21 58 21 79 0c23 -21 23 -56 0 -79c-21 -21 -56 -21 -79 0zM166 454v-417c0 -28 -12 -42 -37 -42s-37 14 -37 42v417c0 27 16 41 37 41c25 0 37 -14 37 -41z" />
    <glyph glyph-name="j" unicode="j" horiz-adv-x="288" 
d="M41 -199h-23c-25 0 -38 15 -38 34c0 23 13 34 38 34h16c60 0 76 25 76 89v496c0 27 16 41 37 41c25 0 37 -14 37 -41v-508c0 -104 -46 -145 -143 -145zM107 612c-21 23 -21 58 0 79c23 21 58 21 79 0c23 -21 23 -56 0 -79c-21 -21 -56 -21 -79 0z" />
    <glyph glyph-name="k" unicode="k" horiz-adv-x="545" 
d="M401 17l-159 208l-83 -87v-101c0 -28 -12 -42 -37 -42s-37 14 -37 42v627c0 27 16 41 37 41c25 0 37 -14 37 -41v-425l229 242c17 18 34 20 52 6c18 -18 18 -36 1 -53l-148 -153l167 -220c17 -23 17 -43 -2 -58c-21 -15 -40 -10 -57 14z" />
    <glyph glyph-name="l" unicode="l" horiz-adv-x="244" 
d="M159 664v-627c0 -28 -12 -42 -37 -42s-37 14 -37 42v627c0 27 16 41 37 41c25 0 37 -14 37 -41z" />
    <glyph glyph-name="m" unicode="m" horiz-adv-x="865" 
d="M712 37v254c0 95 -38 142 -114 142c-81 0 -126 -59 -126 -163v-233c0 -28 -12 -42 -37 -42s-37 14 -37 42v249c0 98 -37 147 -110 147c-77 0 -129 -68 -129 -163v-233c0 -28 -12 -42 -37 -42s-37 14 -37 42v417c0 27 16 41 36 41c24 0 36 -14 36 -41v-18
c33 44 78 66 136 66c70 0 120 -27 151 -81c35 52 94 81 158 81c120 0 184 -77 184 -217v-248c0 -28 -12 -42 -37 -42s-37 14 -37 42z" />
    <glyph glyph-name="n" unicode="n" horiz-adv-x="577" 
d="M85 37v417c0 27 16 41 36 41c24 0 36 -14 36 -41v-24c33 43 94 72 155 72c125 0 195 -78 195 -217v-248c0 -28 -17 -42 -38 -42c-25 0 -37 14 -37 42v254c0 91 -46 142 -125 142c-96 0 -148 -73 -148 -190v-206c0 -28 -12 -42 -37 -42s-37 14 -37 42z" />
    <glyph glyph-name="o" unicode="o" horiz-adv-x="618" 
d="M308 -11c-70 0 -129 25 -176 74c-47 50 -70 111 -70 182s23 132 70 182s106 75 176 75s129 -25 176 -75c48 -50 72 -111 72 -182s-24 -132 -71 -182c-47 -49 -106 -74 -177 -74zM308 58c50 0 91 18 123 53c32 36 48 81 48 134s-16 98 -48 133c-32 36 -73 54 -123 54
c-49 0 -90 -18 -122 -54c-32 -35 -48 -80 -48 -133s16 -98 48 -134c32 -35 73 -53 122 -53z" />
    <glyph glyph-name="p" unicode="p" horiz-adv-x="614" 
d="M433 112c29 35 43 80 43 134s-14 99 -43 134s-67 53 -116 53s-88 -18 -117 -53s-43 -80 -43 -134s14 -99 43 -134s68 -53 117 -53s87 18 116 53zM85 -157v612c0 55 72 55 72 0v-31c45 52 100 78 167 78s121 -25 164 -74s64 -110 64 -182s-21 -133 -64 -183
c-43 -49 -97 -74 -164 -74c-66 0 -121 26 -165 77v-223c0 -28 -12 -42 -37 -42s-37 14 -37 42z" />
    <glyph glyph-name="q" unicode="q" horiz-adv-x="614" 
d="M181 380c-29 -35 -43 -80 -43 -134s14 -99 43 -134s67 -53 116 -53s87 18 116 53s44 80 44 134s-15 99 -44 134s-67 53 -116 53s-87 -18 -116 -53zM529 455v-612c0 -28 -12 -42 -37 -42s-37 14 -37 42v223c-44 -51 -99 -77 -165 -77c-67 0 -121 25 -164 74
c-43 50 -64 111 -64 183s21 133 64 182s97 74 164 74s122 -26 167 -78v31c0 55 72 55 72 0z" />
    <glyph glyph-name="r" unicode="r" horiz-adv-x="412" 
d="M317 426c-111 0 -158 -60 -158 -217v-172c0 -28 -12 -42 -37 -42s-37 14 -37 42v417c0 27 16 41 36 41c24 0 36 -14 36 -41v-26c38 46 91 69 160 69l36 -4c23 -5 34 -17 34 -37c0 -21 -15 -37 -42 -33c-12 2 -21 3 -28 3z" />
    <glyph glyph-name="s" unicode="s" horiz-adv-x="494" 
d="M360 395c-30 25 -64 38 -103 38c-53 0 -90 -28 -90 -69c0 -37 24 -61 73 -72l77 -18c93 -22 139 -68 139 -138c0 -87 -72 -147 -183 -147c-74 0 -133 23 -178 69c-17 19 -18 36 -2 52c17 17 35 16 52 -1c36 -35 78 -52 127 -52c69 0 110 28 110 75c0 35 -26 59 -77 71
l-73 17c-93 22 -139 69 -139 141c0 44 17 78 50 103s73 38 119 38c59 0 109 -19 149 -56c20 -19 22 -37 5 -55c-15 -16 -33 -15 -56 4z" />
    <glyph glyph-name="t" unicode="t" horiz-adv-x="362" 
d="M268 67c25 0 38 -11 38 -34s-15 -34 -44 -34c-108 0 -154 35 -154 154v269h-51c-26 0 -39 11 -39 34s13 34 39 34h51v100c0 28 12 42 37 42s37 -14 37 -42v-100h85c26 0 39 -11 39 -34s-13 -34 -39 -34h-85v-264c0 -72 17 -91 86 -91z" />
    <glyph glyph-name="u" unicode="u" horiz-adv-x="565" 
d="M480 453v-417c0 -27 -15 -41 -36 -41c-23 0 -35 14 -35 41v25c-38 -48 -89 -72 -152 -72c-124 0 -187 77 -187 217v247c0 28 12 42 37 42s37 -14 37 -42v-253c0 -92 44 -141 123 -141c93 0 139 63 139 189v205c0 28 12 42 37 42s37 -14 37 -42z" />
    <glyph glyph-name="v" unicode="v" horiz-adv-x="516" 
d="M221 36l-159 405c-10 26 -3 43 21 52c24 7 41 -2 50 -28l140 -375l140 375c9 26 26 35 50 28c24 -9 31 -26 21 -52l-158 -404c-11 -28 -28 -42 -53 -42s-42 14 -52 41z" />
    <glyph glyph-name="w" unicode="w" horiz-adv-x="781" 
d="M457 448l102 -367l105 379c8 28 24 39 47 34c23 -4 36 -23 28 -51l-119 -402c-9 -31 -28 -46 -59 -46c-30 0 -49 15 -58 45l-107 365l-106 -364c-9 -31 -28 -46 -59 -46c-30 0 -49 15 -58 45l-120 403c-8 28 5 47 28 51c24 6 40 -5 47 -34l105 -379l102 366
c9 32 29 48 62 48c31 0 51 -16 60 -47z" />
    <glyph glyph-name="x" unicode="x" horiz-adv-x="523" 
d="M463 431l-129 -179l139 -192c17 -23 15 -42 -6 -57c-20 -13 -38 -8 -55 17l-125 178l-125 -178c-17 -25 -35 -30 -55 -17c-21 15 -23 34 -6 57l139 192l-129 179c-17 23 -15 42 6 57c20 13 38 8 55 -17l115 -164l115 164c17 25 35 30 55 17c20 -15 22 -34 6 -57z" />
    <glyph glyph-name="y" unicode="y" horiz-adv-x="550" 
d="M196 -145l55 139l-183 447c-10 25 -3 43 22 52c24 7 41 -2 51 -28l151 -382l148 382c10 26 27 35 51 28c24 -9 31 -26 21 -52l-244 -610c-10 -26 -27 -35 -51 -28c-24 9 -31 26 -21 52z" />
    <glyph glyph-name="z" unicode="z" horiz-adv-x="514" 
d="M73 70l266 352h-231c-26 0 -39 11 -39 34s13 34 39 34h290c24 0 42 -18 42 -42c0 -11 -3 -20 -10 -28l-269 -352h256c26 0 39 -11 39 -34s-13 -34 -39 -34h-312c-24 0 -42 18 -42 42c0 11 3 20 10 28z" />
    <glyph glyph-name="braceleft" unicode="{" horiz-adv-x="427" 
d="M70 290h83v250c0 93 47 160 151 160h54c27 0 40 -12 40 -36c0 -23 -13 -35 -40 -35h-41c-58 0 -87 -31 -87 -92v-567c0 -61 29 -92 87 -92h41c27 0 40 -12 40 -36c0 -20 -13 -36 -40 -36h-54c-104 0 -151 67 -151 160v252h-83c-27 0 -41 15 -41 35c0 25 14 37 41 37z" />
    <glyph glyph-name="bar" unicode="|" horiz-adv-x="403" 
d="M239 662v-818c0 -29 -12 -43 -36 -43c-25 0 -38 14 -38 43v818c0 29 13 43 38 43c24 0 36 -14 36 -43z" />
    <glyph glyph-name="braceright" unicode="}" horiz-adv-x="427" 
d="M274 540v-250h83c27 0 41 -12 41 -37c0 -20 -14 -35 -41 -35h-83v-252c0 -93 -47 -160 -151 -160h-54c-27 0 -40 16 -40 36c0 24 13 36 40 36h41c58 0 87 31 87 92v567c0 61 -29 92 -87 92h-41c-27 0 -40 12 -40 35c0 24 13 36 40 36h54c104 0 151 -67 151 -160z" />
    <glyph glyph-name="asciitilde" unicode="~" horiz-adv-x="505" 
d="M284 214l-62 28c-20 9 -36 14 -49 14c-18 0 -28 -10 -30 -30c-1 -16 -16 -26 -31 -26c-22 0 -33 12 -33 37c0 49 35 88 86 88c11 0 32 -5 62 -15l63 -27c25 -10 42 -15 50 -15c17 0 26 10 28 30c1 16 16 26 31 26c22 0 33 -12 33 -37c0 -49 -35 -88 -86 -88
c-11 0 -32 5 -62 15z" />
    <glyph glyph-name="exclamdown" unicode="&#xa1;" horiz-adv-x="301" 
d="M205 449c0 -31 -23 -55 -54 -55s-54 24 -54 55c0 29 23 53 54 53c29 0 54 -24 54 -53zM114 -155v396c0 29 12 44 37 44c26 0 39 -15 39 -44v-396c0 -29 -13 -44 -39 -44c-25 0 -37 15 -37 44z" />
    <glyph glyph-name="cent" unicode="&#xa2;" horiz-adv-x="555" 
d="M423 389c-28 23 -57 37 -86 41v-371c35 3 67 20 96 49c19 19 37 19 54 2c15 -17 13 -35 -5 -53c-40 -39 -88 -61 -145 -66v-68c0 -28 -12 -42 -37 -42s-37 14 -37 42v70c-59 11 -107 39 -145 86c-37 47 -56 103 -56 166c0 62 19 117 57 164s86 77 144 88v71
c0 27 16 41 37 41c25 0 37 -14 37 -41v-67c53 -5 98 -25 135 -61c18 -18 20 -36 5 -53c-15 -15 -33 -15 -54 2zM138 245c0 -91 45 -161 125 -181v361c-75 -21 -125 -92 -125 -180z" />
    <glyph glyph-name="sterling" unicode="&#xa3;" horiz-adv-x="630" 
d="M500 0h-401c-55 0 -55 72 0 72h107l-56 253h-53c-26 0 -39 11 -39 34s13 34 39 34h39c-8 38 -12 73 -12 105c0 76 30 136 74 167c45 32 93 47 142 47c69 0 128 -26 178 -78c21 -21 24 -41 8 -58c-15 -17 -34 -20 -57 1c-39 43 -82 64 -129 64c-87 0 -140 -59 -140 -142
c0 -27 4 -63 13 -106h170c26 0 39 -11 39 -34s-13 -34 -39 -34h-156l56 -253h194v113c0 26 11 39 34 39s34 -13 34 -39v-138c0 -25 -20 -47 -45 -47z" />
    <glyph glyph-name="yen" unicode="&#xa5;" horiz-adv-x="611" 
d="M138 363h129l-171 282c-14 25 -10 43 13 55c22 12 40 5 53 -20l171 -292l170 292c13 25 31 32 53 20c23 -12 27 -30 13 -55l-172 -282h130c25 0 38 -11 38 -34s-13 -35 -38 -35h-157v-79h157c25 0 38 -11 38 -34s-13 -35 -38 -35h-157v-108c0 -29 -13 -43 -38 -43
s-38 14 -38 43v108h-156c-25 0 -38 12 -38 35s13 34 38 34h156v79h-156c-25 0 -38 12 -38 35s13 34 38 34z" />
    <glyph glyph-name="brokenbar" unicode="&#xa6;" horiz-adv-x="403" 
d="M239 133v-289c0 -29 -12 -43 -36 -43c-25 0 -38 14 -38 43v289c0 29 13 43 38 43c24 0 36 -14 36 -43zM239 662v-288c0 -29 -12 -43 -36 -43c-25 0 -38 14 -38 43v288c0 29 13 43 38 43c24 0 36 -14 36 -43z" />
    <glyph glyph-name="section" unicode="&#xa7;" horiz-adv-x="637" 
d="M361 332l-162 65c-29 -21 -52 -64 -52 -99c0 -57 39 -91 120 -122l168 -65c29 22 44 53 44 94c0 57 -38 95 -118 127zM433 578c-47 45 -80 64 -133 64c-67 0 -115 -37 -115 -94c0 -45 29 -78 88 -101l101 -39c123 -47 182 -106 182 -199c0 -53 -22 -99 -67 -138
c29 -31 43 -69 43 -112c0 -45 -18 -84 -54 -116s-84 -48 -145 -48c-83 0 -154 35 -214 106c-19 21 -19 41 -2 58c21 17 39 15 55 -6c47 -59 101 -88 162 -88c79 0 121 37 121 94c0 47 -34 83 -101 106l-116 40c-101 36 -167 101 -167 190c0 59 25 108 75 145
c-25 31 -37 66 -37 105c0 49 18 89 55 120s84 47 141 47c83 0 130 -30 185 -85c19 -21 17 -42 1 -57c-17 -15 -37 -13 -58 8z" />
    <glyph glyph-name="dieresis" unicode="&#xa8;" 
d="M151 618c-19 20 -19 54 0 74c20 20 54 20 74 0s20 -54 0 -74c-20 -19 -54 -19 -74 0zM332 618c-19 20 -19 54 0 74c20 20 54 20 74 0s20 -54 0 -74c-20 -19 -54 -19 -74 0z" />
    <glyph glyph-name="copyright" unicode="&#xa9;" horiz-adv-x="836" 
d="M62 351c0 100 34 185 103 255c69 71 153 106 253 106c99 0 183 -35 252 -106s104 -156 104 -255c0 -101 -34 -187 -103 -257s-153 -105 -253 -105s-184 35 -253 105s-103 156 -103 257zM127 351c0 -84 28 -155 83 -213c56 -57 125 -86 208 -86s152 29 208 86
c56 58 84 129 84 213c0 83 -28 153 -84 211s-125 87 -208 87s-152 -29 -208 -87c-55 -58 -83 -128 -83 -211zM508 459c-25 19 -53 29 -84 29c-35 0 -65 -14 -90 -41s-37 -59 -37 -97c0 -39 12 -72 36 -99c24 -26 55 -39 93 -39s69 12 93 36c17 15 32 16 47 1
c13 -15 12 -30 -4 -46c-35 -35 -82 -53 -140 -53c-55 0 -101 19 -138 58s-56 87 -56 142s19 102 57 141s84 58 139 58c56 0 99 -15 129 -45c17 -17 18 -33 4 -47c-13 -13 -30 -13 -49 2z" />
    <glyph glyph-name="ordfeminine" unicode="&#xaa;" horiz-adv-x="420" 
d="M130 623c-15 -16 -39 -18 -47 -7c-14 13 -15 26 -3 41c29 37 69 55 120 55c88 0 147 -51 147 -142v-201c0 -20 -14 -31 -31 -31c-16 0 -31 11 -31 31v8c-25 -29 -61 -43 -107 -43c-69 0 -122 41 -122 110c0 72 57 116 137 116c28 0 58 -5 90 -15v24c0 55 -32 85 -84 85
c-27 0 -50 -10 -69 -31zM181 391c37 0 71 16 102 49v47c-33 11 -62 16 -85 16c-48 0 -78 -26 -78 -58s26 -54 61 -54z" />
    <glyph glyph-name="guillemotleft" unicode="&#xab;" horiz-adv-x="554" 
d="M389 16l-109 197c-13 23 -13 41 0 64l110 197c13 23 30 28 51 15c19 -12 23 -30 10 -53l-109 -191l108 -191c13 -23 9 -41 -10 -53c-21 -13 -38 -8 -51 15zM166 16l-109 197c-13 23 -13 41 0 64l110 197c13 23 30 28 51 15c19 -12 23 -30 10 -53l-109 -191l108 -191
c13 -23 9 -41 -10 -53c-21 -13 -38 -8 -51 15z" />
    <glyph glyph-name="logicalnot" unicode="&#xac;" horiz-adv-x="637" 
d="M483 118v110h-382c-25 0 -38 12 -38 35s13 34 38 34h398c33 0 53 -21 53 -54v-125c0 -25 -12 -38 -35 -38s-34 13 -34 38z" />
    <glyph glyph-name="registered" unicode="&#xae;" horiz-adv-x="669" 
d="M62 435c0 77 26 142 78 196c53 54 117 81 193 81s141 -27 194 -81s80 -119 80 -196c0 -76 -27 -141 -80 -195c-53 -53 -118 -80 -194 -80s-140 27 -193 80c-52 54 -78 119 -78 195zM125 435c0 -60 20 -111 60 -152s89 -62 148 -62s109 21 149 62c41 41 61 92 61 152
c0 61 -20 112 -61 153c-40 42 -90 63 -149 63s-108 -21 -148 -63c-40 -41 -60 -92 -60 -153zM342 526h-47v-84h47c35 0 53 14 53 42s-18 42 -53 42zM243 345v185c0 25 16 40 36 40h77c53 0 90 -37 90 -86c0 -36 -21 -68 -54 -81l36 -48c9 -15 5 -28 -7 -35
c-13 -8 -24 -5 -35 10l-46 66h-45v-51c0 -38 -52 -38 -52 0z" />
    <glyph glyph-name="overscore" unicode="&#xaf;" 
d="M200 700h160c26 0 39 -11 39 -34s-13 -34 -39 -34h-160c-26 0 -39 11 -39 34s13 34 39 34z" />
    <glyph glyph-name="degree" unicode="&#xb0;" horiz-adv-x="420" 
d="M364 559c0 -43 -15 -80 -45 -110c-30 -29 -66 -44 -109 -44s-79 15 -109 45s-45 66 -45 109s15 79 45 108c30 30 66 45 109 45s79 -15 109 -45c30 -29 45 -65 45 -108zM125 559c0 -52 36 -89 85 -89c48 0 85 37 85 89c0 51 -37 89 -85 89c-49 0 -85 -38 -85 -89z" />
    <glyph glyph-name="plusminus" unicode="&#xb1;" horiz-adv-x="660" 
d="M293 114v178h-180c-25 0 -38 12 -38 35c0 22 13 33 38 33h180v176c0 26 12 39 35 39c24 0 36 -13 36 -39v-176h183c25 0 38 -11 38 -33c0 -23 -13 -35 -38 -35h-183v-178c0 -26 -12 -39 -36 -39c-23 0 -35 13 -35 39zM113 0h434c25 0 38 -11 38 -33
c0 -23 -13 -35 -38 -35h-434c-25 0 -38 12 -38 35c0 22 13 33 38 33z" />
    <glyph glyph-name="twosuperior" unicode="&#xb2;" horiz-adv-x="425" 
d="M77 345c0 67 45 126 134 176l10 5c17 10 30 17 37 22c15 9 32 30 32 54c0 29 -27 52 -70 52c-30 0 -57 -13 -82 -40c-17 -17 -32 -18 -47 -2c-13 14 -11 30 6 47c35 35 76 53 122 53c80 0 138 -42 138 -111c0 -56 -28 -85 -96 -124l-32 -18c-47 -26 -74 -57 -82 -92h181
c23 0 34 -10 34 -30c0 -19 -11 -29 -34 -29h-208c-29 0 -43 16 -43 37z" />
    <glyph glyph-name="threesuperior" unicode="&#xb3;" horiz-adv-x="407" 
d="M139 627c-18 -15 -33 -14 -45 2c-12 15 -9 30 8 45c31 25 67 38 109 38c35 0 65 -10 91 -30c27 -20 40 -46 40 -78c0 -44 -27 -79 -55 -90c43 -19 65 -52 65 -99c0 -75 -64 -119 -144 -119c-45 0 -84 15 -117 44c-18 15 -21 31 -8 47c12 16 27 17 45 2
c26 -23 53 -34 82 -34c45 0 77 23 77 59c0 43 -30 65 -90 65h-7c-23 0 -34 10 -34 29c0 20 11 30 34 30c56 0 87 24 87 63c0 33 -30 53 -66 53c-25 0 -49 -9 -72 -27z" />
    <glyph glyph-name="acute" unicode="&#xb4;" 
d="M237 625l103 72c22 15 40 12 54 -9c11 -20 6 -37 -17 -52l-108 -64c-20 -13 -36 -10 -47 8c-9 16 -4 31 15 45z" />
    <glyph glyph-name="mu" unicode="&#xb5;" horiz-adv-x="580" 
d="M159 34v-191c0 -28 -12 -42 -37 -42s-37 14 -37 42v611c0 28 12 42 37 42s37 -14 37 -42v-259c0 -88 43 -136 120 -136c96 0 142 70 142 190v205c0 28 12 42 37 42s37 -14 37 -42v-417c0 -27 -16 -41 -37 -41c-23 0 -35 14 -35 41v25c-37 -49 -86 -73 -149 -73
c-49 0 -87 15 -115 45z" />
    <glyph glyph-name="paragraph" unicode="&#xb6;" horiz-adv-x="695" 
d="M610 654v-808c0 -30 -12 -45 -36 -45c-27 0 -40 15 -40 45v786h-75v-786c0 -30 -12 -45 -37 -45c-27 0 -40 15 -40 45v412h-92c-79 0 -141 20 -188 60c-46 40 -69 94 -69 161s23 121 69 161c47 40 109 60 188 60h275c25 0 45 -21 45 -46z" />
    <glyph glyph-name="middot" unicode="&#xb7;" horiz-adv-x="382" 
d="M187 321c35 0 61 -25 61 -60c0 -33 -26 -59 -61 -59c-33 0 -59 26 -59 59s26 60 59 60z" />
    <glyph glyph-name="cedilla" unicode="&#xb8;" horiz-adv-x="555" 
d="M351 5l-47 -117c-11 -26 -27 -35 -50 -28c-23 8 -32 24 -20 53l59 117c11 22 26 29 44 22c19 -7 24 -23 14 -47z" />
    <glyph glyph-name="onesuperior" unicode="&#xb9;" horiz-adv-x="396" 
d="M250 665v-299h73c22 0 33 -10 33 -29s-11 -29 -33 -29h-215c-22 0 -33 10 -33 29s11 29 33 29h77v247c-25 -14 -50 -21 -77 -21c-22 0 -33 10 -33 29c0 17 11 26 33 29c31 3 56 17 77 40c9 10 19 15 30 15c23 0 35 -13 35 -40z" />
    <glyph glyph-name="ordmasculine" unicode="&#xba;" horiz-adv-x="491" 
d="M56 521c0 53 18 98 55 135s82 56 135 56c52 0 96 -19 133 -56s56 -82 56 -135s-19 -98 -56 -135s-81 -55 -133 -55c-53 0 -98 18 -135 55s-55 82 -55 135zM246 392c73 0 124 56 124 129c0 75 -51 130 -124 130c-75 0 -125 -55 -125 -130s50 -129 125 -129z" />
    <glyph glyph-name="guillemotright" unicode="&#xbb;" horiz-adv-x="554" 
d="M293 213l-109 -197c-13 -23 -30 -28 -51 -15c-19 12 -23 30 -10 53l108 191l-109 191c-13 23 -9 41 10 53c21 13 38 8 51 -15l110 -197c13 -23 13 -41 0 -64zM516 213l-109 -197c-13 -23 -30 -28 -51 -15c-19 12 -23 30 -10 53l108 191l-109 191c-13 23 -9 41 10 53
c21 13 38 8 51 -15l110 -197c13 -23 13 -41 0 -64z" />
    <glyph glyph-name="onequarter" unicode="&#xbc;" horiz-adv-x="946" 
d="M767 295l-119 -156h119v156zM578 136l184 242c7 10 16 15 29 15c27 0 40 -15 40 -45v-209h30c22 0 33 -10 33 -29s-11 -29 -33 -29h-30v-49c0 -25 -11 -37 -32 -37s-32 12 -32 37v49h-157c-41 0 -48 35 -32 55zM728 648l-387 -632c-14 -22 -31 -28 -50 -17
c-19 13 -22 30 -9 53l387 632c13 23 30 28 51 16c19 -12 22 -29 8 -52zM250 665v-299h73c22 0 33 -10 33 -29s-11 -29 -33 -29h-215c-22 0 -33 10 -33 29s11 29 33 29h77v247c-25 -14 -50 -21 -77 -21c-22 0 -33 10 -33 29c0 17 11 26 33 29c31 3 56 17 77 40
c9 10 19 15 30 15c23 0 35 -13 35 -40z" />
    <glyph glyph-name="onehalf" unicode="&#xbd;" horiz-adv-x="984" 
d="M642 37c0 67 45 126 134 176l10 5c17 10 30 17 37 22c15 9 32 30 32 54c0 29 -27 52 -70 52c-30 0 -57 -13 -82 -40c-17 -17 -32 -18 -47 -2c-13 14 -11 30 6 47c35 35 76 53 122 53c80 0 138 -42 138 -111c0 -56 -28 -85 -96 -124l-32 -18c-47 -26 -74 -57 -82 -92h181
c23 0 34 -10 34 -30c0 -19 -11 -29 -34 -29h-208c-29 0 -43 16 -43 37zM250 665v-299h73c22 0 33 -10 33 -29s-11 -29 -33 -29h-215c-22 0 -33 10 -33 29s11 29 33 29h77v247c-25 -14 -50 -21 -77 -21c-22 0 -33 10 -33 29c0 17 11 26 33 29c31 3 56 17 77 40
c9 10 19 15 30 15c23 0 35 -13 35 -40zM728 648l-387 -632c-14 -22 -31 -28 -50 -17c-19 13 -22 30 -9 53l387 632c13 23 30 28 51 16c19 -12 22 -29 8 -52z" />
    <glyph glyph-name="threequarters" unicode="&#xbe;" horiz-adv-x="878" 
d="M729 295l-119 -156h119v156zM540 136l184 242c7 10 17 15 29 15c27 0 40 -15 40 -45v-209h30c22 0 33 -10 33 -29s-11 -29 -33 -29h-30v-49c0 -25 -11 -37 -32 -37s-32 12 -32 37v49h-157c-41 0 -48 35 -32 55zM139 627c-18 -15 -33 -14 -45 2c-12 15 -9 30 8 45
c31 25 67 38 109 38c35 0 65 -10 91 -30c27 -20 40 -46 40 -78c0 -44 -27 -79 -55 -90c43 -19 65 -52 65 -99c0 -75 -64 -119 -144 -119c-45 0 -84 15 -117 44c-18 15 -21 31 -8 47c12 16 27 17 45 2c26 -23 53 -34 82 -34c45 0 77 23 77 59c0 43 -30 65 -90 65h-7
c-23 0 -34 10 -34 29c0 20 11 30 34 30c56 0 87 24 87 63c0 33 -30 53 -66 53c-25 0 -49 -9 -72 -27zM710 648l-387 -632c-14 -22 -31 -28 -50 -17c-19 13 -22 30 -9 53l387 632c13 23 30 28 51 16c19 -12 22 -29 8 -52z" />
    <glyph glyph-name="questiondown" unicode="&#xbf;" horiz-adv-x="556" 
d="M307 383c-35 0 -61 25 -61 60c0 33 26 59 61 59c33 0 59 -26 59 -59s-26 -60 -59 -60zM345 168c0 -27 -15 -43 -45 -46c-100 -12 -155 -63 -155 -136s58 -120 139 -120c61 0 113 26 154 77c18 21 36 23 55 8s19 -33 2 -54c-55 -68 -126 -102 -211 -102
c-63 0 -114 17 -155 51s-61 80 -61 137c0 105 73 185 200 205v55c0 29 13 43 39 43c25 0 38 -14 38 -43v-75z" />
    <glyph glyph-name="Agrave" unicode="&#xc0;" horiz-adv-x="700" 
d="M507 234l-143 369l-141 -369h284zM68 51l239 612c11 28 31 42 58 42c28 0 47 -14 58 -43l238 -611c10 -27 3 -44 -21 -53c-23 -9 -40 0 -51 27l-54 136h-342l-53 -136c-11 -27 -28 -36 -51 -27c-24 9 -31 26 -21 53zM333 902l103 -72c19 -14 24 -29 15 -45
c-11 -18 -27 -21 -47 -8l-108 64c-23 15 -28 32 -17 52c14 21 32 24 54 9z" />
    <glyph glyph-name="Aacute" unicode="&#xc1;" horiz-adv-x="700" 
d="M507 234l-143 369l-141 -369h284zM68 51l239 612c11 28 31 42 58 42c28 0 47 -14 58 -43l238 -611c10 -27 3 -44 -21 -53c-23 -9 -40 0 -51 27l-54 136h-342l-53 -136c-11 -27 -28 -36 -51 -27c-24 9 -31 26 -21 53zM293 830l103 72c22 15 40 12 54 -9
c11 -20 6 -37 -17 -52l-108 -64c-20 -13 -36 -10 -47 8c-9 16 -4 31 15 45z" />
    <glyph glyph-name="Acircumflex" unicode="&#xc2;" horiz-adv-x="700" 
d="M507 234l-143 369l-141 -369h284zM68 51l239 612c11 28 31 42 58 42c28 0 47 -14 58 -43l238 -611c10 -27 3 -44 -21 -53c-23 -9 -40 0 -51 27l-54 136h-342l-53 -136c-11 -27 -28 -36 -51 -27c-24 9 -31 26 -21 53zM389 902l93 -72c19 -15 24 -30 15 -45
c-12 -19 -28 -21 -47 -8l-85 56l-85 -56c-19 -13 -35 -11 -47 8c-9 15 -4 30 15 45l93 72c15 11 33 11 48 0z" />
    <glyph glyph-name="Atilde" unicode="&#xc3;" horiz-adv-x="700" 
d="M507 234l-143 369l-141 -369h284zM68 51l239 612c11 28 31 42 58 42c28 0 47 -14 58 -43l238 -611c10 -27 3 -44 -21 -53c-23 -9 -40 0 -51 27l-54 136h-342l-53 -136c-11 -27 -28 -36 -51 -27c-24 9 -31 26 -21 53zM346 897l30 -13c11 -6 30 -15 42 -15
c14 0 17 10 21 17l2 5c6 13 16 20 29 20c20 0 30 -10 30 -31c0 -44 -30 -77 -74 -77c-11 0 -25 3 -42 10l-30 13c-11 6 -30 15 -42 15c-14 0 -17 -10 -21 -17l-2 -5c-6 -13 -16 -20 -29 -20c-20 0 -30 10 -30 31c0 44 30 77 74 77c11 0 25 -3 42 -10z" />
    <glyph glyph-name="Adieresis" unicode="&#xc4;" horiz-adv-x="700" 
d="M507 234l-143 369l-141 -369h284zM68 51l239 612c11 28 31 42 58 42c28 0 47 -14 58 -43l238 -611c10 -27 3 -44 -21 -53c-23 -9 -40 0 -51 27l-54 136h-342l-53 -136c-11 -27 -28 -36 -51 -27c-24 9 -31 26 -21 53zM237 823c-19 20 -19 54 0 74c20 20 54 20 74 0
s20 -54 0 -74c-20 -19 -54 -19 -74 0zM418 823c-19 20 -19 54 0 74c20 20 54 20 74 0s20 -54 0 -74c-20 -19 -54 -19 -74 0z" />
    <glyph glyph-name="Aring" unicode="&#xc5;" horiz-adv-x="700" 
d="M507 234l-143 369l-141 -369h284zM68 51l239 612c11 28 31 42 58 42c28 0 47 -14 58 -43l238 -611c10 -27 3 -44 -21 -53c-23 -9 -40 0 -51 27l-54 136h-342l-53 -136c-11 -27 -28 -36 -51 -27c-24 9 -31 26 -21 53zM288 840c0 45 34 77 75 77c45 0 79 -32 79 -77
c0 -43 -34 -76 -79 -76c-41 0 -75 35 -75 76zM366 811c36 -4 36 62 0 57c-39 5 -39 -61 0 -57z" />
    <glyph glyph-name="AE" unicode="&#xc6;" horiz-adv-x="903" 
d="M57 51l237 607c11 28 31 42 58 42h460c28 0 42 -12 42 -36c0 -20 -14 -36 -42 -36h-387l91 -235h285c28 0 42 -12 42 -36c0 -20 -14 -36 -42 -36h-257l98 -249h170c28 0 42 -12 42 -36c0 -20 -14 -36 -42 -36h-188c-24 0 -40 10 -48 30l-52 131h-342l-53 -136
c-10 -27 -27 -36 -51 -27s-31 26 -21 53zM496 234l-143 369l-141 -369h284z" />
    <glyph glyph-name="Ccedilla" unicode="&#xc7;" horiz-adv-x="710" 
d="M639 616c19 -19 21 -38 4 -55c-18 -17 -37 -16 -56 3c-51 51 -114 77 -189 77c-77 0 -142 -28 -194 -84c-51 -56 -77 -125 -77 -208c0 -81 26 -150 78 -206c53 -55 119 -83 198 -83c77 0 142 26 195 77c19 19 38 20 56 3c17 -19 16 -37 -4 -55c-63 -59 -139 -91 -230 -95
l-40 -102c-11 -26 -27 -35 -50 -28c-23 8 -32 24 -20 53l40 80c-87 13 -159 52 -215 119s-84 146 -84 237c0 101 33 186 99 257c67 71 149 106 248 106c97 0 177 -32 241 -96z" />
    <glyph glyph-name="Egrave" unicode="&#xc8;" horiz-adv-x="624" 
d="M512 0h-382c-25 0 -45 21 -45 46v608c0 25 20 46 45 46h382c28 0 42 -12 42 -36c0 -20 -14 -36 -42 -36h-351v-235h340c28 0 42 -12 42 -36c0 -20 -14 -36 -42 -36h-340v-249h351c28 0 42 -12 42 -36c0 -20 -14 -36 -42 -36zM280 902l103 -72c19 -14 24 -29 15 -45
c-11 -18 -27 -21 -47 -8l-108 64c-23 15 -28 32 -17 52c14 21 32 24 54 9z" />
    <glyph glyph-name="Eacute" unicode="&#xc9;" horiz-adv-x="624" 
d="M512 0h-382c-25 0 -45 21 -45 46v608c0 25 20 46 45 46h382c28 0 42 -12 42 -36c0 -20 -14 -36 -42 -36h-351v-235h340c28 0 42 -12 42 -36c0 -20 -14 -36 -42 -36h-340v-249h351c28 0 42 -12 42 -36c0 -20 -14 -36 -42 -36zM240 830l103 72c22 15 40 12 54 -9
c11 -20 6 -37 -17 -52l-108 -64c-20 -13 -36 -10 -47 8c-9 16 -4 31 15 45z" />
    <glyph glyph-name="Ecircumflex" unicode="&#xca;" horiz-adv-x="624" 
d="M512 0h-382c-25 0 -45 21 -45 46v608c0 25 20 46 45 46h382c28 0 42 -12 42 -36c0 -20 -14 -36 -42 -36h-351v-235h340c28 0 42 -12 42 -36c0 -20 -14 -36 -42 -36h-340v-249h351c28 0 42 -12 42 -36c0 -20 -14 -36 -42 -36zM336 902l93 -72c19 -15 24 -30 15 -45
c-12 -19 -28 -21 -47 -8l-85 56l-85 -56c-19 -13 -35 -11 -47 8c-9 15 -4 30 15 45l93 72c15 11 33 11 48 0z" />
    <glyph glyph-name="Edieresis" unicode="&#xcb;" horiz-adv-x="624" 
d="M512 0h-382c-25 0 -45 21 -45 46v608c0 25 20 46 45 46h382c28 0 42 -12 42 -36c0 -20 -14 -36 -42 -36h-351v-235h340c28 0 42 -12 42 -36c0 -20 -14 -36 -42 -36h-340v-249h351c28 0 42 -12 42 -36c0 -20 -14 -36 -42 -36zM184 823c-19 20 -19 54 0 74
c20 20 54 20 74 0s20 -54 0 -74c-20 -19 -54 -19 -74 0zM365 823c-19 20 -19 54 0 74c20 20 54 20 74 0s20 -54 0 -74c-20 -19 -54 -19 -74 0z" />
    <glyph glyph-name="Igrave" unicode="&#xcc;" horiz-adv-x="246" 
d="M109 902l103 -72c19 -14 24 -29 15 -45c-11 -18 -27 -21 -47 -8l-108 64c-23 15 -28 32 -17 52c14 21 32 24 54 9zM178 663v-625c0 -29 -13 -43 -38 -43s-38 14 -38 43v625c0 29 13 43 38 43s38 -14 38 -43z" />
    <glyph glyph-name="Iacute" unicode="&#xcd;" horiz-adv-x="246" 
d="M66 830l103 72c22 15 40 12 54 -9c11 -20 6 -37 -17 -52l-108 -64c-20 -13 -36 -10 -47 8c-9 16 -4 31 15 45zM175 663v-625c0 -29 -13 -43 -38 -43s-38 14 -38 43v625c0 29 13 43 38 43s38 -14 38 -43z" />
    <glyph glyph-name="Icircumflex" unicode="&#xce;" horiz-adv-x="246" 
d="M160 902l93 -72c19 -15 24 -30 15 -45c-12 -19 -28 -21 -47 -8l-85 56l-85 -56c-19 -13 -35 -11 -47 8c-9 15 -4 30 15 45l93 72c15 11 33 11 48 0zM174 663v-625c0 -29 -13 -43 -38 -43s-38 14 -38 43v625c0 29 13 43 38 43s38 -14 38 -43z" />
    <glyph glyph-name="Idieresis" unicode="&#xcf;" horiz-adv-x="246" 
d="M-5 823c-19 20 -19 54 1 74c19 20 53 20 73 0s20 -54 0 -74c-20 -19 -54 -19 -74 0zM176 823c-19 20 -19 54 0 74c20 20 54 20 74 0s20 -54 0 -74c-20 -19 -54 -19 -74 0zM161 663v-625c0 -29 -13 -43 -38 -43s-38 14 -38 43v625c0 29 13 43 38 43s38 -14 38 -43z" />
    <glyph glyph-name="Eth" unicode="&#xd0;" horiz-adv-x="728" 
d="M298 0h-145c-25 1 -45 22 -45 47v274h-49c-55 0 -55 72 0 72h49v261c0 25 20 46 45 46h145c189 0 380 -79 380 -345s-191 -355 -380 -355zM307 628h-123v-235h97c28 0 42 -12 42 -36s-14 -36 -42 -36h-97v-249h124c150 0 291 75 291 283c0 202 -141 273 -292 273z" />
    <glyph glyph-name="Ntilde" unicode="&#xd1;" horiz-adv-x="722" 
d="M545 20l-384 548v-530c0 -29 -13 -43 -38 -43s-38 14 -38 43v612c0 33 20 55 49 55c18 0 33 -8 44 -25l383 -549v531c0 29 13 43 38 43c26 0 39 -14 39 -43v-612c0 -33 -20 -55 -49 -55c-18 0 -33 8 -44 25zM342 897l30 -13c11 -6 30 -15 42 -15c14 0 17 10 21 17l2 5
c6 13 16 20 29 20c20 0 30 -10 30 -31c0 -44 -30 -77 -74 -77c-11 0 -25 3 -42 10l-30 13c-11 6 -30 15 -42 15c-14 0 -17 -10 -21 -17l-2 -5c-6 -13 -16 -20 -29 -20c-20 0 -30 10 -30 31c0 44 30 77 74 77c11 0 25 -3 42 -10z" />
    <glyph glyph-name="Ograve" unicode="&#xd2;" horiz-adv-x="801" 
d="M51 351c0 100 33 185 100 255c67 71 149 106 248 106s183 -35 250 -106c68 -70 102 -155 102 -255c0 -101 -34 -187 -101 -257s-151 -105 -251 -105c-99 0 -182 35 -249 105c-66 70 -99 156 -99 257zM127 351c0 -83 26 -153 77 -208s118 -83 199 -83c80 0 145 28 196 83
s77 125 77 208c0 82 -26 151 -77 206c-51 56 -116 84 -196 84c-81 0 -147 -28 -199 -84c-51 -55 -77 -124 -77 -206zM369 902l103 -72c19 -14 24 -29 15 -45c-11 -18 -27 -21 -47 -8l-108 64c-23 15 -28 32 -17 52c14 21 32 24 54 9z" />
    <glyph glyph-name="Oacute" unicode="&#xd3;" horiz-adv-x="801" 
d="M51 351c0 100 33 185 100 255c67 71 149 106 248 106s183 -35 250 -106c68 -70 102 -155 102 -255c0 -101 -34 -187 -101 -257s-151 -105 -251 -105c-99 0 -182 35 -249 105c-66 70 -99 156 -99 257zM127 351c0 -83 26 -153 77 -208s118 -83 199 -83c80 0 145 28 196 83
s77 125 77 208c0 82 -26 151 -77 206c-51 56 -116 84 -196 84c-81 0 -147 -28 -199 -84c-51 -55 -77 -124 -77 -206zM329 830l103 72c22 15 40 12 54 -9c11 -20 6 -37 -17 -52l-108 -64c-20 -13 -36 -10 -47 8c-9 16 -4 31 15 45z" />
    <glyph glyph-name="Ocircumflex" unicode="&#xd4;" horiz-adv-x="801" 
d="M51 351c0 100 33 185 100 255c67 71 149 106 248 106s183 -35 250 -106c68 -70 102 -155 102 -255c0 -101 -34 -187 -101 -257s-151 -105 -251 -105c-99 0 -182 35 -249 105c-66 70 -99 156 -99 257zM127 351c0 -83 26 -153 77 -208s118 -83 199 -83c80 0 145 28 196 83
s77 125 77 208c0 82 -26 151 -77 206c-51 56 -116 84 -196 84c-81 0 -147 -28 -199 -84c-51 -55 -77 -124 -77 -206zM424 902l93 -72c19 -15 24 -30 15 -45c-12 -19 -28 -21 -47 -8l-85 56l-85 -56c-19 -13 -35 -11 -47 8c-9 15 -4 30 15 45l93 72c15 11 33 11 48 0z" />
    <glyph glyph-name="Otilde" unicode="&#xd5;" horiz-adv-x="801" 
d="M51 351c0 100 33 185 100 255c67 71 149 106 248 106s183 -35 250 -106c68 -70 102 -155 102 -255c0 -101 -34 -187 -101 -257s-151 -105 -251 -105c-99 0 -182 35 -249 105c-66 70 -99 156 -99 257zM127 351c0 -83 26 -153 77 -208s118 -83 199 -83c80 0 145 28 196 83
s77 125 77 208c0 82 -26 151 -77 206c-51 56 -116 84 -196 84c-81 0 -147 -28 -199 -84c-51 -55 -77 -124 -77 -206zM381 897l30 -13c11 -6 30 -15 42 -15c14 0 17 10 21 17l2 5c6 13 16 20 29 20c20 0 30 -10 30 -31c0 -44 -30 -77 -74 -77c-11 0 -25 3 -42 10l-30 13
c-11 6 -30 15 -42 15c-14 0 -17 -10 -21 -17l-2 -5c-6 -13 -16 -20 -29 -20c-20 0 -30 10 -30 31c0 44 30 77 74 77c11 0 25 -3 42 -10z" />
    <glyph glyph-name="Odieresis" unicode="&#xd6;" horiz-adv-x="801" 
d="M51 351c0 100 33 185 100 255c67 71 149 106 248 106s183 -35 250 -106c68 -70 102 -155 102 -255c0 -101 -34 -187 -101 -257s-151 -105 -251 -105c-99 0 -182 35 -249 105c-66 70 -99 156 -99 257zM127 351c0 -83 26 -153 77 -208s118 -83 199 -83c80 0 145 28 196 83
s77 125 77 208c0 82 -26 151 -77 206c-51 56 -116 84 -196 84c-81 0 -147 -28 -199 -84c-51 -55 -77 -124 -77 -206zM272 823c-19 20 -19 54 0 74c20 20 54 20 74 0s20 -54 0 -74c-20 -19 -54 -19 -74 0zM453 823c-19 20 -19 54 0 74c20 20 54 20 74 0s20 -54 0 -74
c-20 -19 -54 -19 -74 0z" />
    <glyph glyph-name="multiply" unicode="&#xd7;" horiz-adv-x="578" 
d="M108 112l133 133l-133 134c-17 16 -17 37 -2 52s32 14 50 -4l133 -134l134 134c18 18 35 19 50 4c17 -17 16 -34 -2 -52l-134 -134l134 -133c17 -18 18 -35 3 -50c-16 -16 -33 -15 -51 2l-134 133l-133 -133c-17 -17 -34 -18 -51 -2c-13 13 -12 35 3 50z" />
    <glyph glyph-name="Oslash" unicode="&#xd8;" horiz-adv-x="801" 
d="M57 351c0 100 33 185 100 255c67 71 149 106 248 106c64 0 123 -16 176 -47l21 30c15 22 32 26 52 13c19 -13 20 -31 5 -53l-22 -31c75 -68 120 -166 120 -273c0 -101 -34 -187 -101 -257s-151 -105 -251 -105c-67 0 -127 17 -180 50l-23 -33c-16 -21 -33 -26 -51 -14
c-19 14 -21 32 -6 53l25 36c-75 70 -113 160 -113 270zM682 351c0 87 -28 158 -85 215l-331 -469c42 -25 90 -37 143 -37c80 0 145 28 196 83s77 125 77 208zM133 351c0 -85 26 -155 79 -210l329 467c-40 22 -84 33 -132 33c-81 0 -147 -28 -199 -84
c-51 -55 -77 -124 -77 -206z" />
    <glyph glyph-name="Ugrave" unicode="&#xd9;" horiz-adv-x="678" 
d="M73 275v387c0 29 13 43 38 43s38 -14 38 -43v-388c0 -62 17 -113 50 -154c33 -40 80 -60 140 -60s107 20 140 61s50 92 50 154v387c0 29 13 43 38 43s38 -14 38 -43v-387c0 -84 -24 -153 -71 -206s-112 -80 -195 -80s-148 27 -195 80s-71 122 -71 206zM307 902l103 -72
c19 -14 24 -29 15 -45c-11 -18 -27 -21 -47 -8l-108 64c-23 15 -28 32 -17 52c14 21 32 24 54 9z" />
    <glyph glyph-name="Uacute" unicode="&#xda;" horiz-adv-x="678" 
d="M73 275v387c0 29 13 43 38 43s38 -14 38 -43v-388c0 -62 17 -113 50 -154c33 -40 80 -60 140 -60s107 20 140 61s50 92 50 154v387c0 29 13 43 38 43s38 -14 38 -43v-387c0 -84 -24 -153 -71 -206s-112 -80 -195 -80s-148 27 -195 80s-71 122 -71 206zM267 830l103 72
c22 15 40 12 54 -9c11 -20 6 -37 -17 -52l-108 -64c-20 -13 -36 -10 -47 8c-9 16 -4 31 15 45z" />
    <glyph glyph-name="Ucircumflex" unicode="&#xdb;" horiz-adv-x="678" 
d="M73 275v387c0 29 13 43 38 43s38 -14 38 -43v-388c0 -62 17 -113 50 -154c33 -40 80 -60 140 -60s107 20 140 61s50 92 50 154v387c0 29 13 43 38 43s38 -14 38 -43v-387c0 -84 -24 -153 -71 -206s-112 -80 -195 -80s-148 27 -195 80s-71 122 -71 206zM363 902l93 -72
c19 -15 24 -30 15 -45c-12 -19 -28 -21 -47 -8l-85 56l-85 -56c-19 -13 -35 -11 -47 8c-9 15 -4 30 15 45l93 72c15 11 33 11 48 0z" />
    <glyph glyph-name="Udieresis" unicode="&#xdc;" horiz-adv-x="678" 
d="M73 275v387c0 29 13 43 38 43s38 -14 38 -43v-388c0 -62 17 -113 50 -154c33 -40 80 -60 140 -60s107 20 140 61s50 92 50 154v387c0 29 13 43 38 43s38 -14 38 -43v-387c0 -84 -24 -153 -71 -206s-112 -80 -195 -80s-148 27 -195 80s-71 122 -71 206zM211 823
c-19 20 -19 54 0 74c20 20 54 20 74 0s20 -54 0 -74c-20 -19 -54 -19 -74 0zM392 823c-19 20 -19 54 0 74c20 20 54 20 74 0s20 -54 0 -74c-20 -19 -54 -19 -74 0z" />
    <glyph glyph-name="Yacute" unicode="&#xdd;" horiz-adv-x="588" 
d="M552 645l-199 -362v-245c0 -29 -13 -43 -38 -43s-38 14 -38 43v245l-198 362c-14 25 -10 43 13 55c22 12 40 5 53 -20l171 -322l170 322c13 25 31 32 53 20c23 -12 27 -30 13 -55zM244 830l103 72c22 15 40 12 54 -9c11 -20 6 -37 -17 -52l-108 -64
c-20 -13 -36 -10 -47 8c-9 16 -4 31 15 45z" />
    <glyph glyph-name="Thorn" unicode="&#xde;" horiz-adv-x="619" 
d="M340 509h-179v-299h179c104 0 169 51 169 150c0 95 -65 149 -169 149zM161 662v-81h168c78 0 140 -20 186 -60c47 -40 70 -94 70 -161s-23 -121 -69 -161s-108 -60 -187 -60h-168v-101c0 -29 -13 -43 -38 -43s-38 14 -38 43v624c0 29 13 43 38 43s38 -14 38 -43z" />
    <glyph glyph-name="germandbls" unicode="&#xdf;" horiz-adv-x="654" 
d="M309 384h41c79 0 136 41 136 122c0 35 -14 64 -42 89c-27 25 -63 38 -108 38c-111 0 -171 -70 -171 -203v-392c0 -29 -13 -43 -38 -43s-37 14 -37 43v392c0 172 86 271 246 271c61 0 113 -19 158 -57s67 -85 67 -141c0 -63 -32 -118 -77 -145c64 -33 108 -93 108 -169
c0 -62 -21 -109 -63 -141c-41 -32 -94 -48 -159 -48h-66c-26 0 -39 11 -39 34s13 34 39 34h51c45 0 83 10 115 29c32 20 48 51 48 93c0 79 -67 126 -160 126h-49c-26 0 -39 11 -39 34s13 34 39 34z" />
    <glyph glyph-name="agrave" unicode="&#xe0;" horiz-adv-x="530" 
d="M145 381c-19 -17 -36 -19 -51 -6s-16 32 1 52c40 43 106 75 169 75c117 0 187 -68 187 -192v-274c0 -54 -72 -54 -72 0v19c-33 -37 -92 -66 -157 -66c-92 0 -160 55 -160 144c0 87 73 142 181 154l134 16v15c0 75 -43 115 -114 115c-41 0 -80 -17 -118 -52zM136 131
c0 -45 35 -76 90 -76c61 0 122 34 151 78v101l-130 -16c-74 -9 -111 -38 -111 -87zM234 697l103 -72c19 -14 24 -29 15 -45c-11 -18 -27 -21 -47 -8l-108 64c-23 15 -28 32 -17 52c14 21 32 24 54 9z" />
    <glyph glyph-name="aacute" unicode="&#xe1;" horiz-adv-x="530" 
d="M145 381c-19 -17 -36 -19 -51 -6s-16 32 1 52c40 43 106 75 169 75c117 0 187 -68 187 -192v-274c0 -54 -72 -54 -72 0v19c-33 -37 -92 -66 -157 -66c-92 0 -160 55 -160 144c0 87 73 142 181 154l134 16v15c0 75 -43 115 -114 115c-41 0 -80 -17 -118 -52zM136 131
c0 -45 35 -76 90 -76c61 0 122 34 151 78v101l-130 -16c-74 -9 -111 -38 -111 -87zM194 625l103 72c22 15 40 12 54 -9c11 -20 6 -37 -17 -52l-108 -64c-20 -13 -36 -10 -47 8c-9 16 -4 31 15 45z" />
    <glyph glyph-name="acircumflex" unicode="&#xe2;" horiz-adv-x="530" 
d="M145 381c-19 -17 -36 -19 -51 -6s-16 32 1 52c40 43 106 75 169 75c117 0 187 -68 187 -192v-274c0 -54 -72 -54 -72 0v19c-33 -37 -92 -66 -157 -66c-92 0 -160 55 -160 144c0 87 73 142 181 154l134 16v15c0 75 -43 115 -114 115c-41 0 -80 -17 -118 -52zM136 131
c0 -45 35 -76 90 -76c61 0 122 34 151 78v101l-130 -16c-74 -9 -111 -38 -111 -87zM289 697l93 -72c19 -15 24 -30 15 -45c-12 -19 -28 -21 -47 -8l-85 56l-85 -56c-19 -13 -35 -11 -47 8c-9 15 -4 30 15 45l93 72c15 11 33 11 48 0z" />
    <glyph glyph-name="atilde" unicode="&#xe3;" horiz-adv-x="530" 
d="M145 381c-19 -17 -36 -19 -51 -6s-16 32 1 52c40 43 106 75 169 75c117 0 187 -68 187 -192v-274c0 -54 -72 -54 -72 0v19c-33 -37 -92 -66 -157 -66c-92 0 -160 55 -160 144c0 87 73 142 181 154l134 16v15c0 75 -43 115 -114 115c-41 0 -80 -17 -118 -52zM136 131
c0 -45 35 -76 90 -76c61 0 122 34 151 78v101l-130 -16c-74 -9 -111 -38 -111 -87zM246 692l30 -13c11 -6 30 -15 42 -15c14 0 17 9 21 18l2 4c6 13 16 20 29 20c20 0 30 -10 30 -31c0 -44 -30 -77 -74 -77c-11 0 -25 3 -42 10l-30 13c-11 6 -30 15 -42 15
c-14 0 -17 -9 -21 -18l-2 -4c-6 -13 -16 -20 -29 -20c-20 0 -30 10 -30 31c0 44 30 77 74 77c11 0 25 -3 42 -10z" />
    <glyph glyph-name="adieresis" unicode="&#xe4;" horiz-adv-x="530" 
d="M145 381c-19 -17 -36 -19 -51 -6s-16 32 1 52c40 43 106 75 169 75c117 0 187 -68 187 -192v-274c0 -54 -72 -54 -72 0v19c-33 -37 -92 -66 -157 -66c-92 0 -160 55 -160 144c0 87 73 142 181 154l134 16v15c0 75 -43 115 -114 115c-41 0 -80 -17 -118 -52zM136 131
c0 -45 35 -76 90 -76c61 0 122 34 151 78v101l-130 -16c-74 -9 -111 -38 -111 -87zM137 618c-19 20 -19 54 0 74c20 20 54 20 74 0s20 -54 0 -74c-20 -19 -54 -19 -74 0zM318 618c-19 20 -19 54 0 74c20 20 54 20 74 0s20 -54 0 -74c-20 -19 -54 -19 -74 0z" />
    <glyph glyph-name="aring" unicode="&#xe5;" horiz-adv-x="530" 
d="M145 381c-19 -17 -36 -19 -51 -6s-16 32 1 52c40 43 106 75 169 75c117 0 187 -68 187 -192v-274c0 -54 -72 -54 -72 0v19c-33 -37 -92 -66 -157 -66c-92 0 -160 55 -160 144c0 87 73 142 181 154l134 16v15c0 75 -43 115 -114 115c-41 0 -80 -17 -118 -52zM136 131
c0 -45 35 -76 90 -76c61 0 122 34 151 78v101l-130 -16c-74 -9 -111 -38 -111 -87zM188 635c0 45 34 77 75 77c45 0 79 -32 79 -77c0 -43 -34 -76 -79 -76c-41 0 -75 35 -75 76zM266 606c36 -4 36 62 0 57c-39 5 -39 -61 0 -57z" />
    <glyph glyph-name="ae" unicode="&#xe6;" horiz-adv-x="881" 
d="M819 268c0 -31 -17 -46 -51 -46h-315c7 -103 69 -164 165 -164c46 0 86 17 119 50c19 19 37 19 54 2c15 -17 13 -35 -5 -53c-47 -45 -103 -68 -168 -68c-84 0 -149 31 -195 94c-52 -63 -117 -94 -196 -94c-93 0 -165 56 -165 149c0 48 18 85 55 112s84 41 141 41h119v27
c0 73 -49 115 -121 115c-42 0 -79 -17 -111 -52c-17 -19 -34 -21 -51 -6s-16 33 1 52c43 50 97 75 162 75c78 0 134 -31 169 -92c44 61 102 92 174 92c153 0 219 -129 219 -234zM136 136c0 -49 39 -81 95 -81c60 0 115 34 146 78v89h-115c-80 0 -126 -35 -126 -86zM602 432
c-83 0 -133 -59 -146 -144h288c-7 87 -61 144 -142 144z" />
    <glyph glyph-name="ccedilla" unicode="&#xe7;" horiz-adv-x="555" 
d="M423 389c-34 29 -71 43 -112 43c-50 0 -91 -18 -124 -54c-33 -35 -49 -80 -49 -133c0 -109 67 -187 176 -187c46 0 86 17 119 50c19 19 37 19 54 2c15 -17 13 -35 -5 -53c-37 -36 -83 -58 -138 -65l-41 -104c-11 -26 -27 -35 -50 -28c-23 8 -32 24 -20 53l39 79
c-61 9 -111 37 -151 84c-39 48 -59 104 -59 169c0 71 24 131 72 181c49 51 108 76 177 76c66 0 120 -21 161 -62c18 -18 20 -36 5 -53c-15 -15 -33 -15 -54 2z" />
    <glyph glyph-name="egrave" unicode="&#xe8;" 
d="M295 432c-84 0 -142 -60 -154 -144h288c-1 87 -53 144 -134 144zM504 268c0 -31 -17 -46 -51 -46h-315c7 -103 69 -164 165 -164c46 0 86 17 119 50c19 19 37 19 54 2c15 -17 13 -35 -5 -53c-47 -45 -103 -68 -168 -68c-73 0 -132 23 -176 70c-43 47 -65 108 -65 183
c0 72 22 133 65 184c44 51 99 76 166 76c152 0 211 -124 211 -234zM252 697l103 -72c19 -14 24 -29 15 -45c-11 -18 -27 -21 -47 -8l-108 64c-23 15 -28 32 -17 52c14 21 32 24 54 9z" />
    <glyph glyph-name="eacute" unicode="&#xe9;" 
d="M295 432c-84 0 -142 -60 -154 -144h288c-1 87 -53 144 -134 144zM504 268c0 -31 -17 -46 -51 -46h-315c7 -103 69 -164 165 -164c46 0 86 17 119 50c19 19 37 19 54 2c15 -17 13 -35 -5 -53c-47 -45 -103 -68 -168 -68c-73 0 -132 23 -176 70c-43 47 -65 108 -65 183
c0 72 22 133 65 184c44 51 99 76 166 76c152 0 211 -124 211 -234zM212 625l103 72c22 15 40 12 54 -9c11 -20 6 -37 -17 -52l-108 -64c-20 -13 -36 -10 -47 8c-9 16 -4 31 15 45z" />
    <glyph glyph-name="ecircumflex" unicode="&#xea;" 
d="M295 432c-84 0 -142 -60 -154 -144h288c-1 87 -53 144 -134 144zM504 268c0 -31 -17 -46 -51 -46h-315c7 -103 69 -164 165 -164c46 0 86 17 119 50c19 19 37 19 54 2c15 -17 13 -35 -5 -53c-47 -45 -103 -68 -168 -68c-73 0 -132 23 -176 70c-43 47 -65 108 -65 183
c0 72 22 133 65 184c44 51 99 76 166 76c152 0 211 -124 211 -234zM307 697l93 -72c19 -15 24 -30 15 -45c-12 -19 -28 -21 -47 -8l-85 56l-85 -56c-19 -13 -35 -11 -47 8c-9 15 -4 30 15 45l93 72c15 11 33 11 48 0z" />
    <glyph glyph-name="edieresis" unicode="&#xeb;" 
d="M295 432c-84 0 -142 -60 -154 -144h288c-1 87 -53 144 -134 144zM504 268c0 -31 -17 -46 -51 -46h-315c7 -103 69 -164 165 -164c46 0 86 17 119 50c19 19 37 19 54 2c15 -17 13 -35 -5 -53c-47 -45 -103 -68 -168 -68c-73 0 -132 23 -176 70c-43 47 -65 108 -65 183
c0 72 22 133 65 184c44 51 99 76 166 76c152 0 211 -124 211 -234zM155 618c-19 20 -19 54 0 74c20 20 54 20 74 0s20 -54 0 -74c-20 -19 -54 -19 -74 0zM336 618c-19 20 -19 54 0 74c20 20 54 20 74 0s20 -54 0 -74c-20 -19 -54 -19 -74 0z" />
    <glyph glyph-name="igrave" unicode="&#xec;" horiz-adv-x="259" 
d="M115 697l103 -72c19 -14 24 -29 15 -45c-11 -18 -27 -21 -47 -8l-108 64c-23 15 -28 32 -17 52c14 21 32 24 54 9zM183 454v-417c0 -28 -12 -42 -37 -42s-37 14 -37 42v417c0 27 16 41 37 41c25 0 37 -14 37 -41z" />
    <glyph glyph-name="iacute" unicode="&#xed;" horiz-adv-x="259" 
d="M72 625l103 72c22 15 40 12 54 -9c11 -20 6 -37 -17 -52l-108 -64c-20 -13 -36 -10 -47 8c-9 16 -4 31 15 45zM180 454v-417c0 -28 -12 -42 -37 -42s-37 14 -37 42v417c0 27 16 41 37 41c25 0 37 -14 37 -41z" />
    <glyph glyph-name="icircumflex" unicode="&#xee;" horiz-adv-x="259" 
d="M167 697l93 -72c19 -15 24 -30 15 -45c-12 -19 -28 -21 -47 -8l-85 56l-85 -56c-19 -13 -35 -11 -47 8c-9 15 -4 30 15 45l93 72c15 11 33 11 48 0zM179 454v-417c0 -28 -12 -42 -37 -42s-37 14 -37 42v417c0 27 16 41 37 41c25 0 37 -14 37 -41z" />
    <glyph glyph-name="idieresis" unicode="&#xef;" horiz-adv-x="259" 
d="M2 618c-19 20 -19 54 0 74c20 20 54 20 74 0s20 -54 0 -74c-20 -19 -54 -19 -74 0zM183 618c-19 20 -19 54 0 74c20 20 54 20 74 0s20 -54 0 -74c-20 -19 -54 -19 -74 0zM166 454v-417c0 -28 -12 -42 -37 -42s-37 14 -37 42v417c0 27 16 41 37 41c25 0 37 -14 37 -41z
" />
    <glyph glyph-name="eth" unicode="&#xf0;" horiz-adv-x="603" 
d="M316 60c46 0 85 15 117 44c33 30 49 69 49 117s-16 87 -48 116c-32 30 -71 45 -118 45s-86 -15 -118 -45c-32 -29 -48 -68 -48 -116s16 -87 48 -117c32 -29 71 -44 118 -44zM201 585l65 36l-20 28c-15 24 -8 43 11 52c19 11 36 5 51 -17l20 -29l65 36c19 11 34 8 45 -9
c10 -18 5 -33 -16 -44l-59 -32l112 -161c56 -81 84 -153 84 -217c0 -69 -23 -127 -68 -172s-104 -67 -175 -67c-68 0 -126 21 -173 63s-70 99 -70 170c0 69 23 125 70 168s103 64 168 64c31 0 60 -6 86 -17l-96 135l-71 -40c-19 -11 -34 -8 -45 9c-10 18 -5 33 16 44z" />
    <glyph glyph-name="ntilde" unicode="&#xf1;" horiz-adv-x="586" 
d="M274 692l30 -13c11 -6 30 -15 42 -15c14 0 17 9 21 18l2 4c6 13 16 20 29 20c20 0 30 -10 30 -31c0 -44 -30 -77 -74 -77c-11 0 -25 3 -42 10l-30 13c-11 6 -30 15 -42 15c-14 0 -17 -9 -21 -18l-2 -4c-6 -13 -16 -20 -29 -20c-20 0 -30 10 -30 31c0 44 30 77 74 77
c11 0 25 -3 42 -10zM85 37v417c0 27 16 41 36 41c24 0 36 -14 36 -41v-24c33 43 94 72 155 72c125 0 195 -78 195 -217v-248c0 -28 -17 -42 -38 -42c-25 0 -37 14 -37 42v254c0 91 -46 142 -125 142c-96 0 -148 -73 -148 -190v-206c0 -28 -12 -42 -37 -42s-37 14 -37 42z
" />
    <glyph glyph-name="ograve" unicode="&#xf2;" horiz-adv-x="618" 
d="M308 -11c-70 0 -129 25 -176 74c-47 50 -70 111 -70 182s23 132 70 182s106 75 176 75s129 -25 176 -75c48 -50 72 -111 72 -182s-24 -132 -71 -182c-47 -49 -106 -74 -177 -74zM308 58c50 0 91 18 123 53c32 36 48 81 48 134s-16 98 -48 133c-32 36 -73 54 -123 54
c-49 0 -90 -18 -122 -54c-32 -35 -48 -80 -48 -133s16 -98 48 -134c32 -35 73 -53 122 -53zM277 697l103 -72c19 -14 24 -29 15 -45c-11 -18 -27 -21 -47 -8l-108 64c-23 15 -28 32 -17 52c14 21 32 24 54 9z" />
    <glyph glyph-name="oacute" unicode="&#xf3;" horiz-adv-x="618" 
d="M308 -11c-70 0 -129 25 -176 74c-47 50 -70 111 -70 182s23 132 70 182s106 75 176 75s129 -25 176 -75c48 -50 72 -111 72 -182s-24 -132 -71 -182c-47 -49 -106 -74 -177 -74zM308 58c50 0 91 18 123 53c32 36 48 81 48 134s-16 98 -48 133c-32 36 -73 54 -123 54
c-49 0 -90 -18 -122 -54c-32 -35 -48 -80 -48 -133s16 -98 48 -134c32 -35 73 -53 122 -53zM237 625l103 72c22 15 40 12 54 -9c11 -20 6 -37 -17 -52l-108 -64c-20 -13 -36 -10 -47 8c-9 16 -4 31 15 45z" />
    <glyph glyph-name="ocircumflex" unicode="&#xf4;" horiz-adv-x="618" 
d="M308 -11c-70 0 -129 25 -176 74c-47 50 -70 111 -70 182s23 132 70 182s106 75 176 75s129 -25 176 -75c48 -50 72 -111 72 -182s-24 -132 -71 -182c-47 -49 -106 -74 -177 -74zM308 58c50 0 91 18 123 53c32 36 48 81 48 134s-16 98 -48 133c-32 36 -73 54 -123 54
c-49 0 -90 -18 -122 -54c-32 -35 -48 -80 -48 -133s16 -98 48 -134c32 -35 73 -53 122 -53zM333 697l93 -72c19 -15 24 -30 15 -45c-12 -19 -28 -21 -47 -8l-85 56l-85 -56c-19 -13 -35 -11 -47 8c-9 15 -4 30 15 45l93 72c15 11 33 11 48 0z" />
    <glyph glyph-name="otilde" unicode="&#xf5;" horiz-adv-x="618" 
d="M290 692l30 -13c11 -6 30 -15 42 -15c14 0 17 9 21 18l2 4c6 13 16 20 29 20c20 0 30 -10 30 -31c0 -44 -30 -77 -74 -77c-11 0 -25 3 -42 10l-30 13c-11 6 -30 15 -42 15c-14 0 -17 -9 -21 -18l-2 -4c-6 -13 -16 -20 -29 -20c-20 0 -30 10 -30 31c0 44 30 77 74 77
c11 0 25 -3 42 -10zM308 -11c-70 0 -129 25 -176 74c-47 50 -70 111 -70 182s23 132 70 182s106 75 176 75s129 -25 176 -75c48 -50 72 -111 72 -182s-24 -132 -71 -182c-47 -49 -106 -74 -177 -74zM308 58c50 0 91 18 123 53c32 36 48 81 48 134s-16 98 -48 133
c-32 36 -73 54 -123 54c-49 0 -90 -18 -122 -54c-32 -35 -48 -80 -48 -133s16 -98 48 -134c32 -35 73 -53 122 -53z" />
    <glyph glyph-name="odieresis" unicode="&#xf6;" horiz-adv-x="618" 
d="M308 -11c-70 0 -129 25 -176 74c-47 50 -70 111 -70 182s23 132 70 182s106 75 176 75s129 -25 176 -75c48 -50 72 -111 72 -182s-24 -132 -71 -182c-47 -49 -106 -74 -177 -74zM308 58c50 0 91 18 123 53c32 36 48 81 48 134s-16 98 -48 133c-32 36 -73 54 -123 54
c-49 0 -90 -18 -122 -54c-32 -35 -48 -80 -48 -133s16 -98 48 -134c32 -35 73 -53 122 -53zM181 618c-19 20 -19 54 0 74c20 20 54 20 74 0s20 -54 0 -74c-20 -19 -54 -19 -74 0zM362 618c-19 20 -19 54 0 74c20 20 54 20 74 0s20 -54 0 -74c-20 -19 -54 -19 -74 0z" />
    <glyph glyph-name="divide" unicode="&#xf7;" horiz-adv-x="660" 
d="M331 108c35 0 61 -25 61 -60c0 -33 -26 -59 -61 -59c-33 0 -59 26 -59 59s26 60 59 60zM331 501c35 0 61 -25 61 -60c0 -33 -26 -59 -61 -59c-33 0 -59 26 -59 59s26 60 59 60zM113 284h434c25 0 38 -11 38 -34s-13 -35 -38 -35h-434c-25 0 -38 12 -38 35s13 34 38 34z
" />
    <glyph glyph-name="oslash" unicode="&#xf8;" horiz-adv-x="618" 
d="M62 245c0 71 23 132 70 182s106 75 176 75c41 0 79 -10 116 -29l11 16c15 22 32 26 52 13c19 -13 20 -31 5 -53l-12 -17c51 -51 76 -113 76 -187c0 -71 -24 -132 -71 -182c-47 -49 -106 -74 -177 -74c-43 0 -82 10 -118 30l-6 -9c-16 -21 -33 -26 -51 -14
c-19 14 -21 32 -6 53l8 12c-49 49 -73 110 -73 184zM479 245c0 50 -14 92 -42 126l-207 -295c23 -12 49 -18 78 -18c50 0 91 18 123 53c32 36 48 81 48 134zM138 245c0 -49 13 -91 39 -124l206 294c-23 11 -48 17 -75 17c-49 0 -90 -18 -122 -54c-32 -35 -48 -80 -48 -133z
" />
    <glyph glyph-name="ugrave" unicode="&#xf9;" horiz-adv-x="565" 
d="M480 453v-417c0 -27 -15 -41 -36 -41c-23 0 -35 14 -35 41v25c-38 -48 -89 -72 -152 -72c-124 0 -187 77 -187 217v247c0 28 12 42 37 42s37 -14 37 -42v-253c0 -92 44 -141 123 -141c93 0 139 63 139 189v205c0 28 12 42 37 42s37 -14 37 -42zM251 697l103 -72
c19 -14 24 -29 15 -45c-11 -18 -27 -21 -47 -8l-108 64c-23 15 -28 32 -17 52c14 21 32 24 54 9z" />
    <glyph glyph-name="uacute" unicode="&#xfa;" horiz-adv-x="565" 
d="M480 453v-417c0 -27 -15 -41 -36 -41c-23 0 -35 14 -35 41v25c-38 -48 -89 -72 -152 -72c-124 0 -187 77 -187 217v247c0 28 12 42 37 42s37 -14 37 -42v-253c0 -92 44 -141 123 -141c93 0 139 63 139 189v205c0 28 12 42 37 42s37 -14 37 -42zM211 625l103 72
c22 15 40 12 54 -9c11 -20 6 -37 -17 -52l-108 -64c-20 -13 -36 -10 -47 8c-9 16 -4 31 15 45z" />
    <glyph glyph-name="ucircumflex" unicode="&#xfb;" horiz-adv-x="565" 
d="M480 453v-417c0 -27 -15 -41 -36 -41c-23 0 -35 14 -35 41v25c-38 -48 -89 -72 -152 -72c-124 0 -187 77 -187 217v247c0 28 12 42 37 42s37 -14 37 -42v-253c0 -92 44 -141 123 -141c93 0 139 63 139 189v205c0 28 12 42 37 42s37 -14 37 -42zM307 697l93 -72
c19 -15 24 -30 15 -45c-12 -19 -28 -21 -47 -8l-85 56l-85 -56c-19 -13 -35 -11 -47 8c-9 15 -4 30 15 45l93 72c15 11 33 11 48 0z" />
    <glyph glyph-name="udieresis" unicode="&#xfc;" horiz-adv-x="565" 
d="M480 453v-417c0 -27 -15 -41 -36 -41c-23 0 -35 14 -35 41v25c-38 -48 -89 -72 -152 -72c-124 0 -187 77 -187 217v247c0 28 12 42 37 42s37 -14 37 -42v-253c0 -92 44 -141 123 -141c93 0 139 63 139 189v205c0 28 12 42 37 42s37 -14 37 -42zM154 618
c-19 20 -19 54 0 74c20 20 54 20 74 0s20 -54 0 -74c-20 -19 -54 -19 -74 0zM335 618c-19 20 -19 54 0 74c20 20 54 20 74 0s20 -54 0 -74c-20 -19 -54 -19 -74 0z" />
    <glyph glyph-name="yacute" unicode="&#xfd;" horiz-adv-x="550" 
d="M196 -145l55 139l-183 447c-10 25 -3 43 22 52c24 7 41 -2 51 -28l151 -382l148 382c10 26 27 35 51 28c24 -9 31 -26 21 -52l-244 -610c-10 -26 -27 -35 -51 -28c-24 9 -31 26 -21 52zM219 625l103 72c22 15 40 12 54 -9c11 -20 6 -37 -17 -52l-108 -64
c-20 -13 -36 -10 -47 8c-9 16 -4 31 15 45z" />
    <glyph glyph-name="thorn" unicode="&#xfe;" horiz-adv-x="614" 
d="M433 112c29 35 43 80 43 134s-14 99 -43 134s-67 53 -116 53s-88 -18 -117 -53s-43 -80 -43 -134s14 -99 43 -134s68 -53 117 -53s87 18 116 53zM85 -157v821c0 54 74 54 74 0v-239c44 51 99 77 165 77c67 0 121 -25 164 -74s64 -110 64 -182s-21 -133 -64 -183
c-43 -49 -97 -74 -164 -74c-66 0 -121 26 -165 77v-223c0 -28 -12 -42 -37 -42s-37 14 -37 42z" />
    <glyph glyph-name="ydieresis" unicode="&#xff;" horiz-adv-x="550" 
d="M251 -6l-183 447c-10 25 -3 43 22 52c24 7 41 -2 51 -28l151 -382l148 382c10 26 27 35 51 28c24 -9 31 -26 21 -52l-244 -610c-10 -26 -27 -35 -51 -28c-24 9 -31 26 -21 52zM162 618c-19 20 -19 54 0 74c20 20 54 20 74 0s20 -54 0 -74c-20 -19 -54 -19 -74 0zM343 618
c-19 20 -19 54 0 74c20 20 54 20 74 0s20 -54 0 -74c-20 -19 -54 -19 -74 0z" />
    <glyph glyph-name="dotlessi" unicode="&#x131;" horiz-adv-x="259" 
d="M166 454v-417c0 -28 -12 -42 -37 -42s-37 14 -37 42v417c0 27 16 41 37 41c25 0 37 -14 37 -41z" />
    <glyph glyph-name="Lslash" unicode="&#x141;" horiz-adv-x="587" 
d="M210 662v-253l71 21c26 7 43 -1 50 -24c6 -23 -4 -38 -30 -45l-91 -26v-263h309c28 0 42 -16 42 -36c0 -24 -14 -36 -42 -36h-340c-25 0 -45 21 -45 46v267l-48 -14c-26 -7 -43 1 -50 24c-6 23 4 38 30 45l68 19v275c0 29 13 43 38 43s38 -14 38 -43z" />
    <glyph glyph-name="lslash" unicode="&#x142;" horiz-adv-x="361" 
d="M219 664v-253l60 17c28 8 45 1 52 -20c5 -20 -5 -39 -33 -47l-79 -23v-301c0 -28 -12 -42 -37 -42s-37 14 -37 42v280l-58 -17c-27 -8 -44 -1 -51 21c-5 20 4 38 32 46l77 22v275c0 27 16 41 37 41c25 0 37 -14 37 -41z" />
    <glyph glyph-name="OE" unicode="&#x152;" horiz-adv-x="924" 
d="M818 0h-392c-107 0 -196 32 -266 97c-69 65 -104 149 -104 254c0 104 35 188 104 252c70 65 159 97 266 97h392c28 0 42 -12 42 -36c0 -20 -14 -36 -42 -36h-294v-235h283c28 0 42 -12 42 -36c0 -20 -14 -36 -42 -36h-283v-249h294c28 0 42 -12 42 -36
c0 -20 -14 -36 -42 -36zM133 351c0 -87 27 -155 80 -205c53 -49 124 -74 213 -74h22v556h-22c-85 0 -155 -25 -210 -75s-83 -117 -83 -202z" />
    <glyph glyph-name="oe" unicode="&#x153;" horiz-adv-x="984" 
d="M479 245c0 55 -16 99 -49 134c-32 35 -73 53 -122 53s-90 -18 -122 -54c-32 -35 -48 -80 -48 -133s16 -98 48 -134c32 -35 73 -53 122 -53s90 18 122 53c33 35 49 80 49 134zM704 432c-83 0 -133 -59 -146 -144h288c-5 87 -61 144 -142 144zM870 222h-314
c5 -101 68 -164 164 -164c46 0 86 17 119 50c19 19 37 19 54 2c15 -17 13 -35 -5 -53c-47 -45 -103 -68 -168 -68c-97 0 -166 39 -207 117c-44 -73 -118 -117 -205 -117c-70 0 -129 25 -176 74c-47 50 -70 111 -70 182s23 132 70 182s106 75 176 75c87 0 161 -44 205 -119
c40 79 103 119 190 119c157 0 218 -135 218 -234c0 -31 -17 -46 -51 -46z" />
    <glyph glyph-name="Scaron" unicode="&#x160;" horiz-adv-x="648" 
d="M512 575c-45 44 -102 66 -171 66c-92 0 -160 -49 -160 -120c0 -66 50 -107 149 -123l69 -12c136 -24 213 -91 213 -200c0 -57 -23 -104 -70 -141s-109 -56 -186 -56c-109 0 -196 46 -248 102c-19 21 -20 40 -1 57s38 15 57 -6c49 -55 116 -82 201 -82
c99 0 171 46 171 125c0 67 -49 109 -147 126l-86 15c-57 10 -105 31 -142 63s-56 75 -56 129c0 59 24 106 72 141s105 53 170 53c91 0 165 -29 221 -86c19 -21 20 -40 1 -57c-17 -15 -36 -13 -57 6zM326 777l-93 72c-19 15 -24 30 -15 45c12 19 28 21 47 8l85 -56l85 56
c19 13 35 11 47 -8c9 -15 4 -30 -15 -45l-93 -72c-15 -11 -33 -11 -48 0z" />
    <glyph glyph-name="scaron" unicode="&#x161;" horiz-adv-x="494" 
d="M360 395c-30 25 -64 38 -103 38c-53 0 -90 -28 -90 -69c0 -37 24 -61 73 -72l77 -18c93 -22 139 -68 139 -138c0 -87 -72 -147 -183 -147c-74 0 -133 23 -178 69c-17 19 -18 36 -2 52c17 17 35 16 52 -1c36 -35 78 -52 127 -52c69 0 110 28 110 75c0 35 -26 59 -77 71
l-73 17c-93 22 -139 69 -139 141c0 44 17 78 50 103s73 38 119 38c59 0 109 -19 149 -56c20 -19 22 -37 5 -55c-15 -16 -33 -15 -56 4zM247 572l-93 72c-19 15 -24 30 -15 45c12 19 28 21 47 8l85 -56l85 56c19 13 35 11 47 -8c9 -15 4 -30 -15 -45l-93 -72
c-15 -11 -33 -11 -48 0z" />
    <glyph glyph-name="Ydieresis" unicode="&#x178;" horiz-adv-x="588" 
d="M552 645l-199 -362v-245c0 -29 -13 -43 -38 -43s-38 14 -38 43v245l-198 362c-14 25 -10 43 13 55c22 12 40 5 53 -20l171 -322l170 322c13 25 31 32 53 20c23 -12 27 -30 13 -55zM187 823c-19 20 -19 54 0 74c20 20 54 20 74 0s20 -54 0 -74c-20 -19 -54 -19 -74 0z
M368 823c-19 20 -19 54 0 74c20 20 54 20 74 0s20 -54 0 -74c-20 -19 -54 -19 -74 0z" />
    <glyph glyph-name="Zcaron" unicode="&#x17d;" horiz-adv-x="631" 
d="M529 0h-418c-28 0 -48 17 -48 42c0 12 3 22 9 31l397 555h-367c-28 0 -42 16 -42 36c0 24 14 36 42 36h419c28 0 48 -17 48 -42c0 -12 -3 -22 -9 -31l-398 -555h367c28 0 42 -16 42 -36c0 -24 -14 -36 -42 -36zM291 777l-93 72c-19 15 -24 30 -15 45c12 19 28 21 47 8
l85 -56l85 56c19 13 35 11 47 -8c9 -15 4 -30 -15 -45l-93 -72c-15 -11 -33 -11 -48 0z" />
    <glyph glyph-name="zcaron" unicode="&#x17e;" horiz-adv-x="514" 
d="M73 70l266 352h-231c-26 0 -39 11 -39 34s13 34 39 34h290c24 0 42 -18 42 -42c0 -11 -3 -20 -10 -28l-269 -352h256c26 0 39 -11 39 -34s-13 -34 -39 -34h-312c-24 0 -42 18 -42 42c0 11 3 20 10 28zM233 572l-93 72c-19 15 -24 30 -15 45c12 19 28 21 47 8l85 -56
l85 56c19 13 35 11 47 -8c9 -15 4 -30 -15 -45l-93 -72c-15 -11 -33 -11 -48 0z" />
    <glyph glyph-name="florin" unicode="&#x192;" horiz-adv-x="375" 
d="M296 422h-92v-443c0 -121 -59 -174 -172 -174c-26 0 -39 11 -39 34s13 34 38 34c73 0 99 33 99 106v443h-57c-26 0 -39 11 -39 34s13 34 39 34h57v37c0 121 59 174 172 174c26 0 39 -11 39 -34s-13 -34 -38 -34c-73 0 -99 -33 -99 -106v-37h92c26 0 39 -11 39 -34
s-13 -34 -39 -34z" />
    <glyph glyph-name="circumflex" unicode="&#x2c6;" 
d="M320 697l93 -72c19 -15 24 -30 15 -45c-12 -19 -28 -21 -47 -8l-85 56l-85 -56c-19 -13 -35 -11 -47 8c-9 15 -4 30 15 45l93 72c15 11 33 11 48 0z" />
    <glyph glyph-name="caron" unicode="&#x2c7;" horiz-adv-x="494" 
d="M228 572l-93 72c-19 15 -24 30 -15 45c12 19 28 21 47 8l85 -56l85 56c19 13 35 11 47 -8c9 -15 4 -30 -15 -45l-93 -72c-15 -11 -33 -11 -48 0z" />
    <glyph glyph-name="breve" unicode="&#x2d8;" 
d="M150 669c0 23 13 37 33 37c16 0 27 -10 34 -30c10 -33 33 -49 68 -49s58 16 68 49c7 20 18 30 34 30c20 0 33 -14 33 -37c0 -27 -13 -53 -38 -76s-58 -34 -97 -34s-72 11 -97 34s-38 49 -38 76z" />
    <glyph glyph-name="dotaccent" unicode="&#x2d9;" horiz-adv-x="259" 
d="M73 642v13c0 3 1 7 2 11c1 5 3 9 4 11l3 5c7 11 17 18 31 23c2 0 3 0 4 1c3 0 9 1 12 1h4c1 0 4 -1 5 -1h2c1 -1 3 -1 4 -1l5 -2c5 -1 8 -3 11 -6c6 -4 11 -9 15 -15l4 -5l2 -6c1 -4 3 -9 4 -16v-9l-1 -2v-2v-3l-3 -8l-2 -6l-6 -9c-3 -4 -6 -7 -9 -9l-4 -3l-5 -3
c-7 -4 -15 -6 -22 -6h-13c-11 2 -19 6 -26 12c-4 2 -7 5 -9 9l-3 3l-3 6c-1 1 -2 5 -4 10c-1 1 -1 3 -1 4v1z" />
    <glyph glyph-name="ring" unicode="&#x2da;" horiz-adv-x="530" 
d="M185 635c0 45 34 77 75 77c45 0 79 -32 79 -77c0 -43 -34 -76 -79 -76c-41 0 -75 35 -75 76zM263 606c36 -4 36 62 0 57c-39 5 -39 -61 0 -57z" />
    <glyph glyph-name="ogonek" unicode="&#x2db;" horiz-adv-x="530" 
d="M402 46c5 3 10 5 17 5c15 0 28 -13 28 -28c0 -9 -3 -16 -10 -21c-41 -33 -61 -64 -61 -94c0 -28 14 -48 45 -48c20 0 35 -12 35 -31c0 -23 -15 -34 -46 -34c-59 0 -98 46 -98 107c0 53 38 107 90 144z" />
    <glyph glyph-name="tilde" unicode="&#x2dc;" horiz-adv-x="586" 
d="M266 692l30 -13c11 -6 30 -15 42 -15c14 0 17 9 21 18l2 4c6 13 16 20 29 20c20 0 30 -10 30 -31c0 -44 -30 -77 -74 -77c-11 0 -25 3 -42 10l-30 13c-11 6 -30 15 -42 15c-14 0 -17 -9 -21 -18l-2 -4c-6 -13 -16 -20 -29 -20c-20 0 -30 10 -30 31c0 44 30 77 74 77
c11 0 25 -3 42 -10z" />
    <glyph glyph-name="hungarumlaut" unicode="&#x2dd;" 
d="M198 625l46 68c15 21 39 23 54 10c16 -12 19 -32 2 -55l-54 -62c-15 -20 -32 -23 -49 -10c-14 11 -14 28 1 49zM363 625l46 68c15 21 39 23 54 10c16 -12 19 -32 2 -55l-54 -62c-15 -20 -32 -23 -49 -10c-14 11 -14 28 1 49z" />
    <glyph glyph-name="pi" unicode="&#x3c0;" horiz-adv-x="652" 
d="M91 490h470c26 0 39 -11 39 -34s-13 -34 -39 -34h-51v-387c0 -27 -12 -40 -35 -40c-24 0 -36 13 -36 40v387h-226v-387c0 -27 -12 -40 -35 -40c-24 0 -36 13 -36 40v387h-51c-26 0 -39 11 -39 34s13 34 39 34z" />
    <glyph glyph-name="endash" unicode="&#x2013;" horiz-adv-x="586" 
d="M113 296h366c25 0 38 -11 38 -33c0 -23 -13 -35 -38 -35h-366c-25 0 -38 12 -38 35c0 22 13 33 38 33z" />
    <glyph glyph-name="emdash" unicode="&#x2014;" horiz-adv-x="865" 
d="M113 296h645c25 0 38 -11 38 -33c0 -23 -13 -35 -38 -35h-645c-25 0 -38 12 -38 35c0 22 13 33 38 33z" />
    <glyph glyph-name="quoteleft" unicode="&#x2018;" horiz-adv-x="272" 
d="M166 676l64 -157c11 -26 4 -44 -20 -54c-22 -9 -39 -1 -51 26l-72 157c-13 29 -6 48 23 59c25 9 44 -2 56 -31z" />
    <glyph glyph-name="quoteright" unicode="&#x2019;" horiz-adv-x="272" 
d="M81 519l64 157c12 29 31 40 56 31c29 -11 36 -30 23 -59l-72 -157c-12 -27 -29 -35 -51 -26c-24 10 -31 28 -20 54z" />
    <glyph glyph-name="quotesinglbase" unicode="&#x201a;" horiz-adv-x="278" 
d="M54 -66l64 157c12 29 31 40 56 31c29 -11 36 -30 23 -59l-72 -157c-12 -27 -29 -35 -51 -26c-24 10 -31 28 -20 54z" />
    <glyph glyph-name="quotedblleft" unicode="&#x201c;" horiz-adv-x="456" 
d="M354 676l64 -157c11 -26 4 -44 -20 -54c-22 -9 -39 -1 -51 26l-72 157c-13 29 -6 48 23 59c25 9 44 -2 56 -31zM169 676l64 -157c11 -26 4 -44 -20 -54c-22 -9 -39 -1 -51 26l-72 157c-13 29 -6 48 23 59c25 9 44 -2 56 -31z" />
    <glyph glyph-name="quotedblright" unicode="&#x201d;" horiz-adv-x="456" 
d="M81 519l64 157c12 29 31 40 56 31c29 -11 36 -30 23 -59l-72 -157c-12 -27 -29 -35 -51 -26c-24 10 -31 28 -20 54zM266 519l64 157c12 29 31 40 56 31c29 -11 36 -30 23 -59l-72 -157c-12 -27 -29 -35 -51 -26c-24 10 -31 28 -20 54z" />
    <glyph glyph-name="quotedblbase" unicode="&#x201e;" horiz-adv-x="460" 
d="M69 -66l64 157c12 29 31 40 56 31c29 -11 36 -30 23 -59l-72 -157c-12 -27 -29 -35 -51 -26c-24 10 -31 28 -20 54zM250 -66l64 157c12 29 31 40 56 31c29 -11 36 -30 23 -59l-72 -157c-12 -27 -29 -35 -51 -26c-24 10 -31 28 -20 54z" />
    <glyph glyph-name="dagger" unicode="&#x2020;" horiz-adv-x="558" 
d="M81 490h160v173c0 29 13 43 38 43s38 -14 38 -43v-173h161c27 0 40 -12 40 -36s-13 -36 -40 -36h-161v-574c0 -29 -13 -43 -38 -43s-38 14 -38 43v574h-160c-27 0 -40 12 -40 36s13 36 40 36z" />
    <glyph glyph-name="daggerdbl" unicode="&#x2021;" horiz-adv-x="558" 
d="M81 490h160v173c0 29 13 43 38 43s38 -14 38 -43v-173h161c27 0 40 -12 40 -36s-13 -36 -40 -36h-161v-232h161c27 0 40 -12 40 -36s-13 -36 -40 -36h-161v-270c0 -29 -13 -43 -38 -43s-38 14 -38 43v270h-160c-27 0 -40 12 -40 36s13 36 40 36h160v232h-160
c-27 0 -40 12 -40 36s13 36 40 36z" />
    <glyph glyph-name="bullet" unicode="&#x2022;" horiz-adv-x="414" 
d="M73 262c0 37 13 69 39 95c27 26 58 39 95 39s68 -13 94 -39s39 -58 39 -95s-13 -69 -39 -95c-26 -25 -57 -38 -94 -38s-69 13 -95 39s-39 57 -39 94z" />
    <glyph glyph-name="ellipsis" unicode="&#x2026;" horiz-adv-x="779" 
d="M155 108c35 0 61 -25 61 -60c0 -33 -26 -59 -61 -59c-33 0 -59 26 -59 59s26 60 59 60zM411 108c35 0 61 -25 61 -60c0 -33 -26 -59 -61 -59c-33 0 -59 26 -59 59s26 60 59 60zM668 108c35 0 61 -25 61 -60c0 -33 -26 -59 -61 -59c-33 0 -59 26 -59 59s26 60 59 60z" />
    <glyph glyph-name="perthousand" unicode="&#x2030;" horiz-adv-x="1019" 
d="M191 712c35 0 65 -13 90 -38s37 -55 37 -90s-12 -66 -37 -91s-55 -37 -90 -37c-36 0 -67 12 -92 37s-37 56 -37 91s12 65 37 90s56 38 92 38zM191 519c32 0 61 26 61 65c0 61 -66 86 -105 47c-13 -12 -19 -28 -19 -47c0 -39 30 -65 63 -65zM387 116c0 36 12 66 37 91
s56 38 92 38c35 0 65 -13 90 -38s37 -55 37 -91c0 -35 -13 -65 -38 -90s-54 -37 -89 -37c-36 0 -67 12 -92 37s-37 55 -37 90zM516 51c32 0 61 26 61 65s-29 66 -61 66c-33 0 -63 -27 -63 -66s30 -65 63 -65zM700 116c0 36 12 66 37 91s56 38 92 38c35 0 65 -13 90 -38
s38 -55 38 -91c0 -35 -13 -65 -38 -90s-55 -37 -90 -37c-36 0 -67 12 -92 37s-37 55 -37 90zM767 116c0 -39 29 -65 62 -65s62 26 62 65s-29 66 -62 66s-62 -26 -62 -66zM574 648l-387 -632c-14 -22 -31 -28 -50 -17c-19 13 -22 30 -9 53l387 632c13 23 30 28 51 16
c19 -12 22 -29 8 -52z" />
    <glyph glyph-name="guilsinglleft" unicode="&#x2039;" horiz-adv-x="331" 
d="M166 16l-109 197c-13 23 -13 41 0 64l110 197c13 23 30 28 51 15c19 -12 23 -30 10 -53l-109 -191l108 -191c13 -23 9 -41 -10 -53c-21 -13 -38 -8 -51 15z" />
    <glyph glyph-name="guilsinglright" unicode="&#x203a;" horiz-adv-x="426" 
d="M378 213l-109 -197c-13 -23 -30 -28 -51 -15c-19 12 -23 30 -10 53l108 191l-109 191c-13 23 -9 41 10 53c21 13 38 8 51 -15l110 -197c13 -23 13 -41 0 -64z" />
    <glyph glyph-name="fraction" unicode="&#x2044;" horiz-adv-x="590" 
d="M539 648l-387 -632c-14 -22 -31 -28 -50 -17c-19 13 -22 30 -9 53l387 632c13 23 30 28 51 16c19 -12 22 -29 8 -52z" />
    <glyph glyph-name="Euro" unicode="&#x20ac;" horiz-adv-x="703" 
d="M419 -11c-145 0 -246 97 -279 250h-49c-26 0 -39 12 -39 36c0 22 13 33 39 33h39c-1 17 -2 31 -2 41c0 8 1 21 2 38h-39c-26 0 -39 12 -39 36c0 22 13 33 39 33h48c16 78 49 140 98 186c50 47 111 70 183 70c81 0 145 -29 193 -88c17 -21 16 -38 -1 -52s-35 -12 -52 7
c-39 41 -86 62 -140 62c-101 0 -176 -69 -203 -185h216c25 0 38 -11 38 -33c0 -24 -13 -36 -38 -36h-226c-1 -9 -1 -21 -1 -38c0 -10 1 -24 2 -41h225c25 0 38 -11 38 -33c0 -24 -13 -36 -38 -36h-215c27 -112 98 -179 201 -179c59 0 109 20 150 60c19 18 36 20 53 7
c16 -12 16 -34 -1 -54c-50 -56 -117 -84 -202 -84z" />
    <glyph glyph-name="trademark" unicode="&#x2122;" horiz-adv-x="857" 
d="M56 700h234c20 0 32 -12 32 -28c0 -19 -11 -29 -32 -29h-88v-310c0 -21 -13 -34 -30 -34c-19 0 -32 13 -32 34v310h-84c-22 0 -33 10 -33 29s11 28 33 28zM535 421l-82 155v-238c0 -26 -10 -39 -30 -39c-21 0 -32 13 -32 39v321c0 27 18 44 39 44c19 0 34 -11 45 -34
l107 -220l107 220c11 23 25 34 44 34c20 0 39 -17 39 -44v-321c0 -26 -10 -39 -30 -39c-21 0 -32 13 -32 39v238l-80 -154c-13 -25 -29 -38 -49 -38c-18 0 -33 12 -46 37z" />
    <glyph glyph-name="Omega" unicode="&#x2126;" horiz-adv-x="772" 
d="M290 192c19 -7 29 -22 29 -43v-103c0 -25 -20 -46 -45 -46h-123c-52 0 -52 68 0 68h96v74c-49 18 -90 51 -121 100s-47 105 -47 166c0 87 30 159 89 217c60 58 133 87 218 87c84 0 156 -29 216 -88c60 -58 90 -130 90 -216c0 -61 -16 -116 -47 -165s-71 -82 -119 -101
v-74h96c52 0 52 -68 0 -68h-123c-25 0 -45 21 -45 46v103c0 21 10 35 29 43c87 33 138 117 138 216c0 68 -23 124 -68 168s-101 66 -166 66s-121 -22 -167 -66c-45 -44 -68 -100 -68 -168c0 -104 55 -185 138 -216z" />
    <glyph glyph-name="arrownorthwest" unicode="&#x2196;" horiz-adv-x="679" 
d="M85 110v366c0 16 3 27 10 34s18 11 33 11h369c26 0 39 -12 39 -37c0 -23 -13 -35 -40 -35h-287l384 -383c18 -19 18 -37 1 -56c-17 -17 -35 -16 -54 3l-383 384v-286c0 -27 -12 -40 -35 -40c-25 0 -37 13 -37 39z" />
    <glyph glyph-name="arrownortheast" unicode="&#x2197;" horiz-adv-x="679" 
d="M620 476v-366c0 -26 -12 -39 -37 -39c-23 0 -35 13 -35 40v286l-383 -384c-19 -19 -37 -20 -54 -3c-17 19 -17 37 1 56l384 383h-287c-27 0 -40 12 -40 35c0 25 13 37 39 37h369c15 0 26 -4 33 -11s10 -18 10 -34z" />
    <glyph glyph-name="arrowsoutheast" unicode="&#x2198;" horiz-adv-x="679" 
d="M654 411v-366c0 -16 -3 -27 -10 -34s-18 -11 -33 -11h-369c-26 0 -39 12 -39 37c0 23 13 35 40 35h287l-384 383c-18 19 -18 37 -1 56c17 17 35 16 54 -3l383 -384v286c0 27 12 40 35 40c25 0 37 -13 37 -39z" />
    <glyph glyph-name="arrowsouthwest" unicode="&#x2199;" horiz-adv-x="679" 
d="M85 45v366c0 26 12 39 37 39c23 0 35 -13 35 -40v-286l384 384c19 19 37 20 54 3c17 -19 17 -37 -1 -56l-385 -383h287c27 0 40 -12 40 -35c0 -25 -13 -37 -39 -37h-369c-15 0 -26 4 -33 11s-10 18 -10 34z" />
    <glyph glyph-name="partialdiff" unicode="&#x2202;" horiz-adv-x="597" 
d="M285 382c-84 0 -148 -61 -148 -160c0 -52 14 -92 42 -120c29 -28 62 -42 101 -42c44 0 80 16 108 47c29 31 43 70 43 116c0 47 -14 86 -43 115c-28 29 -62 44 -103 44zM154 592c-19 -19 -41 -18 -56 -3c-17 17 -16 36 4 56c46 45 103 67 171 67c81 0 144 -32 191 -97
s71 -151 71 -258c0 -112 -22 -201 -67 -268c-44 -67 -105 -100 -183 -100c-60 0 -113 21 -158 63c-45 43 -67 99 -67 170c0 69 22 125 66 168c45 43 98 64 159 64c71 0 141 -37 178 -106c3 86 -13 156 -49 211s-83 82 -141 82c-47 0 -86 -16 -119 -49z" />
    <glyph glyph-name="increment" unicode="&#x2206;" horiz-adv-x="710" 
d="M369 602l-191 -533h381zM604 0h-471c-5 0 -10 1 -15 3c-23 8 -30 26 -21 53l219 607c10 28 28 42 53 42c24 0 41 -14 52 -43l219 -606c10 -27 3 -44 -21 -53c-5 -2 -10 -3 -15 -3z" />
    <glyph glyph-name="product" unicode="&#x220f;" horiz-adv-x="651" 
d="M90 -158v602c0 25 20 46 45 46h380c25 0 45 -21 45 -46v-602c0 -27 -12 -41 -35 -41c-24 0 -36 14 -36 41v580h-328v-580c0 -27 -12 -41 -35 -41c-24 0 -36 14 -36 41z" />
    <glyph glyph-name="summation" unicode="&#x2211;" horiz-adv-x="529" 
d="M345 221l-201 -345h296c26 0 39 -12 39 -36c0 -23 -13 -34 -39 -34h-355c-7 0 -14 2 -20 6c-17 11 -21 32 -8 57l222 384l-222 384c-13 25 -9 46 8 57c6 4 13 6 20 6h355c26 0 39 -11 39 -34c0 -24 -13 -36 -39 -36h-296l201 -345c13 -23 13 -41 0 -64z" />
    <glyph glyph-name="minus" unicode="&#x2212;" horiz-adv-x="660" 
d="M113 294h434c25 0 38 -11 38 -33c0 -23 -13 -35 -38 -35h-434c-25 0 -38 12 -38 35c0 22 13 33 38 33z" />
    <glyph glyph-name="radical" unicode="&#x221a;" horiz-adv-x="707" 
d="M304 38l-147 384h-78c-25 0 -38 12 -38 35c0 22 13 33 38 33h87c31 0 49 -12 61 -45l130 -352l215 582c9 27 26 36 51 27c23 -8 29 -26 20 -53l-232 -612c-11 -28 -29 -42 -54 -42s-42 14 -53 43z" />
    <glyph glyph-name="infinity" unicode="&#x221e;" horiz-adv-x="1155" 
d="M528 375l49 -67l48 66c63 85 136 128 217 128c65 0 121 -25 168 -76c47 -50 71 -110 71 -181c0 -70 -24 -130 -71 -181c-47 -50 -103 -75 -168 -75c-83 0 -155 42 -216 126l-49 67l-48 -66c-63 -85 -135 -127 -216 -127c-65 0 -122 25 -169 75c-47 51 -71 111 -71 181
s24 130 71 181s104 76 169 76c83 0 154 -42 215 -127zM313 431c-47 0 -86 -18 -119 -54c-32 -36 -48 -80 -48 -132s16 -96 48 -132c33 -36 72 -54 119 -54c68 0 108 36 161 107l57 79l-57 80c-52 69 -93 106 -161 106zM681 324l-58 -80l58 -79c49 -68 93 -106 161 -106
c46 0 85 18 117 54c33 36 49 80 49 132s-16 96 -49 132c-32 36 -71 54 -117 54c-68 0 -110 -38 -161 -107z" />
    <glyph glyph-name="integral" unicode="&#x222b;" horiz-adv-x="358" 
d="M216 527v-548c0 -121 -59 -174 -172 -174c-26 0 -39 11 -39 34s13 34 38 34c73 0 99 33 99 106v548c0 121 59 174 172 174c26 0 39 -11 39 -34s-13 -34 -38 -34c-73 0 -99 -33 -99 -106z" />
    <glyph glyph-name="approxequal" unicode="&#x2248;" horiz-adv-x="663" 
d="M252 227l158 -51c21 -7 38 -10 49 -10c25 0 46 20 50 45c3 17 14 26 31 26c22 0 33 -12 33 -37s-10 -49 -31 -71c-21 -21 -46 -32 -75 -32c-21 0 -42 3 -62 10l-158 52c-19 6 -36 9 -49 9c-25 0 -46 -20 -50 -45c-3 -17 -14 -26 -31 -26c-22 0 -33 12 -33 37s10 49 31 70
c21 22 46 33 75 33c21 0 42 -3 62 -10zM252 420l158 -51c21 -7 38 -10 49 -10c25 0 46 20 50 45c3 17 14 26 31 26c22 0 33 -12 33 -37s-10 -49 -31 -71c-21 -21 -46 -32 -75 -32c-21 0 -42 3 -62 10l-158 52c-19 6 -36 9 -49 9c-25 0 -46 -20 -50 -45
c-3 -17 -14 -26 -31 -26c-22 0 -33 12 -33 37s10 49 31 70c21 22 46 33 75 33c21 0 42 -3 62 -10z" />
    <glyph glyph-name="notequal" unicode="&#x2260;" horiz-adv-x="660" 
d="M113 377h257l59 96c13 23 30 28 51 16c19 -12 22 -29 8 -52l-37 -60h96c25 0 38 -11 38 -34s-13 -35 -38 -35h-139l-69 -113h208c25 0 38 -11 38 -34s-13 -35 -38 -35h-251l-67 -110c-14 -22 -31 -28 -50 -17c-19 13 -22 30 -9 53l45 74h-102c-25 0 -38 12 -38 35
s13 34 38 34h145l69 113h-214c-25 0 -38 12 -38 35s13 34 38 34z" />
    <glyph glyph-name="lessequal" unicode="&#x2264;" horiz-adv-x="615" 
d="M79 0h434c25 0 38 -11 38 -34s-13 -34 -38 -34h-434c-25 0 -38 11 -38 34s13 34 38 34zM44 290c0 23 10 38 29 45l427 153c25 9 42 2 50 -20c7 -23 -2 -40 -27 -49l-372 -128l372 -128c25 -9 34 -26 27 -49c-8 -22 -25 -29 -50 -20l-427 153c-19 7 -29 21 -29 43z" />
    <glyph glyph-name="greaterequal" unicode="&#x2265;" horiz-adv-x="615" 
d="M112 0h434c25 0 38 -11 38 -34s-13 -34 -38 -34h-434c-25 0 -38 11 -38 34s13 34 38 34zM581 290c0 -22 -10 -36 -29 -43l-427 -153c-25 -9 -42 -2 -50 20c-7 23 2 40 27 49l372 128l-372 128c-25 9 -34 26 -27 49c8 22 25 29 50 20l427 -153c19 -7 29 -22 29 -45z" />
    <glyph glyph-name="lozenge" unicode="&#x25ca;" horiz-adv-x="660" 
d="M570 213l-192 -392c-24 -48 -72 -48 -96 0l-192 392c-13 27 -13 37 0 64l192 392c24 48 72 48 96 0l192 -392c13 -27 13 -37 0 -64zM330 -120l180 365l-180 365l-180 -365z" />
    <glyph glyph-name="apple" unicode="&#xf8ff;" horiz-adv-x="883" 
d="M186 251h99c14 0 21 6 21 19c0 11 -9 19 -21 19h-76c5 13 17 24 37 34l19 10c33 18 52 30 55 65c0 32 -25 53 -64 53c-24 0 -45 -8 -63 -25c-11 -11 -12 -20 -3 -29c7 -9 17 -8 30 1c12 10 23 15 34 15c17 0 25 -6 25 -17c0 -9 -9 -18 -28 -28l-13 -7
c-46 -23 -71 -51 -75 -83c-3 -18 4 -27 23 -27zM476 368c0 -37 -14 -82 -46 -82c-20 0 -30 15 -30 44c0 40 13 83 45 83c21 0 31 -15 31 -45zM448 451c-59 -1 -90 -57 -90 -122c0 -48 27 -81 70 -81c59 0 90 57 90 121c0 48 -27 82 -70 82zM611 375l7 34h68c13 0 20 6 20 19
s-7 20 -20 20h-74c-19 0 -29 -8 -32 -24l-14 -74c-3 -17 3 -26 19 -26c6 0 13 3 20 9c8 8 17 12 28 12c17 0 29 -11 29 -26c0 -19 -17 -33 -38 -33c-11 0 -22 3 -32 10c-12 8 -22 7 -30 -2c-9 -10 -7 -20 4 -29c38 -36 143 -14 138 58c0 35 -28 59 -63 59
c-11 0 -21 -2 -30 -7zM185 94c-70 71 -105 156 -105 256s35 185 105 256c71 71 156 106 256 106s185 -35 256 -106s106 -156 106 -256s-35 -185 -106 -256c-71 -70 -156 -105 -256 -105s-185 35 -256 105z" />
    <glyph glyph-name="fi" unicode="&#xfb01;" horiz-adv-x="623" 
d="M204 527v-37h263c35 0 52 -19 52 -56v-397c0 -28 -12 -42 -37 -42s-37 14 -37 42v385h-241v-385c0 -28 -12 -42 -37 -42s-37 14 -37 42v385h-51c-26 0 -39 11 -39 34s13 34 39 34h51v37c0 121 59 174 172 174c26 0 39 -11 39 -34s-13 -34 -38 -34c-73 0 -99 -33 -99 -106
zM442 612c-21 23 -21 58 0 79c23 21 58 21 79 0c23 -21 23 -56 0 -79c-21 -21 -56 -21 -79 0z" />
    <glyph glyph-name="fl" unicode="&#xfb02;" horiz-adv-x="604" 
d="M302 700h170c31 0 47 -17 47 -51v-612c0 -28 -12 -42 -37 -42s-37 14 -37 42v596h-142c-73 0 -99 -33 -99 -106v-37h85c26 0 39 -11 39 -34s-13 -34 -39 -34h-85v-385c0 -28 -12 -42 -37 -42s-37 14 -37 42v385h-51c-26 0 -39 11 -39 34s13 34 39 34h51v37
c0 121 57 173 172 173z" />
    <glyph glyph-name="acutecap" horiz-adv-x="618" 
d="M271 820l103 72c22 15 40 12 54 -9c11 -20 6 -37 -17 -52l-108 -64c-20 -13 -36 -10 -47 8c-9 16 -4 31 15 45z" />
    <glyph glyph-name="caroncap" horiz-adv-x="618" 
d="M307 766l-93 72c-19 15 -24 30 -15 45c12 19 28 21 47 8l85 -56l85 56c19 13 35 11 47 -8c9 -15 4 -30 -15 -45l-93 -72c-15 -11 -33 -11 -48 0z" />
    <glyph glyph-name="ringcap" horiz-adv-x="700" 
d="M260 777c0 52 39 89 87 89c51 0 90 -37 90 -89c0 -48 -39 -87 -90 -87c-47 0 -87 40 -87 87zM315 777c0 -43 67 -43 67 0c0 44 -67 44 -67 0z" />
    <glyph glyph-name="gravecap" horiz-adv-x="618" 
d="M289 892l103 -72c19 -14 24 -29 15 -45c-11 -18 -27 -21 -47 -8l-108 64c-23 15 -28 32 -17 52c14 21 32 24 54 9z" />
    <glyph glyph-name="circumflexcap" horiz-adv-x="618" 
d="M355 891l93 -72c19 -15 24 -30 15 -45c-12 -19 -28 -21 -47 -8l-85 56l-85 -56c-19 -13 -35 -11 -47 8c-9 15 -4 30 15 45l93 72c15 11 33 11 48 0z" />
    <glyph glyph-name="zero.onum" horiz-adv-x="700" 
d="M73 274c0 81 26 149 79 203c53 55 118 82 195 82s143 -27 197 -82c55 -54 82 -122 82 -203s-27 -149 -82 -204c-54 -54 -120 -81 -197 -81s-142 27 -195 81s-79 122 -79 204zM347 487c-57 0 -104 -20 -141 -61c-37 -40 -56 -91 -56 -152s19 -112 56 -153s84 -61 141 -61
c55 0 103 21 143 62s60 92 60 152s-20 110 -60 151s-88 62 -143 62z" />
    <glyph glyph-name="one.onum" horiz-adv-x="520" 
d="M311 507v-435h127c54 0 54 -72 0 -72h-343c-55 0 -55 72 0 72h139v358c-33 -23 -77 -38 -130 -44c-27 -3 -42 7 -45 28c-3 20 9 37 36 41c67 9 115 35 143 79c7 12 18 18 33 18c23 0 40 -14 40 -45z" />
    <glyph glyph-name="two.onum" horiz-adv-x="570" 
d="M77 47c1 61 18 110 49 145c32 35 90 68 173 98l25 9c67 24 98 49 98 100c0 49 -40 88 -119 88c-63 0 -112 -27 -148 -80c-15 -22 -32 -27 -53 -14c-19 13 -21 31 -7 54c45 75 113 112 204 112c55 0 102 -14 141 -43s59 -68 59 -119c0 -80 -49 -129 -146 -165l-49 -18
c-96 -35 -142 -70 -146 -142h307c54 0 54 -72 0 -72h-343c-25 0 -45 22 -45 47z" />
    <glyph glyph-name="three.onum" horiz-adv-x="573" 
d="M98 -71c-21 19 -24 38 -7 56s35 18 56 -1c47 -41 86 -60 157 -60c84 0 145 43 145 127c0 81 -68 121 -167 121h-21c-28 0 -42 12 -42 36c0 25 14 37 42 37h10c100 0 160 43 160 126c0 37 -14 66 -41 86s-57 30 -90 30c-48 0 -92 -17 -132 -52c-21 -19 -39 -19 -56 -1
s-14 37 7 56c52 46 111 69 177 69c57 0 107 -17 148 -50c42 -33 63 -79 63 -139c0 -38 -11 -71 -32 -98s-44 -45 -67 -54c67 -27 117 -83 117 -166c0 -65 -21 -115 -64 -148c-42 -34 -96 -51 -162 -51c-78 0 -145 25 -201 76z" />
    <glyph glyph-name="four.onum" horiz-adv-x="621" 
d="M386 418l-239 -346h239v346zM65 70l315 462c9 13 22 20 38 20c29 0 44 -17 44 -50v-430h66c27 0 41 -12 41 -36s-14 -36 -41 -36h-66v-104c0 -29 -13 -43 -38 -43s-38 14 -38 43v104h-280c-33 0 -49 14 -49 43c0 11 3 20 8 27z" />
    <glyph glyph-name="five.onum" horiz-adv-x="602" 
d="M476 475h-274l-9 -220c27 31 82 53 143 53c62 0 115 -20 159 -60s66 -96 66 -167c0 -63 -23 -117 -68 -162s-105 -67 -180 -67c-73 0 -137 26 -191 79c-21 20 -24 39 -10 57c15 17 33 22 57 2c45 -45 94 -67 148 -67c47 0 87 15 119 44c33 29 49 67 49 114
c0 97 -67 155 -159 155c-51 0 -94 -21 -131 -64c-10 -12 -21 -18 -34 -18c-28 0 -42 15 -41 46l12 301c1 25 21 46 45 46h299c55 0 55 -72 0 -72z" />
    <glyph glyph-name="six.onum" horiz-adv-x="637" 
d="M189 217c0 -45 15 -83 44 -113c30 -29 67 -44 112 -44c76 0 138 60 138 156c0 45 -15 83 -44 114s-63 46 -104 46s-75 -15 -104 -44c-28 -29 -42 -68 -42 -115zM465 575c-33 33 -72 49 -119 49c-58 0 -105 -25 -141 -76c-35 -51 -51 -119 -48 -204c37 69 106 104 178 104
c61 0 113 -22 158 -67s67 -100 67 -165c0 -67 -22 -121 -66 -164c-44 -42 -95 -63 -154 -63c-79 0 -141 32 -187 97c-45 65 -68 154 -68 265c0 107 23 191 70 252s110 92 191 92c68 0 125 -22 171 -67c20 -20 21 -39 4 -56c-18 -17 -37 -16 -56 3z" />
    <glyph glyph-name="seven.onum" horiz-adv-x="567" 
d="M62 369v132c0 25 20 46 45 46h366c32 0 48 -18 48 -43c0 -10 -4 -20 -12 -30c-77 -91 -135 -181 -173 -271c-38 -89 -61 -192 -68 -308c-2 -28 -14 -42 -37 -42s-38 15 -37 43c13 218 90 411 229 579h-290v-106c0 -27 -12 -40 -36 -40c-23 0 -35 13 -35 40z" />
    <glyph glyph-name="eight.onum" horiz-adv-x="610" 
d="M73 181c0 39 13 75 38 106c26 31 52 50 79 57c-24 9 -47 27 -68 53c-21 27 -32 58 -32 95c0 57 21 103 64 136s94 50 151 50s107 -17 150 -50s64 -79 64 -136c0 -37 -11 -68 -32 -94s-44 -44 -67 -54c27 -7 53 -26 78 -57s38 -67 38 -106c0 -59 -23 -105 -68 -140
s-99 -52 -163 -52s-119 17 -164 52s-68 82 -68 140zM305 306c-89 0 -155 -45 -155 -124c0 -39 15 -69 45 -90c31 -21 67 -32 110 -32s79 11 109 32c31 21 46 51 46 90s-15 69 -45 91s-67 33 -110 33zM167 491c0 -72 59 -114 138 -114c77 0 138 42 138 114
c0 39 -14 68 -43 87s-60 28 -95 28s-66 -9 -95 -28s-43 -48 -43 -87z" />
    <glyph glyph-name="nine.onum" horiz-adv-x="637" 
d="M448 330c0 45 -15 83 -45 112c-29 30 -66 45 -111 45c-76 0 -138 -60 -138 -156c0 -45 14 -83 43 -114s64 -46 105 -46s75 15 103 44c29 29 43 68 43 115zM172 -28c33 -33 72 -49 119 -49c58 0 105 25 140 76c36 51 52 119 49 204c-37 -69 -106 -104 -178 -104
c-61 0 -113 22 -158 67s-67 100 -67 165c0 67 22 121 66 163c44 43 95 64 154 64c79 0 141 -33 186 -98c46 -65 69 -153 69 -264c0 -107 -23 -191 -70 -252s-110 -92 -191 -92c-68 0 -125 22 -171 67c-20 20 -21 39 -4 56c15 15 37 16 56 -3z" />
    <glyph glyph-name="arrowsouth" horiz-adv-x="726" 
d="M680 276l-259 -259c-21 -23 -41 -22 -62 -1l-261 260c-19 19 -19 37 -2 54c17 16 35 15 53 -4l203 -206v547c0 27 13 40 38 40c21 0 37 -13 37 -40v-546l202 205c18 19 36 20 53 4c17 -17 17 -35 -2 -54z" />
    <glyph glyph-name="a.ss01" horiz-adv-x="634" 
d="M70 245c0 71 22 132 66 182c45 50 100 75 165 75c71 0 128 -27 169 -81v33c0 27 16 41 37 41c25 0 37 -14 37 -41v-417c0 -28 -12 -42 -37 -42s-37 14 -37 42v32c-41 -53 -97 -80 -169 -80c-65 0 -120 25 -165 75c-44 50 -66 110 -66 181zM306 58c50 0 90 18 120 53
c31 35 46 80 46 134s-15 99 -46 134c-30 35 -70 53 -120 53c-49 0 -88 -18 -117 -53s-43 -80 -43 -134s14 -99 43 -134s68 -53 117 -53z" />
    <glyph glyph-name="i.ss01" horiz-adv-x="433" 
d="M99 68h87v354h-77c-26 0 -39 11 -39 34s13 34 39 34h114c25 0 37 -14 37 -41v-381h89c26 0 39 -11 39 -34s-13 -34 -39 -34h-250c-26 0 -39 11 -39 34s13 34 39 34zM155 647c0 36 30 66 67 66s67 -30 67 -66c0 -37 -30 -67 -67 -67s-67 30 -67 67z" />
    <glyph glyph-name="j.ss01" horiz-adv-x="333" 
d="M155 -42v464h-77c-26 0 -39 11 -39 34s13 34 39 34h114c25 0 37 -14 37 -41v-503c0 -104 -46 -145 -143 -145h-23c-25 0 -38 15 -38 34c0 23 13 34 38 34h16c60 0 76 25 76 89zM121 647c0 36 30 66 67 66s67 -30 67 -66c0 -37 -30 -67 -67 -67s-67 30 -67 67z" />
    <glyph glyph-name="l.ss01" horiz-adv-x="423" 
d="M89 68h87v564h-77c-26 0 -39 11 -39 34s13 34 39 34h114c25 0 37 -14 37 -41v-591h89c26 0 39 -11 39 -34s-13 -34 -39 -34h-250c-26 0 -39 11 -39 34s13 34 39 34z" />
    <glyph glyph-name="r.ss01" horiz-adv-x="502" 
d="M467 320c0 -28 -17 -42 -38 -42c-22 0 -34 14 -37 42c-7 72 -47 113 -115 113c-81 0 -128 -64 -128 -165v-231c0 -28 -12 -42 -37 -42s-37 14 -37 42v417c0 27 16 41 36 41c24 0 36 -14 36 -41v-26c35 49 82 74 140 74c48 0 90 -16 126 -47s54 -76 54 -135z" />
    <glyph glyph-name="I.ss01" horiz-adv-x="450" 
d="M263 628v-556h112c27 0 40 -12 40 -36s-13 -36 -40 -36h-300c-27 0 -40 12 -40 36s13 36 40 36h112v556h-102c-27 0 -40 12 -40 36s13 36 40 36h280c27 0 40 -12 40 -36s-13 -36 -40 -36h-102z" />
    <glyph glyph-name="period.ss01" horiz-adv-x="312" 
d="M89 56c0 36 30 66 67 66s67 -30 67 -66c0 -37 -30 -67 -67 -67s-67 30 -67 67z" />
    <glyph glyph-name="ellipsis.ss01" horiz-adv-x="779" 
d="M73 56c0 36 30 66 67 66s67 -30 67 -66c0 -37 -30 -67 -67 -67s-67 30 -67 67zM322 56c0 36 30 66 67 66s67 -30 67 -66c0 -37 -30 -67 -67 -67s-67 30 -67 67zM572 56c0 36 30 66 67 66s67 -30 67 -66c0 -37 -30 -67 -67 -67s-67 30 -67 67z" />
    <glyph glyph-name="question.ss01" horiz-adv-x="556" 
d="M232 248v80c0 27 15 43 45 46c99 12 155 66 155 141c0 73 -59 126 -139 126c-61 0 -113 -26 -154 -77c-18 -21 -36 -23 -55 -8s-19 33 -2 54c55 68 126 102 211 102c62 0 113 -18 154 -54c41 -35 62 -82 62 -140c0 -105 -75 -190 -200 -210v-60c0 -29 -13 -43 -39 -43
c-25 0 -38 14 -38 43zM204 56c0 36 30 66 67 66s67 -30 67 -66c0 -37 -30 -67 -67 -67s-67 30 -67 67z" />
    <glyph glyph-name="questiondown.ss01" horiz-adv-x="556" 
d="M345 168c0 -27 -15 -43 -45 -46c-100 -12 -155 -63 -155 -136s58 -120 139 -120c61 0 113 26 154 77c18 21 36 23 55 8s19 -33 2 -54c-55 -68 -126 -102 -211 -102c-63 0 -114 17 -155 51s-61 80 -61 137c0 105 73 185 200 205v55c0 29 13 43 39 43c25 0 38 -14 38 -43
v-75zM240 437c0 36 30 66 67 66s67 -30 67 -66c0 -37 -30 -67 -67 -67s-67 30 -67 67z" />
    <glyph glyph-name="exclam.ss01" horiz-adv-x="301" 
d="M186 661v-411c0 -29 -12 -44 -37 -44c-26 0 -39 15 -39 44v411c0 29 13 44 39 44c25 0 37 -15 37 -44zM82 56c0 36 30 66 67 66s67 -30 67 -66c0 -37 -30 -67 -67 -67s-67 30 -67 67z" />
    <glyph glyph-name="exclamdown.ss01" horiz-adv-x="301" 
d="M114 -155v396c0 29 12 44 37 44c26 0 39 -15 39 -44v-396c0 -29 -13 -44 -39 -44c-25 0 -37 15 -37 44zM84 437c0 36 30 66 67 66s67 -30 67 -66c0 -37 -30 -67 -67 -67s-67 30 -67 67z" />
    <glyph glyph-name="periodcentered.ss01" horiz-adv-x="382" 
d="M121 262c0 36 30 66 67 66s67 -30 67 -66c0 -37 -30 -67 -67 -67s-67 30 -67 67z" />
    <glyph glyph-name="dotaccent.ss01" horiz-adv-x="259" 
d="M62 646c0 36 30 66 67 66s67 -30 67 -66c0 -37 -30 -67 -67 -67s-67 30 -67 67z" />
    <glyph glyph-name="aacute.ss01" horiz-adv-x="634" 
d="M70 245c0 71 22 132 66 182c45 50 100 75 165 75c71 0 128 -27 169 -81v33c0 27 16 41 37 41c25 0 37 -14 37 -41v-417c0 -28 -12 -42 -37 -42s-37 14 -37 42v32c-41 -53 -97 -80 -169 -80c-65 0 -120 25 -165 75c-44 50 -66 110 -66 181zM306 58c50 0 90 18 120 53
c31 35 46 80 46 134s-15 99 -46 134c-30 35 -70 53 -120 53c-49 0 -88 -18 -117 -53s-43 -80 -43 -134s14 -99 43 -134s68 -53 117 -53zM258 625l103 72c22 15 40 12 54 -9c11 -20 6 -37 -17 -52l-108 -64c-20 -13 -36 -10 -47 8c-9 16 -4 31 15 45z" />
    <glyph glyph-name="agrave.ss01" horiz-adv-x="634" 
d="M70 245c0 71 22 132 66 182c45 50 100 75 165 75c71 0 128 -27 169 -81v33c0 27 16 41 37 41c25 0 37 -14 37 -41v-417c0 -28 -12 -42 -37 -42s-37 14 -37 42v32c-41 -53 -97 -80 -169 -80c-65 0 -120 25 -165 75c-44 50 -66 110 -66 181zM306 58c50 0 90 18 120 53
c31 35 46 80 46 134s-15 99 -46 134c-30 35 -70 53 -120 53c-49 0 -88 -18 -117 -53s-43 -80 -43 -134s14 -99 43 -134s68 -53 117 -53zM267 697l103 -72c19 -14 24 -29 15 -45c-11 -18 -27 -21 -47 -8l-108 64c-23 15 -28 32 -17 52c14 21 32 24 54 9z" />
    <glyph glyph-name="acircumflex.ss01" horiz-adv-x="634" 
d="M70 245c0 71 22 132 66 182c45 50 100 75 165 75c71 0 128 -27 169 -81v33c0 27 16 41 37 41c25 0 37 -14 37 -41v-417c0 -28 -12 -42 -37 -42s-37 14 -37 42v32c-41 -53 -97 -80 -169 -80c-65 0 -120 25 -165 75c-44 50 -66 110 -66 181zM306 58c50 0 90 18 120 53
c31 35 46 80 46 134s-15 99 -46 134c-30 35 -70 53 -120 53c-49 0 -88 -18 -117 -53s-43 -80 -43 -134s14 -99 43 -134s68 -53 117 -53zM334 697l93 -72c19 -15 24 -30 15 -45c-12 -19 -28 -21 -47 -8l-85 56l-85 -56c-19 -13 -35 -11 -47 8c-9 15 -4 30 15 45l93 72
c15 11 33 11 48 0z" />
    <glyph glyph-name="adieresis.ss01" horiz-adv-x="634" 
d="M70 245c0 71 22 132 66 182c45 50 100 75 165 75c71 0 128 -27 169 -81v33c0 27 16 41 37 41c25 0 37 -14 37 -41v-417c0 -28 -12 -42 -37 -42s-37 14 -37 42v32c-41 -53 -97 -80 -169 -80c-65 0 -120 25 -165 75c-44 50 -66 110 -66 181zM306 58c50 0 90 18 120 53
c31 35 46 80 46 134s-15 99 -46 134c-30 35 -70 53 -120 53c-49 0 -88 -18 -117 -53s-43 -80 -43 -134s14 -99 43 -134s68 -53 117 -53zM181 618c-19 20 -19 54 0 74c20 20 54 20 74 0s20 -54 0 -74c-20 -19 -54 -19 -74 0zM362 618c-19 20 -19 54 0 74c20 20 54 20 74 0
s20 -54 0 -74c-20 -19 -54 -19 -74 0z" />
    <glyph glyph-name="atilde.ss01" horiz-adv-x="634" 
d="M290 692l30 -13c11 -6 30 -15 42 -15c14 0 17 9 21 18l2 4c6 13 16 20 29 20c20 0 30 -10 30 -31c0 -44 -30 -77 -74 -77c-11 0 -25 3 -42 10l-30 13c-11 6 -30 15 -42 15c-14 0 -17 -9 -21 -18l-2 -4c-6 -13 -16 -20 -29 -20c-20 0 -30 10 -30 31c0 44 30 77 74 77
c11 0 25 -3 42 -10zM70 245c0 71 22 132 66 182c45 50 100 75 165 75c71 0 128 -27 169 -81v33c0 27 16 41 37 41c25 0 37 -14 37 -41v-417c0 -28 -12 -42 -37 -42s-37 14 -37 42v32c-41 -53 -97 -80 -169 -80c-65 0 -120 25 -165 75c-44 50 -66 110 -66 181zM306 58
c50 0 90 18 120 53c31 35 46 80 46 134s-15 99 -46 134c-30 35 -70 53 -120 53c-49 0 -88 -18 -117 -53s-43 -80 -43 -134s14 -99 43 -134s68 -53 117 -53z" />
    <glyph glyph-name="aring.ss01" horiz-adv-x="634" 
d="M70 245c0 71 22 132 66 182c45 50 100 75 165 75c71 0 128 -27 169 -81v33c0 27 16 41 37 41c25 0 37 -14 37 -41v-417c0 -28 -12 -42 -37 -42s-37 14 -37 42v32c-41 -53 -97 -80 -169 -80c-65 0 -120 25 -165 75c-44 50 -66 110 -66 181zM306 58c50 0 90 18 120 53
c31 35 46 80 46 134s-15 99 -46 134c-30 35 -70 53 -120 53c-49 0 -88 -18 -117 -53s-43 -80 -43 -134s14 -99 43 -134s68 -53 117 -53zM228 635c0 45 34 77 75 77c45 0 79 -32 79 -77c0 -43 -34 -76 -79 -76c-41 0 -75 35 -75 76zM306 606c36 -4 36 62 0 57
c-39 5 -39 -61 0 -57z" />
    <glyph glyph-name="iacute.ss01" horiz-adv-x="433" 
d="M99 68h87v354h-77c-26 0 -39 11 -39 34s13 34 39 34h114c25 0 37 -14 37 -41v-381h89c26 0 39 -11 39 -34s-13 -34 -39 -34h-250c-26 0 -39 11 -39 34s13 34 39 34zM163 625l103 72c22 15 40 12 54 -9c11 -20 6 -37 -17 -52l-108 -64c-20 -13 -36 -10 -47 8
c-9 16 -4 31 15 45z" />
    <glyph glyph-name="igrave.ss01" horiz-adv-x="433" 
d="M99 68h87v354h-77c-26 0 -39 11 -39 34s13 34 39 34h114c25 0 37 -14 37 -41v-381h89c26 0 39 -11 39 -34s-13 -34 -39 -34h-250c-26 0 -39 11 -39 34s13 34 39 34zM177 697l103 -72c19 -14 24 -29 15 -45c-11 -18 -27 -21 -47 -8l-108 64c-23 15 -28 32 -17 52
c14 21 32 24 54 9z" />
    <glyph glyph-name="icircumflex.ss01" horiz-adv-x="433" 
d="M99 68h87v354h-77c-26 0 -39 11 -39 34s13 34 39 34h114c25 0 37 -14 37 -41v-381h89c26 0 39 -11 39 -34s-13 -34 -39 -34h-250c-26 0 -39 11 -39 34s13 34 39 34zM247 697l93 -72c19 -15 24 -30 15 -45c-12 -19 -28 -21 -47 -8l-85 56l-85 -56c-19 -13 -35 -11 -47 8
c-9 15 -4 30 15 45l93 72c15 11 33 11 48 0z" />
    <glyph glyph-name="idieresis.ss01" horiz-adv-x="433" 
d="M99 68h87v354h-77c-26 0 -39 11 -39 34s13 34 39 34h114c25 0 37 -14 37 -41v-381h89c26 0 39 -11 39 -34s-13 -34 -39 -34h-250c-26 0 -39 11 -39 34s13 34 39 34zM95 618c-19 20 -19 54 0 74c20 20 54 20 74 0s20 -54 0 -74c-20 -19 -54 -19 -74 0zM276 618
c-19 20 -19 54 0 74c20 20 54 20 74 0s20 -54 0 -74c-20 -19 -54 -19 -74 0z" />
    <glyph glyph-name="lslash.ss01" horiz-adv-x="423" 
d="M89 68h87v248l-60 -17c-26 -7 -43 1 -50 24c-6 23 4 38 30 45l80 23v241h-77c-26 0 -39 11 -39 34s13 34 39 34h114c25 0 37 -14 37 -41v-247l61 18c26 7 43 -1 50 -24c6 -23 -4 -38 -30 -45l-81 -24v-269h89c26 0 39 -11 39 -34s-13 -34 -39 -34h-250
c-26 0 -39 11 -39 34s13 34 39 34z" />
    <glyph glyph-name="Iacute.ss01" horiz-adv-x="450" 
d="M263 628v-556h112c27 0 40 -12 40 -36s-13 -36 -40 -36h-300c-27 0 -40 12 -40 36s13 36 40 36h112v556h-102c-27 0 -40 12 -40 36s13 36 40 36h280c27 0 40 -12 40 -36s-13 -36 -40 -36h-102zM167 820l103 72c22 15 40 12 54 -9c11 -20 6 -37 -17 -52l-108 -64
c-20 -13 -36 -10 -47 8c-9 16 -4 31 15 45z" />
    <glyph glyph-name="Igrave.ss01" horiz-adv-x="450" 
d="M263 628v-556h112c27 0 40 -12 40 -36s-13 -36 -40 -36h-300c-27 0 -40 12 -40 36s13 36 40 36h112v556h-102c-27 0 -40 12 -40 36s13 36 40 36h280c27 0 40 -12 40 -36s-13 -36 -40 -36h-102zM182 892l103 -72c19 -14 24 -29 15 -45c-11 -18 -27 -21 -47 -8l-108 64
c-23 15 -28 32 -17 52c14 21 32 24 54 9z" />
    <glyph glyph-name="Icircumflex.ss01" horiz-adv-x="450" 
d="M263 628v-556h112c27 0 40 -12 40 -36s-13 -36 -40 -36h-300c-27 0 -40 12 -40 36s13 36 40 36h112v556h-102c-27 0 -40 12 -40 36s13 36 40 36h280c27 0 40 -12 40 -36s-13 -36 -40 -36h-102zM248 891l93 -72c19 -15 24 -30 15 -45c-12 -19 -28 -21 -47 -8l-85 56
l-85 -56c-19 -13 -35 -11 -47 8c-9 15 -4 30 15 45l93 72c15 11 33 11 48 0z" />
    <glyph glyph-name="Idieresis.ss01" horiz-adv-x="450" 
d="M263 628v-556h112c27 0 40 -12 40 -36s-13 -36 -40 -36h-300c-27 0 -40 12 -40 36s13 36 40 36h112v556h-102c-27 0 -40 12 -40 36s13 36 40 36h280c27 0 40 -12 40 -36s-13 -36 -40 -36h-102zM98 818c-19 20 -19 54 0 74c20 20 54 20 74 0s20 -54 0 -74
c-20 -19 -54 -19 -74 0zM279 818c-19 20 -19 54 0 74c20 20 54 20 74 0s20 -54 0 -74c-20 -19 -54 -19 -74 0z" />
    <glyph glyph-name="dotlessi.ss01" horiz-adv-x="433" 
d="M99 68h87v354h-77c-26 0 -39 11 -39 34s13 34 39 34h114c25 0 37 -14 37 -41v-381h89c26 0 39 -11 39 -34s-13 -34 -39 -34h-250c-26 0 -39 11 -39 34s13 34 39 34z" />
    <glyph glyph-name="a.ss02" horiz-adv-x="523" 
d="M227 301c51 0 94 -13 129 -39v56c0 75 -43 115 -114 115c-26 0 -54 -6 -83 -17c-14 -5 -25 -8 -32 -8c-21 0 -35 13 -35 32c0 14 7 25 22 33c37 19 80 29 129 29c117 0 187 -68 187 -192v-185c0 -43 16 -64 49 -64c24 0 38 -14 38 -33c0 -21 -14 -32 -42 -32h-4
c-45 0 -77 17 -96 50c-36 -38 -85 -57 -148 -57c-57 0 -103 15 -137 45c-33 30 -50 67 -50 111c0 43 17 80 51 110c34 31 79 46 136 46zM232 232c-75 0 -118 -38 -118 -87s43 -87 118 -87c77 0 128 35 128 87s-51 87 -128 87z" />
    <glyph glyph-name="l.ss02" horiz-adv-x="272" 
d="M219 0h-11c-82 0 -123 47 -123 140v524c0 27 12 41 37 41c21 0 37 -14 37 -41v-522c0 -56 13 -74 56 -74h4c25 0 38 -11 38 -34c0 -19 -13 -34 -38 -34z" />
    <glyph glyph-name="aacute.ss02" horiz-adv-x="523" 
d="M227 301c51 0 94 -13 129 -39v56c0 75 -43 115 -114 115c-26 0 -54 -6 -83 -17c-14 -5 -25 -8 -32 -8c-21 0 -35 13 -35 32c0 14 7 25 22 33c37 19 80 29 129 29c117 0 187 -68 187 -192v-185c0 -43 16 -64 49 -64c24 0 38 -14 38 -33c0 -21 -14 -32 -42 -32h-4
c-45 0 -77 17 -96 50c-36 -38 -85 -57 -148 -57c-57 0 -103 15 -137 45c-33 30 -50 67 -50 111c0 43 17 80 51 110c34 31 79 46 136 46zM232 232c-75 0 -118 -38 -118 -87s43 -87 118 -87c77 0 128 35 128 87s-51 87 -128 87zM188 625l103 72c22 15 40 12 54 -9
c11 -20 6 -37 -17 -52l-108 -64c-20 -13 -36 -10 -47 8c-9 16 -4 31 15 45z" />
    <glyph glyph-name="agrave.ss02" horiz-adv-x="523" 
d="M227 301c51 0 94 -13 129 -39v56c0 75 -43 115 -114 115c-26 0 -54 -6 -83 -17c-14 -5 -25 -8 -32 -8c-21 0 -35 13 -35 32c0 14 7 25 22 33c37 19 80 29 129 29c117 0 187 -68 187 -192v-185c0 -43 16 -64 49 -64c24 0 38 -14 38 -33c0 -21 -14 -32 -42 -32h-4
c-45 0 -77 17 -96 50c-36 -38 -85 -57 -148 -57c-57 0 -103 15 -137 45c-33 30 -50 67 -50 111c0 43 17 80 51 110c34 31 79 46 136 46zM232 232c-75 0 -118 -38 -118 -87s43 -87 118 -87c77 0 128 35 128 87s-51 87 -128 87zM207 697l103 -72c19 -14 24 -29 15 -45
c-11 -18 -27 -21 -47 -8l-108 64c-23 15 -28 32 -17 52c14 21 32 24 54 9z" />
    <glyph glyph-name="acircumflex.ss02" horiz-adv-x="523" 
d="M227 301c51 0 94 -13 129 -39v56c0 75 -43 115 -114 115c-26 0 -54 -6 -83 -17c-14 -5 -25 -8 -32 -8c-21 0 -35 13 -35 32c0 14 7 25 22 33c37 19 80 29 129 29c117 0 187 -68 187 -192v-185c0 -43 16 -64 49 -64c24 0 38 -14 38 -33c0 -21 -14 -32 -42 -32h-4
c-45 0 -77 17 -96 50c-36 -38 -85 -57 -148 -57c-57 0 -103 15 -137 45c-33 30 -50 67 -50 111c0 43 17 80 51 110c34 31 79 46 136 46zM232 232c-75 0 -118 -38 -118 -87s43 -87 118 -87c77 0 128 35 128 87s-51 87 -128 87zM270 697l93 -72c19 -15 24 -30 15 -45
c-12 -19 -28 -21 -47 -8l-85 56l-85 -56c-19 -13 -35 -11 -47 8c-9 15 -4 30 15 45l93 72c15 11 33 11 48 0z" />
    <glyph glyph-name="adieresis.ss02" horiz-adv-x="523" 
d="M227 301c51 0 94 -13 129 -39v56c0 75 -43 115 -114 115c-26 0 -54 -6 -83 -17c-14 -5 -25 -8 -32 -8c-21 0 -35 13 -35 32c0 14 7 25 22 33c37 19 80 29 129 29c117 0 187 -68 187 -192v-185c0 -43 16 -64 49 -64c24 0 38 -14 38 -33c0 -21 -14 -32 -42 -32h-4
c-45 0 -77 17 -96 50c-36 -38 -85 -57 -148 -57c-57 0 -103 15 -137 45c-33 30 -50 67 -50 111c0 43 17 80 51 110c34 31 79 46 136 46zM232 232c-75 0 -118 -38 -118 -87s43 -87 118 -87c77 0 128 35 128 87s-51 87 -128 87zM116 618c-19 20 -19 54 0 74c20 20 54 20 74 0
s20 -54 0 -74c-20 -19 -54 -19 -74 0zM297 618c-19 20 -19 54 0 74c20 20 54 20 74 0s20 -54 0 -74c-20 -19 -54 -19 -74 0z" />
    <glyph glyph-name="atilde.ss02" horiz-adv-x="523" 
d="M226 692l30 -13c11 -6 30 -15 42 -15c14 0 17 9 21 18l2 4c6 13 16 20 29 20c20 0 30 -10 30 -31c0 -44 -30 -77 -74 -77c-11 0 -25 3 -42 10l-30 13c-11 6 -30 15 -42 15c-14 0 -17 -9 -21 -18l-2 -4c-6 -13 -16 -20 -29 -20c-20 0 -30 10 -30 31c0 44 30 77 74 77
c11 0 25 -3 42 -10zM227 301c51 0 94 -13 129 -39v56c0 75 -43 115 -114 115c-26 0 -54 -6 -83 -17c-14 -5 -25 -8 -32 -8c-21 0 -35 13 -35 32c0 14 7 25 22 33c37 19 80 29 129 29c117 0 187 -68 187 -192v-185c0 -43 16 -64 49 -64c24 0 38 -14 38 -33
c0 -21 -14 -32 -42 -32h-4c-45 0 -77 17 -96 50c-36 -38 -85 -57 -148 -57c-57 0 -103 15 -137 45c-33 30 -50 67 -50 111c0 43 17 80 51 110c34 31 79 46 136 46zM232 232c-75 0 -118 -38 -118 -87s43 -87 118 -87c77 0 128 35 128 87s-51 87 -128 87z" />
    <glyph glyph-name="aring.ss02" horiz-adv-x="523" 
d="M227 301c51 0 94 -13 129 -39v56c0 75 -43 115 -114 115c-26 0 -54 -6 -83 -17c-14 -5 -25 -8 -32 -8c-21 0 -35 13 -35 32c0 14 7 25 22 33c37 19 80 29 129 29c117 0 187 -68 187 -192v-185c0 -43 16 -64 49 -64c24 0 38 -14 38 -33c0 -21 -14 -32 -42 -32h-4
c-45 0 -77 17 -96 50c-36 -38 -85 -57 -148 -57c-57 0 -103 15 -137 45c-33 30 -50 67 -50 111c0 43 17 80 51 110c34 31 79 46 136 46zM232 232c-75 0 -118 -38 -118 -87s43 -87 118 -87c77 0 128 35 128 87s-51 87 -128 87zM173 635c0 45 34 77 75 77c45 0 79 -32 79 -77
c0 -43 -34 -76 -79 -76c-41 0 -75 35 -75 76zM251 606c36 -4 36 62 0 57c-39 5 -39 -61 0 -57z" />
    <glyph glyph-name="lslash.ss02" horiz-adv-x="314" 
d="M243 0h-11c-82 0 -123 47 -123 140v175l-52 -15c-27 -8 -44 -1 -51 21c-5 20 4 38 32 46l71 20v277c0 27 12 41 37 41c21 0 37 -14 37 -41v-255l66 19c28 8 45 1 52 -20c5 -20 -5 -39 -33 -47l-85 -25v-194c0 -56 13 -74 56 -74h4c25 0 38 -11 38 -34
c0 -19 -13 -34 -38 -34z" />
    </font>
</defs>
</svg>
