<?xml version="1.0" encoding="utf-8"?>
<!-- Generator: Adobe Illustrator 20.1.0, SVG Export Plug-In . SVG Version: 6.00 Build 0)  -->
<svg version="1.1" id="artwork" xmlns="http://www.w3.org/2000/svg" xmlns:xlink="http://www.w3.org/1999/xlink" x="0px" y="0px"
	 viewBox="0 0 129.7 131.5" style="enable-background:new 0 0 129.7 131.5;" xml:space="preserve">
<style type="text/css">
	.st0{fill:#FFFFFF;}
</style>
<g>
	<g>
		<circle cx="64.7" cy="65.7" r="53.4"/>
		<g>
			<path class="st0" d="M56.8,83.9c-0.8,0-1.4,0.6-1.4,1.5v3.8L52.9,85c-0.3-0.5-0.8-1.1-1.7-1.1c-1.1,0-1.9,0.7-1.9,1.9v6.8
				c0,0.9,0.6,1.5,1.4,1.5c0.8,0,1.4-0.6,1.4-1.5v-3.8l2.5,4.2c0.3,0.5,0.8,1.1,1.7,1.1c1.1,0,1.9-0.7,1.9-1.9v-6.8
				C58.2,84.5,57.6,83.9,56.8,83.9z"/>
			<path class="st0" d="M67.4,84c-0.7-0.3-1.5,0-1.8,0.8l-1.2,2.6l-1.2-2.5C62.7,84,62,83.7,61.3,84c-0.4,0.2-0.6,0.4-0.8,0.7
				c-0.1,0.2-0.2,0.6,0.1,1.1l2.3,4.6v2.2c0,0.9,0.6,1.5,1.4,1.5c0.8,0,1.4-0.6,1.4-1.5v-2.2l2.4-4.6c0.2-0.5,0.1-0.9,0.1-1.1
				C68,84.4,67.8,84.2,67.4,84z"/>
			<path class="st0" d="M79.1,91c-0.5-0.6-1.3-0.6-2-0.1c-0.5,0.4-1.1,0.6-1.7,0.6c-0.7,0-1.3-0.2-1.7-0.7c-0.5-0.5-0.7-1.1-0.7-1.9
				c0-0.8,0.2-1.4,0.7-1.8c0.5-0.5,1-0.7,1.6-0.7c0.7,0,1.2,0.2,1.7,0.6c0.7,0.5,1.4,0.5,2-0.1c0.2-0.3,0.4-0.6,0.4-0.9
				c0-0.4-0.2-0.8-0.5-1.1c-0.9-0.8-2.1-1.2-3.4-1.2c-1.5,0-2.8,0.5-3.7,1.4c-1,0.9-1.5,2.2-1.5,3.8c0,1.5,0.5,2.8,1.5,3.8
				c1,0.9,2.3,1.4,3.8,1.4c1.4,0,2.6-0.4,3.5-1.2c0.3-0.3,0.5-0.7,0.5-1C79.4,91.6,79.3,91.3,79.1,91z"/>
		</g>
		<g>
			<path class="st0" d="M53.1,46.7l2.1-8.8c0.3-1.1,1.1-1.6,2.1-1.4c1,0.2,1.5,1.1,1.2,2.2l-3.2,12c-0.3,1.2-1.1,1.8-2.2,1.8
				c-1.1,0-1.9-0.6-2.2-1.8L48.8,42l-2.3,8.8c-0.3,1.2-1,1.8-2.2,1.8c-1.1,0-1.8-0.6-2.1-1.8l-3.2-12c-0.3-1.1,0.3-1.9,1.2-2.2
				c1-0.2,1.8,0.3,2.1,1.4l2.1,8.8l2.1-8.4c0.3-1.2,1-1.8,2.2-1.8c1.1,0,1.9,0.6,2.2,1.8L53.1,46.7z"/>
			<path class="st0" d="M64.8,40.7c1.4,0,2.6,0.4,3.5,1.2c0.9,0.8,1.4,1.9,1.4,3.3v5.5c0,1.1-0.7,1.8-1.7,1.8
				c-0.8,0-1.3-0.4-1.5-1.1c-0.8,0.8-1.8,1.2-2.9,1.2c-1.1,0-2.1-0.3-2.8-1c-0.7-0.7-1.1-1.5-1.1-2.5c0-1.2,0.4-2.1,1.3-2.7
				c0.9-0.6,2-0.9,3.2-1l2.1-0.1c0-1.2-0.6-1.8-1.8-1.8c-0.7,0-1.3,0.2-1.9,0.6c-0.9,0.6-1.7,0.5-2.2-0.1c-0.5-0.6-0.4-1.6,0.4-2.2
				C61.8,41.1,63.2,40.7,64.8,40.7z M64.3,49.9c0.7,0,1.3-0.2,2-0.7v-1.4l-1.5,0.1C63.6,48,63,48.3,63,49
				C63,49.5,63.5,49.9,64.3,49.9z"/>
			<path class="st0" d="M76.1,50.8c0.1,2.3-3.5,2.3-3.3,0V38.3c-0.1-2.3,3.5-2.3,3.3,0V50.8z"/>
			<path class="st0" d="M84,48.2l-1,1v1.5c0.1,2.3-3.5,2.3-3.3,0V38.3c-0.1-2.3,3.5-2.3,3.3,0v6.5l3.5-3.3c0.8-0.7,1.7-0.9,2.4-0.3
				c0.7,0.6,0.7,1.6-0.1,2.5l-2.5,2.3l3,3.8c0.7,0.9,0.5,1.9-0.2,2.5c-0.7,0.6-1.8,0.4-2.5-0.5L84,48.2z"/>
		</g>
		<g>
			<path class="st0" d="M39.9,70.3l2.1-8.8c0.3-1.1,1.1-1.6,2.1-1.4c1,0.2,1.5,1.1,1.2,2.2l-3.2,12c-0.3,1.2-1.1,1.8-2.2,1.8
				c-1.1,0-1.9-0.6-2.2-1.8l-2.3-8.7l-2.3,8.8c-0.3,1.2-1,1.8-2.2,1.8c-1.1,0-1.8-0.6-2.1-1.8l-3.2-12c-0.3-1.1,0.3-1.9,1.2-2.2
				c1-0.2,1.8,0.3,2.1,1.4l2.1,8.8l2.1-8.4c0.3-1.2,1-1.8,2.2-1.8c1.1,0,1.9,0.6,2.2,1.8L39.9,70.3z"/>
			<path class="st0" d="M48.8,59.7c1.1,0,1.9,0.8,1.9,1.9c0,1.1-0.9,1.9-1.9,1.9c-1.1,0-1.9-0.9-1.9-1.9
				C46.9,60.5,47.8,59.7,48.8,59.7z M48.8,76.1c-1,0-1.7-0.7-1.7-1.8v-7.8c0-1.1,0.7-1.8,1.7-1.8c1,0,1.7,0.7,1.7,1.8v7.8
				C50.5,75.4,49.8,76.1,48.8,76.1z"/>
			<path class="st0" d="M60.5,74.5c0,0.9-0.6,1.5-1.8,1.5h-0.3c-2.7,0-4-1.4-4-4.1v-4.3H54c-1,0-1.7-0.7-1.7-1.5
				c0-0.9,0.6-1.5,1.7-1.5h0.4V63c-0.1-2.3,3.5-2.3,3.3,0v1.5h1.1c1,0,1.7,0.7,1.7,1.5c0,0.9-0.6,1.5-1.7,1.5h-1.1v3.9
				c0,1,0.4,1.3,1.2,1.4C59.9,73.1,60.5,73.6,60.5,74.5z"/>
			<path class="st0" d="M63.3,61.9c-0.1-2.3,3.5-2.3,3.3,0v3.4c0.6-0.7,1.5-1,2.7-1c2.8,0,4.6,1.9,4.6,5.1v5c0,1.1-0.7,1.8-1.7,1.8
				c-1,0-1.7-0.7-1.7-1.8v-4.7c0-1.3-0.6-2.2-1.9-2.2c-1.4,0-2.1,0.9-2.1,2.7v4.3c0.1,2.3-3.5,2.3-3.3,0V61.9z"/>
			<path class="st0" d="M82.4,69.2c0,2.4,1.1,4,3.3,4c2.2,0,3.3-1.3,3.3-4V62c0-1.1,0.7-1.8,1.7-1.8c1,0,1.7,0.7,1.7,1.8v7
				c0,4.7-2.5,7.2-6.6,7.2c-4.1,0-6.6-2.5-6.6-7.2v-7c0-1.1,0.7-1.8,1.7-1.8s1.7,0.7,1.7,1.8V69.2z"/>
			<path class="st0" d="M94.6,72.8c0.6-0.7,1.4-0.7,2.2,0c0.6,0.5,1.5,0.7,2.5,0.7c0.7,0,1.3-0.3,1.3-0.7c0-0.4-0.3-0.6-1-0.8
				l-1.3-0.4c-2.5-0.7-3.7-1.9-3.7-3.7c0-1.1,0.4-2,1.3-2.6c0.9-0.7,1.9-1,3.2-1c1.3,0,2.5,0.3,3.4,0.9c0.8,0.6,1.1,1.4,0.6,2.1
				c-0.5,0.7-1.3,1-2.2,0.4c-0.6-0.4-1.3-0.6-1.9-0.6c-0.7,0-1.1,0.3-1.1,0.6c0,0.4,0.3,0.5,0.8,0.7l1.5,0.4
				c2.3,0.7,3.8,1.7,3.8,3.8c0,2.2-1.9,3.7-4.8,3.7c-1.8,0-3.1-0.4-4.1-1.3C94.1,74.3,94,73.4,94.6,72.8z"/>
		</g>
	</g>
</g>
</svg>
