<svg xmlns="http://www.w3.org/2000/svg" viewBox="0 0 320.29 269.37"><defs><style>.cls-1{fill:#fff;}</style></defs><title>Asset 1</title><g id="Layer_2" data-name="Layer 2"><g id="Layer_1-2" data-name="Layer 1"><circle cx="160.45" cy="100.46" r="100.46"/><path class="cls-1" d="M145.56,134.62a2.56,2.56,0,0,0-2.61,2.73v7.16l-4.75-7.91a3.53,3.53,0,0,0-3.27-2,3.3,3.3,0,0,0-3.48,3.63v12.86a2.61,2.61,0,1,0,5.22,0V144l4.75,7.91a3.53,3.53,0,0,0,3.26,2,3.3,3.3,0,0,0,3.48-3.63V137.35A2.56,2.56,0,0,0,145.56,134.62Z"/><path class="cls-1" d="M165.49,134.83a2.6,2.6,0,0,0-3.41,1.46l-2.34,4.8-2.32-4.79a2.6,2.6,0,0,0-3.41-1.47,2.55,2.55,0,0,0-1.43,1.37,2.72,2.72,0,0,0,.13,2.15l4.42,8.7v4.07a2.61,2.61,0,1,0,5.22,0V147l4.47-8.74a2.68,2.68,0,0,0,.1-2.1A2.54,2.54,0,0,0,165.49,134.83Z"/><path class="cls-1" d="M187.4,148a2.56,2.56,0,0,0-3.71-.18,4.89,4.89,0,0,1-3.26,1.19,4.46,4.46,0,0,1-3.27-1.27,4.73,4.73,0,0,1-1.31-3.53,4.55,4.55,0,0,1,1.3-3.45,4.31,4.31,0,0,1,3.08-1.28,4.62,4.62,0,0,1,3.19,1.17,2.52,2.52,0,0,0,3.7-.18,2.38,2.38,0,0,0,.66-1.73,2.8,2.8,0,0,0-1-2,9.56,9.56,0,0,0-6.37-2.27,9.83,9.83,0,0,0-7,2.7,10.21,10.21,0,0,0,0,14.16,10.17,10.17,0,0,0,7.17,2.67,9.5,9.5,0,0,0,6.53-2.31,2.79,2.79,0,0,0,1-2A2.34,2.34,0,0,0,187.4,148Z"/><path class="cls-1" d="M138.67,64.72l4-16.53a3.23,3.23,0,1,1,6.27,1.48l-6,22.58c-.64,2.25-2,3.35-4.07,3.35s-3.52-1.14-4.07-3.39l-4.24-16.44-4.32,16.48a3.87,3.87,0,0,1-4.07,3.35c-2.08,0-3.43-1.14-4-3.39l-6-22.54a3.23,3.23,0,1,1,6.27-1.48l4,16.53,4-15.85a4.22,4.22,0,0,1,8.26,0Z"/><path class="cls-1" d="M160.52,53.34a9.5,9.5,0,0,1,6.59,2.33A8,8,0,0,1,169.65,62V72.27a3.08,3.08,0,0,1-3.12,3.34,2.82,2.82,0,0,1-2.9-2,8.07,8.07,0,0,1-10.72.4,6.24,6.24,0,0,1-2-4.79,5.74,5.74,0,0,1,2.42-5.05,11.16,11.16,0,0,1,6.1-1.84l4-.18q0-3.29-3.29-3.29a6.22,6.22,0,0,0-3.6,1.1c-1.62,1.1-3.21,1-4.13-.26s-.7-2.94.75-4.13A11.67,11.67,0,0,1,160.52,53.34Zm-.83,17.26a6.12,6.12,0,0,0,3.69-1.32V66.74L160.6,67c-2.28.13-3.43.75-3.43,1.93S158.1,70.6,159.68,70.6Z"/><path class="cls-1" d="M181.87,72.27c.26,4.39-6.5,4.39-6.24,0V48.84c-.26-4.39,6.5-4.39,6.24,0Z"/><path class="cls-1" d="M196.72,67.48l-1.93,1.89v2.9c.26,4.39-6.5,4.39-6.24,0V48.84c-.26-4.39,6.5-4.39,6.24,0V61.12l6.54-6.24c1.45-1.36,3.25-1.62,4.52-.57s1.41,3.07-.13,4.61l-4.61,4.26,5.62,7.11A3.16,3.16,0,1,1,201.68,74Z"/><path class="cls-1" d="M113.84,109l4-16.53A3.23,3.23,0,1,1,124.09,94l-6,22.58c-.64,2.25-2,3.35-4.07,3.35s-3.52-1.14-4.07-3.39l-4.24-16.44-4.32,16.48a3.87,3.87,0,0,1-4.07,3.35c-2.08,0-3.43-1.14-4-3.39L87.27,94a3.23,3.23,0,1,1,6.27-1.48l4,16.53,4-15.85a4.22,4.22,0,0,1,8.26,0Z"/><path class="cls-1" d="M130.5,89.08a3.58,3.58,0,0,1,3.65,3.64,3.66,3.66,0,0,1-3.65,3.6,3.62,3.62,0,0,1,0-7.25Zm0,30.84a3.06,3.06,0,0,1-3.12-3.34V101.94a3.13,3.13,0,1,1,6.24,0v14.64A3.06,3.06,0,0,1,130.5,119.92Z"/><path class="cls-1" d="M152.5,116.93c0,1.62-1.19,2.85-3.34,2.85h-.57c-5,0-7.51-2.55-7.51-7.69v-8.17h-.79a2.84,2.84,0,0,1-3.12-2.85,2.88,2.88,0,0,1,3.12-2.9h.79v-2.9c-.26-4.39,6.5-4.39,6.19,0v2.9h2.11a2.88,2.88,0,0,1,3.12,2.9,2.84,2.84,0,0,1-3.12,2.85h-2.11v7.42c0,1.8.75,2.5,2.2,2.63C151.45,114.21,152.5,115.31,152.5,116.93Z"/><path class="cls-1" d="M157.68,93.15c-.26-4.39,6.5-4.39,6.24,0V99.5a6.63,6.63,0,0,1,5-1.84c5.31,0,8.74,3.51,8.74,9.53v9.4a3.13,3.13,0,1,1-6.24,0v-8.91c0-2.46-1.14-4.22-3.56-4.22q-4,0-4,5v8.12c.26,4.39-6.5,4.39-6.24,0Z"/><path class="cls-1" d="M193.72,106.93c0,4.5,2.1,7.53,6.14,7.53s6.14-2.52,6.14-7.61V93.39a3.12,3.12,0,1,1,6.22,0v13.25c0,8.79-4.63,13.54-12.37,13.54s-12.37-4.75-12.37-13.54V93.39a3.12,3.12,0,1,1,6.22,0Z"/><path class="cls-1" d="M216.6,113.64c1.19-1.32,2.55-1.36,4.13-.09a7.48,7.48,0,0,0,4.7,1.41c1.36,0,2.42-.48,2.42-1.32s-.48-1.05-1.93-1.45l-2.42-.7c-4.79-1.36-7-3.56-7-7a5.82,5.82,0,0,1,2.42-4.92,9.3,9.3,0,0,1,5.93-1.89,11.73,11.73,0,0,1,6.37,1.62c1.58,1.05,2,2.63,1.14,4s-2.42,1.8-4.13.79a6.56,6.56,0,0,0-3.64-1.1c-1.23,0-2,.48-2,1.19s.48.92,1.54,1.23l2.77.75c4.39,1.23,7.07,3.12,7.07,7.11s-3.51,6.94-9,6.94q-4.94,0-7.77-2.37C215.68,116.54,215.51,114.87,216.6,113.64Z"/><path d="M19.16,234.74a2.65,2.65,0,1,1,0,5.28H13.84v18.86a2.82,2.82,0,0,1-2.89,3,2.79,2.79,0,0,1-2.85-3V240H2.81a2.65,2.65,0,1,1,0-5.28Z"/><path d="M29.49,242.38a8.34,8.34,0,0,1,5.78,2,7,7,0,0,1,2.24,5.51V259a2.71,2.71,0,0,1-2.74,2.93,2.47,2.47,0,0,1-2.54-1.73,6.58,6.58,0,0,1-4.82,2,6.54,6.54,0,0,1-4.59-1.62,5.48,5.48,0,0,1-1.77-4.2,5,5,0,0,1,2.12-4.43,9.8,9.8,0,0,1,5.36-1.62l3.47-.15a2.56,2.56,0,0,0-2.89-2.89,5.46,5.46,0,0,0-3.16,1c-1.43,1-2.82.85-3.62-.23a2.52,2.52,0,0,1,.66-3.62A10.25,10.25,0,0,1,29.49,242.38Zm-.73,15.15A5.38,5.38,0,0,0,32,256.37v-2.24l-2.43.19c-2,.12-3,.66-3,1.7S27.37,257.53,28.75,257.53Z"/><path d="M49.23,254.79l-1.7,1.66V259c.23,3.86-5.71,3.86-5.48,0V237.48c-.23-3.86,5.71-3.86,5.48,0V249.2l5.75-5.48c1.27-1.2,2.85-1.43,4-.5a2.67,2.67,0,0,1-.12,4l-4,3.74L58,257.26a2.77,2.77,0,1,1-4.43,3.28Z"/><path d="M76.3,253.67H66.63a4,4,0,0,0,4.24,3.47A5.24,5.24,0,0,0,74.26,256a2.55,2.55,0,0,1,3.86.54c.89,1.08.62,2.62-.81,3.74A10.07,10.07,0,0,1,71,262.16a10,10,0,0,1-7.13-2.66,9.35,9.35,0,0,1-2.81-7.09,10.18,10.18,0,0,1,2.58-7.17,8.71,8.71,0,0,1,6.71-2.85,9.24,9.24,0,0,1,5,1.35,7.92,7.92,0,0,1,4,6.94C79.35,252.67,78.35,253.67,76.3,253.67ZM66.9,250h6.79a3.05,3.05,0,0,0-3.2-2.82A3.43,3.43,0,0,0,66.9,250Z"/><path d="M104.49,259.3c0,1.43-1,2.51-2.93,2.51h-.5c-4.4,0-6.59-2.24-6.59-6.75v-7.17h-.69A2.5,2.5,0,0,1,91,245.38a2.52,2.52,0,0,1,2.74-2.54h.69v-2.54c-.23-3.86,5.71-3.86,5.44,0v2.54h1.85a2.52,2.52,0,0,1,2.74,2.54,2.5,2.5,0,0,1-2.74,2.51H99.9v6.52c0,1.58.66,2.2,1.93,2.31C103.56,256.91,104.49,257.88,104.49,259.3Z"/><path d="M108.1,237.48c-.23-3.86,5.71-3.86,5.48,0V244a5.82,5.82,0,0,1,4.4-1.62c4.67,0,7.67,3.08,7.67,8.37V259a2.74,2.74,0,1,1-5.48,0v-7.83c0-2.16-1-3.7-3.12-3.7q-3.47,0-3.47,4.4V259c.23,3.86-5.71,3.86-5.48,0Z"/><path d="M144.26,253.67h-9.68a4,4,0,0,0,4.24,3.47,5.24,5.24,0,0,0,3.39-1.16,2.55,2.55,0,0,1,3.86.54c.89,1.08.62,2.62-.81,3.74a11.12,11.12,0,0,1-13.42-.77A9.35,9.35,0,0,1,129,252.4a10.18,10.18,0,0,1,2.58-7.17,8.71,8.71,0,0,1,6.71-2.85,9.24,9.24,0,0,1,5,1.35,7.92,7.92,0,0,1,4,6.94C147.3,252.67,146.3,253.67,144.26,253.67ZM134.85,250h6.79a3.05,3.05,0,0,0-3.2-2.82A3.43,3.43,0,0,0,134.85,250Z"/><path d="M168.08,242.3v.54h1.85a2.5,2.5,0,0,1,2.74,2.51,2.52,2.52,0,0,1-2.74,2.54h-1.85V259c.27,3.89-5.67,3.82-5.44,0V247.89H162a2.52,2.52,0,0,1-2.74-2.54,2.5,2.5,0,0,1,2.74-2.51h.69V242c0-4.9,3.12-7.33,7.29-7.33,1.89,0,2.93,1.08,2.93,2.51a2.63,2.63,0,0,1-2.66,2.66A2.12,2.12,0,0,0,168.08,242.3Z"/><path d="M178.61,234.28a3.14,3.14,0,0,1,3.2,3.2,3.21,3.21,0,0,1-3.2,3.16,3.18,3.18,0,0,1,0-6.36Zm0,27.65a2.69,2.69,0,0,1-2.74-2.93V245.58a2.74,2.74,0,1,1,5.48,0V259A2.69,2.69,0,0,1,178.61,261.92Z"/><path d="M199.85,245.42a2.39,2.39,0,0,1-2.39,2.54c-.27,0-.85-.08-1.2-.08-2.62,0-4.63,2.12-4.63,5.94V259c.23,3.86-5.71,3.86-5.48,0V245.58a2.71,2.71,0,0,1,2.74-2.93,2.58,2.58,0,0,1,2.66,2.28,5.83,5.83,0,0,1,4.59-2.35,5.6,5.6,0,0,1,1.54.15A2.71,2.71,0,0,1,199.85,245.42Z"/><path d="M202.22,256.41c1-1.16,2.24-1.2,3.63-.08a6.57,6.57,0,0,0,4.13,1.23c1.2,0,2.12-.42,2.12-1.16s-.42-.92-1.7-1.27l-2.12-.62c-4.2-1.2-6.17-3.12-6.17-6.17a5.11,5.11,0,0,1,2.12-4.32,8.16,8.16,0,0,1,5.21-1.66A10.3,10.3,0,0,1,215,243.8a2.49,2.49,0,0,1,1,3.51,2.46,2.46,0,0,1-3.62.69,5.75,5.75,0,0,0-3.2-1c-1.08,0-1.77.42-1.77,1s.42.81,1.35,1.08l2.43.66c3.86,1.08,6.21,2.74,6.21,6.25s-3.08,6.09-7.9,6.09a10.31,10.31,0,0,1-6.83-2.08A2.46,2.46,0,0,1,202.22,256.41Z"/><path d="M232.1,259.3c0,1.43-1,2.51-2.93,2.51h-.5c-4.4,0-6.59-2.24-6.59-6.75v-7.17h-.69a2.5,2.5,0,0,1-2.74-2.51,2.52,2.52,0,0,1,2.74-2.54h.69v-2.54c-.23-3.86,5.71-3.86,5.44,0v2.54h1.85a2.52,2.52,0,0,1,2.74,2.54,2.5,2.5,0,0,1-2.74,2.51h-1.85v6.52c0,1.58.66,2.2,1.93,2.31C231.17,256.91,232.1,257.88,232.1,259.3Z"/><path d="M246.4,256.41c1-1.16,2.24-1.2,3.63-.08a6.57,6.57,0,0,0,4.13,1.23c1.2,0,2.12-.42,2.12-1.16s-.42-.92-1.7-1.27l-2.12-.62c-4.2-1.2-6.17-3.12-6.17-6.17A5.11,5.11,0,0,1,248.4,244a8.16,8.16,0,0,1,5.21-1.66,10.3,10.3,0,0,1,5.59,1.43,2.49,2.49,0,0,1,1,3.51,2.46,2.46,0,0,1-3.62.69,5.75,5.75,0,0,0-3.2-1c-1.08,0-1.77.42-1.77,1s.42.81,1.35,1.08l2.43.66c3.86,1.08,6.21,2.74,6.21,6.25s-3.08,6.09-7.9,6.09a10.31,10.31,0,0,1-6.83-2.08A2.46,2.46,0,0,1,246.4,256.41Z"/><path d="M276.28,259.3c0,1.43-1,2.51-2.93,2.51h-.5c-4.4,0-6.59-2.24-6.59-6.75v-7.17h-.69a2.5,2.5,0,0,1-2.74-2.51,2.52,2.52,0,0,1,2.74-2.54h.69v-2.54c-.23-3.86,5.71-3.86,5.44,0v2.54h1.85a2.52,2.52,0,0,1,2.74,2.54,2.5,2.5,0,0,1-2.74,2.51h-1.85v6.52c0,1.58.66,2.2,1.93,2.31C275.35,256.91,276.28,257.88,276.28,259.3Z"/><path d="M293.7,253.67H284a4,4,0,0,0,4.24,3.47,5.24,5.24,0,0,0,3.39-1.16,2.55,2.55,0,0,1,3.86.54c.89,1.08.62,2.62-.81,3.74a11.12,11.12,0,0,1-13.42-.77,9.35,9.35,0,0,1-2.81-7.09,10.18,10.18,0,0,1,2.58-7.17,8.71,8.71,0,0,1,6.71-2.85,9.24,9.24,0,0,1,5,1.35,7.92,7.92,0,0,1,4,6.94C296.75,252.67,295.75,253.67,293.7,253.67ZM284.3,250h6.79a3.05,3.05,0,0,0-3.2-2.82A3.43,3.43,0,0,0,284.3,250Z"/><path d="M300.51,245.54a2.69,2.69,0,0,1,2.74-2.93,2.41,2.41,0,0,1,2.54,1.77,6.77,6.77,0,0,1,5.05-2,9.13,9.13,0,0,1,6.71,2.74,10.71,10.71,0,0,1,0,14.31,9.13,9.13,0,0,1-6.71,2.74A7.07,7.07,0,0,1,306,260.5v6c.23,3.86-5.71,3.86-5.48,0Zm5.4,6.75a5.23,5.23,0,0,0,1.23,3.55,4.09,4.09,0,0,0,3.16,1.39,4,4,0,0,0,3.12-1.39,5.58,5.58,0,0,0,0-7.09,4,4,0,0,0-3.12-1.39,4.09,4.09,0,0,0-3.16,1.39A5.22,5.22,0,0,0,305.91,252.29Z"/></g></g></svg>