<?xml version="1.0" encoding="utf-8"?>
<!-- Generator: Adobe Illustrator 20.1.0, SVG Export Plug-In . SVG Version: 6.00 Build 0)  -->
<svg version="1.1" id="artwork" xmlns="http://www.w3.org/2000/svg" xmlns:xlink="http://www.w3.org/1999/xlink" x="0px" y="0px"
	 viewBox="0 0 1055.9 495" style="enable-background:new 0 0 1055.9 495;" xml:space="preserve">
<style type="text/css">
	.st0{opacity:0.1;fill:#7599BE;}
	.st1{opacity:0.3;fill:#7599BE;}
	.st2{opacity:0.5;fill:#7599BE;}
	.st3{opacity:0.9;fill:#7599BE;}
	.st4{fill:#7599BE;}
	.st5{opacity:0.33;fill:#F3CE40;}
	.st6{opacity:0.14;fill:#F3CE40;}
	.st7{opacity:0.68;fill:#F3CE40;}
	.st8{opacity:0.53;fill:#F3CE40;}
	.st9{fill:#F3CE40;}
	.st10{opacity:0.61;fill:#F3CE40;}
	.st11{opacity:0.73;fill:#F3CE40;}
	.st12{opacity:0.5;fill:#F3CE40;}
	.st13{opacity:0.59;fill:#F3CE40;}
	.st14{opacity:0.22;fill:#F3CE40;}
	.st15{opacity:0.11;fill:#F3CE40;}
	.st16{opacity:0.45;fill:#F3CE40;}
	.st17{opacity:0.14;}
	.st18{opacity:0.16;fill:#D96565;}
	.st19{opacity:5.000000e-02;fill:#D96565;}
	.st20{opacity:7.000000e-02;fill:#D96565;}
	.st21{opacity:0.38;fill:#D96565;}
	.st22{opacity:0.23;fill:#D96565;}
	.st23{opacity:0.52;fill:#D96565;}
	.st24{opacity:0.46;fill:#D96565;}
	.st25{opacity:0.64;fill:#D96565;}
	.st26{opacity:0.56;fill:#D96565;}
	.st27{opacity:0.81;fill:#D96565;}
	.st28{opacity:0.67;fill:#D96565;}
	.st29{fill:#D96565;}
	.st30{opacity:0.92;fill:#D96565;}
	.st31{opacity:0.44;fill:#D96565;}
	.st32{opacity:0.61;fill:#D96565;}
	.st33{opacity:0.31;fill:#D96565;}
	.st34{opacity:0.1;}
</style>
<g>
	<g>
		<path class="st0" d="M426.8,301.8c0,0-0.3-0.1-0.8-0.1c-0.5-0.1-1.2-0.1-2-0.1c-1.5,0-3.3,0.3-4.5,1.6c0,0-0.6,0.5-1.1,1.5
			c-0.5,0.9-0.8,2.3,0,3.9c0,0,0.4,0.9,1.5,2c0.5,0.5,1.2,1.2,2,1.7c0.8,0.5,1.9,1,3,1.4c0,0,0.1,0.1,0.4,0.2
			c0.3,0.1,0.6,0.2,1.1,0.3c1,0.2,2.3,0.3,4,0c0,0,1.2-0.2,2.6-0.4c1.5-0.2,3.2-0.4,4.6-0.2c0,0,1.4,0.1,3,0.1
			c1.6-0.1,3.5-0.3,4.5-1c0,0,0.5-0.3,1.1-0.9c0.6-0.5,1.2-1.3,1.3-2.2c0.2-1.5-0.2-3.1-1.1-4.2c-0.4-0.5-0.8-0.9-1.4-1.1
			c-0.5-0.2-1.1-0.4-1.6-0.4c-1.7-0.1-3.5,0-5.2,0.7c0,0-0.9,0.3-2.2,0.4c-1.3,0.1-3-0.2-4.6-1.2c0,0-0.4-0.3-1.1-0.7
			C429.5,302.6,428.4,302.2,426.8,301.8z"/>
		<path class="st1" d="M403.1,288.4c0,0-1.1-0.6-2.1-1.7c-1-1-2-2.6-1.7-4.3c0,0,0-0.8,0.4-1.8c0.4-1,1.2-2.1,2.8-2.7
			c0,0,0.9-0.3,2.2-0.5c1.3-0.1,3-0.1,4.8,0.7c0,0,1.9,0.4,3.6,2.6c0,0,0.6,0.7,1.5,1.6c0.9,0.9,2,1.8,2.9,2.1c0,0,0.3,0.1,0.7,0.3
			c0.4,0.2,0.9,0.5,1.5,0.8c1.1,0.6,2.4,1.5,2.9,2.3c0,0,1.2,1.8,0.8,3.6c-0.3,1.5-1.1,2.8-2.3,3.7c-1,0.8-2.2,0.8-3.2,0.4
			c-1.6-0.6-3.1-1.5-4.2-2.8c0,0-0.6-0.7-1.6-1.4c-1-0.7-2.4-1.4-4.2-1.5c0,0-0.4,0-1.2-0.1C405.7,289.5,404.5,289.2,403.1,288.4z"
			/>
		<path class="st2" d="M376.5,276.6c0,0-1.1-0.7-2.5-1.1c-1.4-0.4-3.2-0.6-4.7,0.3c0,0-3,1.5-2.6,4.9c0,0,0.5,3.9,3.9,6.4
			c0,0,0.4,0.4,1.1,0.8c0.7,0.4,1.9,1,3.3,1.2c0,0,1,0.2,2.3,0.5c1.3,0.3,2.8,0.8,3.8,1.5c0,0,1.1,0.7,2.4,1.3
			c1.3,0.6,3,1.2,4.1,1.1c0,0,2.4-0.1,3.5-1.6c0.9-1.2,1.4-2.7,1.2-4.2c-0.1-1.3-0.9-2.2-1.8-2.7c-1.4-0.9-3.1-1.5-4.8-1.7
			c0,0-0.9-0.1-2.1-0.6c-1.2-0.5-2.6-1.3-3.6-2.8c0,0-0.2-0.4-0.8-1C378.8,278.3,377.9,277.5,376.5,276.6z"/>
		<path class="st3" d="M356.6,258.2c0,0-4-3.1-3.1-6.5c0,0,0.5-3.2,3.7-4c0,0,3.7-0.9,7.1,1.4c0,0,1.9,0.8,3.3,3.3
			c0,0,2,3.5,3.9,4.7c0,0,1,0.7,2,1.6c1,0.9,2.2,2.1,2.5,3.1c0,0,0.8,2.1,0,3.8c-0.7,1.4-1.9,2.4-3.2,2.9c-1.2,0.5-2.3,0.1-3.2-0.5
			c-1.4-0.9-2.7-2.2-3.5-3.7c0,0-1.7-3.2-5.2-4C360.9,260.4,359.1,260.1,356.6,258.2z"/>
		<path class="st4" d="M331.3,243.6c0,0-4.1-3-7.1-1.2c0,0-3,1.3-2.8,4.7c0,0,0.2,3.8,3.4,6.5c0,0,1.4,1.6,4.2,2.3c0,0,4,1,5.8,2.4
			c0,0,3.9,3,6.1,2.9c0,0,2.3,0.1,3.6-1.2c1.1-1.1,1.7-2.6,1.7-4c0.1-1.3-0.6-2.2-1.5-2.9c-1.3-1-2.9-1.8-4.6-2.2
			c0,0-3.6-0.7-5.4-3.8C334.6,247.2,333.9,245.6,331.3,243.6z"/>
	</g>
	<g>
		<path class="st0" d="M831.4,458.4c0,0-0.2-0.3-0.5-0.6c-0.3-0.4-0.8-0.9-1.4-1.4c-1.1-1-2.7-1.9-4.5-1.7c0,0-0.8,0-1.8,0.4
			c-1,0.4-2.1,1.2-2.6,2.9c0,0-0.3,1-0.2,2.5c0,0.8,0.1,1.6,0.4,2.6c0.3,1,0.7,2,1.4,3c0,0,0.1,0.1,0.2,0.4c0.1,0.2,0.4,0.6,0.7,0.9
			c0.6,0.8,1.5,1.8,3,2.6c0,0,1,0.6,2.2,1.4c1.2,0.8,2.7,1.9,3.5,2.9c0,0,1,1,2.2,2.1c1.3,1,2.9,2.1,4,2.2c0,0,0.6,0.1,1.4,0.1
			c0.8,0,1.7-0.2,2.4-0.8c1.1-1,1.8-2.5,2-3.9c0.1-0.7,0-1.2-0.3-1.7c-0.2-0.5-0.6-1-1-1.4c-1.3-1.2-2.7-2.3-4.4-2.9
			c0,0-0.9-0.4-1.9-1.2c-1-0.8-2.2-2.1-2.7-3.9c0,0-0.1-0.5-0.4-1.2C832.9,460.8,832.3,459.8,831.4,458.4z"/>
		<path class="st1" d="M822.4,427.5c0,0-0.9-0.8-1.7-2.1c-0.8-1.2-1.4-2.9-0.8-4.5c0,0,0.2-0.8,0.8-1.7c0.6-0.9,1.6-1.8,3.3-2.1
			c0,0,0.9-0.2,2.2,0c1.3,0.1,3,0.5,4.5,1.7c0,0,1.7,0.8,2.9,3.3c0,0,0.4,0.8,1.1,1.8c0.6,1,1.5,2.1,2.4,2.7c0,0,0.2,0.2,0.6,0.4
			c0.3,0.3,0.8,0.7,1.3,1.1c1,0.9,2,2,2.3,2.9c0,0,0.8,2,0,3.7c-0.6,1.4-1.7,2.5-3,3.1c-1.2,0.5-2.3,0.3-3.2-0.3
			c-1.4-0.9-2.7-2.1-3.5-3.7c0,0-0.4-0.8-1.3-1.7c-0.8-0.9-2.1-1.9-3.8-2.4c0,0-0.4-0.1-1.2-0.4
			C824.6,429.1,823.6,428.6,822.4,427.5z"/>
		<path class="st2" d="M794.1,414.5c0,0-0.8-1-2.1-1.8c-1.2-0.8-2.9-1.6-4.5-1.1c0,0-3.3,0.5-3.9,3.9c0,0-0.7,3.8,1.8,7.3
			c0,0,0.2,0.5,0.8,1.1c0.6,0.7,1.5,1.5,2.8,2.2c0,0,0.9,0.5,2.1,1.2c1.1,0.7,2.4,1.7,3.2,2.6c0,0,0.8,1,1.9,2
			c1.1,1,2.5,2.1,3.5,2.2c0,0,2.3,0.6,3.8-0.4c1.2-0.9,2.1-2.2,2.4-3.6c0.3-1.3-0.2-2.3-0.9-3.2c-1.1-1.3-2.5-2.4-4.1-3.1
			c0,0-0.8-0.4-1.8-1.2c-1-0.8-2.1-2-2.6-3.8c0,0-0.1-0.4-0.4-1.2C795.7,416.9,795.1,415.8,794.1,414.5z"/>
		<path class="st3" d="M714,356.7c0,0-4.3-2.7-3.8-6.1c0,0,0.1-3.3,3.3-4.4c0,0,3.6-1.2,7.2,0.6c0,0,2,0.6,3.7,2.9
			c0,0,2.4,3.3,4.4,4.3c0,0,1,0.6,2.2,1.4c1.1,0.8,2.4,1.9,2.8,2.8c0,0,1,2,0.4,3.7c-0.5,1.4-1.6,2.6-2.9,3.3
			c-1.2,0.6-2.3,0.4-3.3-0.1c-1.5-0.8-2.9-1.9-3.9-3.3c0,0-2.1-3-5.6-3.4C718.6,358.3,716.8,358.3,714,356.7z"/>
		<path class="st4" d="M687.3,344.9c0,0-4.4-2.5-7.2-0.4c0,0-2.8,1.6-2.3,5c0,0,0.6,3.8,4.1,6.1c0,0,1.5,1.4,4.4,1.8
			c0,0,4.1,0.5,6,1.8c0,0,4.2,2.5,6.3,2.2c0,0,2.3-0.1,3.4-1.6c0.9-1.2,1.4-2.7,1.3-4.1c-0.1-1.3-0.9-2.2-1.8-2.7
			c-1.4-0.9-3.1-1.5-4.8-1.7c0,0-3.7-0.3-5.8-3.2C691,348.1,690.1,346.5,687.3,344.9z"/>
		<path class="st3" d="M766.5,390.5c0,0-4.3-2.7-3.8-6.1c0,0,0.1-3.3,3.3-4.4c0,0,3.6-1.2,7.2,0.6c0,0,2,0.6,3.7,2.9
			c0,0,2.4,3.3,4.4,4.3c0,0,1,0.6,2.2,1.4c1.1,0.8,2.4,1.9,2.8,2.8c0,0,1,2,0.4,3.7c-0.5,1.4-1.6,2.6-2.9,3.3
			c-1.2,0.6-2.3,0.4-3.3-0.1c-1.5-0.8-2.9-1.9-3.9-3.3c0,0-2.1-3-5.6-3.4C771,392.2,769.2,392.1,766.5,390.5z"/>
		<path class="st4" d="M740.9,380.2c0,0-4.4-2.5-7.2-0.4c0,0-2.8,1.6-2.3,5c0,0,0.6,3.8,4.1,6.1c0,0,1.5,1.4,4.4,1.8
			c0,0,4.1,0.5,6,1.8c0,0,4.2,2.5,6.3,2.2c0,0,2.3-0.1,3.4-1.6c0.9-1.2,1.4-2.7,1.3-4.1c-0.1-1.3-0.8-2.2-1.8-2.7
			c-1.4-0.9-3.1-1.5-4.8-1.7c0,0-3.7-0.3-5.8-3.2C744.6,383.4,743.7,381.9,740.9,380.2z"/>
	</g>
	<g>
		<g>
			<g>
				<ellipse cx="527.5" cy="275.7" rx="1.7" ry="2.6"/>
				<path d="M524.9,276c0.1,1.1-0.4,2-1.2,2.1c-0.7,0.1-1.4-0.8-1.5-1.9c-0.1-1.1,0.4-2,1.2-2.1C524.1,274,524.8,274.9,524.9,276z"
					/>
				<path d="M521.6,276.8c0.2,1-0.2,1.9-0.9,2c-0.7,0.1-1.3-0.6-1.5-1.6c-0.2-1,0.2-1.9,0.9-2C520.8,275.1,521.5,275.8,521.6,276.8z
					"/>
				<path d="M518.9,278.6c0.3,0.9,0,1.7-0.6,2c-0.6,0.2-1.3-0.3-1.5-1.2c-0.3-0.9,0-1.7,0.6-2C518,277.2,518.7,277.8,518.9,278.6z"
					/>
				<path d="M517.1,281.5c0.2,0.8,0,1.6-0.5,1.8c-0.5,0.2-1.1-0.3-1.4-1.1c-0.2-0.8,0-1.6,0.5-1.8
					C516.2,280.2,516.8,280.7,517.1,281.5z"/>
				<path d="M524.4,279.3c2.8-0.1,4.2,1.9,4.2,4.1c0,3.1-3.4,5.7-2.8,9.2c0.6,3.6,4.3,4.8,4.6,8.5c0.3,3-1.4,4.1-2.9,4.6
					c-1.5,0.5-4.2-0.1-5-3.1c-0.8-2.9-0.5-4.4-1.3-6.7c-1-2.9-3.7-5.3-3.7-10.3C517.4,281.6,520.9,279.4,524.4,279.3z"/>
				<ellipse cx="538.6" cy="275.7" rx="1.7" ry="2.6"/>
				<path d="M541.2,276c-0.1,1.1,0.4,2,1.2,2.1c0.7,0.1,1.4-0.8,1.5-1.9c0.1-1.1-0.4-2-1.2-2.1C542,274,541.3,274.9,541.2,276z"/>
				<path d="M544.5,276.8c-0.2,1,0.2,1.9,0.9,2c0.7,0.1,1.3-0.6,1.5-1.6s-0.2-1.9-0.9-2C545.3,275.1,544.6,275.8,544.5,276.8z"/>
				<path d="M547.2,278.6c-0.3,0.9,0,1.7,0.6,2c0.6,0.2,1.3-0.3,1.5-1.2c0.3-0.9,0-1.7-0.6-2C548.1,277.2,547.4,277.8,547.2,278.6z"
					/>
				<path d="M549,281.5c-0.2,0.8,0,1.6,0.5,1.8c0.5,0.2,1.1-0.3,1.4-1.1c0.2-0.8,0-1.6-0.5-1.8C549.9,280.2,549.3,280.7,549,281.5z"
					/>
				<path d="M541.8,279.3c-2.8-0.1-4.2,1.9-4.2,4.1c0,3.1,3.4,5.7,2.8,9.2c-0.6,3.6-4.3,4.8-4.6,8.5c-0.3,3,1.4,4.1,2.9,4.6
					c1.5,0.5,4.2-0.1,5-3.1c0.8-2.9,0.5-4.4,1.3-6.7c1-2.9,3.7-5.3,3.7-10.3C548.7,281.6,545.2,279.4,541.8,279.3z"/>
			</g>
		</g>
	</g>
	<g>
		<g>
			<path class="st5" d="M906.2,374.3l1.8,1.3c2.3,1.7,5.5,1.5,7.4-0.7c1.9-2.3,1.5-5.7-0.9-7.5l-1.9-1.4c-0.2-0.2-0.5-0.1-0.7,0.1
				l-5.7,7.5C906,373.8,906,374.1,906.2,374.3z"/>
			<path class="st5" d="M900.2,369.9L900.2,369.9c-6.3-3.3-12.1-1.9-16.2-5c-5.1-3.9-11.1-10.8-11.6-15.6c-0.2-1.6,1.3-3.4,2.6-3.7
				c2.6-0.7,7.2-0.5,11.7,0.3c4.6,0.8,9,2.2,11.3,3.9c5.3,4,5.4,7.5,8.9,11.4c0.3,0.4,0.7,0.8,1.1,1.1l1.4,1.1
				c0.2,0.2,0.2,0.5,0.1,0.7l-5.7,7.5c-0.2,0.2-0.5,0.3-0.7,0.1l-1.1-0.9C901.4,370.6,900.8,370.2,900.2,369.9L900.2,369.9z"/>
			<path class="st6" d="M949.9,411.7l2,1c2.5,1.3,3.7,4.4,2.5,6.9c-1.3,2.7-4.5,3.8-7.1,2.5l-2.1-1.1c-0.2-0.1-0.3-0.4-0.2-0.7
				l4.3-8.5C949.4,411.7,949.7,411.6,949.9,411.7z"/>
			<path class="st6" d="M943.4,408.3L943.4,408.3c-5.7-4.2-7.1-9.9-11.8-12.1c-2.9-1.4-6.6-2.5-10.1-3.1c-3.5-0.6-6.9-0.6-9.1,0.3
				c-1.5,0.6-2.3,2.8-2,4c1.3,5.1,9.2,15.7,14.2,18c5.8,2.8,9,1.3,13.9,2.6c0.5,0.1,1,0.3,1.5,0.5l1.5,0.7c0.2,0.1,0.5,0,0.6-0.2
				l4.3-8.5c0.1-0.2,0-0.5-0.2-0.7l-1.3-0.6C944.5,409.1,943.9,408.7,943.4,408.3L943.4,408.3z"/>
		</g>
		<g>
			<path class="st5" d="M992,416.5l1.8,1.3c2.3,1.7,5.5,1.5,7.4-0.7c1.9-2.3,1.5-5.7-0.9-7.5l-1.9-1.4c-0.2-0.2-0.5-0.1-0.7,0.1
				l-5.7,7.5C991.7,416,991.7,416.4,992,416.5z"/>
			<path class="st5" d="M985.9,412.1L985.9,412.1c-6.3-3.3-12.1-1.9-16.2-5c-5.1-3.9-11.1-10.8-11.6-15.6c-0.2-1.6,1.3-3.4,2.6-3.7
				c2.6-0.7,7.2-0.5,11.7,0.3c4.6,0.8,9,2.2,11.3,3.9c5.3,4,5.4,7.5,8.9,11.4c0.3,0.4,0.7,0.8,1.1,1.1l1.4,1.1
				c0.2,0.2,0.2,0.5,0.1,0.7l-5.7,7.5c-0.2,0.2-0.5,0.3-0.7,0.1l-1.1-0.9C987.2,412.8,986.5,412.4,985.9,412.1L985.9,412.1z"/>
			<path class="st6" d="M1035.7,454l2,1c2.5,1.3,3.7,4.4,2.5,6.9c-1.3,2.7-4.5,3.8-7.1,2.5l-2.1-1.1c-0.2-0.1-0.3-0.4-0.2-0.7
				l4.3-8.5C1035.1,454,1035.4,453.9,1035.7,454z"/>
			<path class="st6" d="M1029.1,450.5L1029.1,450.5c-5.7-4.2-7.1-9.9-11.8-12.1c-2.9-1.4-6.6-2.5-10.1-3.1c-3.5-0.6-6.9-0.6-9.1,0.3
				c-1.5,0.6-2.3,2.8-2,4c1.3,5.1,9.2,15.7,14.2,18c5.8,2.8,9,1.3,13.9,2.6c0.5,0.1,1,0.3,1.5,0.5l1.5,0.7c0.2,0.1,0.5,0,0.6-0.2
				l4.3-8.5c0.1-0.2,0-0.5-0.2-0.7l-1.3-0.6C1030.3,451.3,1029.7,450.9,1029.1,450.5L1029.1,450.5z"/>
		</g>
		<g>
			<path class="st7" d="M811.4,321.5l1.9,1.2c2.4,1.6,5.6,1.1,7.3-1.2c1.7-2.4,1.1-5.8-1.4-7.4l-2-1.3c-0.2-0.2-0.5-0.1-0.7,0.1
				l-5.2,7.9C811.1,321.1,811.1,321.4,811.4,321.5z"/>
			<path class="st7" d="M805.1,317.6L805.1,317.6c-6.5-2.9-12.2-1.1-16.5-3.9c-2.7-1.7-5.6-4.2-8-6.9c-2.4-2.7-4.2-5.5-4.7-7.8
				c-0.3-1.6,1-3.5,2.3-3.9c5-1.7,18.5-0.5,23.3,2.7c5.6,3.6,5.9,7.2,9.7,10.8c0.4,0.4,0.8,0.7,1.2,1l1.4,1c0.2,0.1,0.3,0.4,0.1,0.7
				l-5.2,7.9c-0.2,0.2-0.5,0.3-0.7,0.2l-1.2-0.8C806.3,318.2,805.7,317.8,805.1,317.6L805.1,317.6z"/>
			<path class="st8" d="M857.5,356l2,0.9c2.6,1.1,4,4.1,3,6.7c-1.1,2.8-4.2,4.1-6.9,3l-2.1-0.9c-0.3-0.1-0.4-0.4-0.3-0.7l3.7-8.7
				C857,356,857.2,355.9,857.5,356z"/>
			<path class="st8" d="M850.7,353L850.7,353c-6-3.8-7.8-9.4-12.6-11.2c-5.9-2.3-15-3.6-19.3-1.5c-1.5,0.7-2.1,2.9-1.7,4.2
				c1.6,5,10.3,15,15.4,17.1c6,2.4,9.1,0.6,14.1,1.7c0.5,0.1,1,0.2,1.5,0.4l1.6,0.6c0.2,0.1,0.5,0,0.6-0.3l3.7-8.7
				c0.1-0.3,0-0.5-0.2-0.6l-1.3-0.5C851.9,353.7,851.3,353.4,850.7,353L850.7,353z"/>
		</g>
		<g>
			<path class="st9" d="M761.5,306.6l2.1,0.7c2.7,0.9,4.3,3.8,3.4,6.5c-0.9,2.8-3.9,4.4-6.7,3.4l-2.2-0.8c-0.3-0.1-0.4-0.4-0.3-0.6
				l3-9C761,306.7,761.3,306.6,761.5,306.6z"/>
			<path class="st9" d="M754.5,304.1L754.5,304.1c-3.1-1.7-5.3-3.9-7.2-5.8c-1.9-2-3.7-3.7-6.1-4.5c-6.1-1.9-15.2-2.5-19.3-0.1
				c-1.4,0.8-1.9,3.1-1.4,4.3c1,2.4,3.8,6,7.1,9.1c3.2,3.2,6.9,5.9,9.5,6.7c6.2,1.9,9.1,0,14.1,0.6c0.5,0.1,1,0.2,1.5,0.3l1.6,0.5
				c0.2,0.1,0.5-0.1,0.6-0.3l3-9c0.1-0.3,0-0.5-0.3-0.6l-1.4-0.4C755.8,304.8,755.1,304.5,754.5,304.1L754.5,304.1z"/>
		</g>
		<g>
			<path class="st9" d="M611.1,238l2,0.9c2.6,1.2,5.7,0.1,7-2.4c1.3-2.7,0.1-5.9-2.6-7.1l-2.2-1c-0.3-0.1-0.6,0-0.7,0.3l-3.8,8.7
				C610.7,237.6,610.8,237.9,611.1,238z"/>
			<path class="st9" d="M604.2,235.2L604.2,235.2c-3.5-0.9-6.5-0.6-9.3-0.4c-2.8,0.2-5.2,0.4-7.6-0.6c-2.9-1.2-6.3-3.2-9.2-5.3
				c-2.9-2.2-5.2-4.6-6.1-6.8c-0.6-1.5,0.4-3.6,1.5-4.3c2.3-1.3,6.9-2.3,11.5-2.7c4.6-0.3,9.4-0.1,12.1,1c3.1,1.3,4.9,2.8,6.5,4.4
				c1.6,1.6,2.9,3.1,5.1,4.6c0.4,0.3,0.9,0.6,1.3,0.8l1.6,0.7c0.2,0.1,0.4,0.4,0.2,0.6l-3.8,8.7c-0.1,0.3-0.4,0.4-0.6,0.3l-1.3-0.6
				C605.5,235.5,604.8,235.3,604.2,235.2L604.2,235.2z"/>
			<path class="st9" d="M662.1,264.7l2.1,0.5c2.7,0.7,4.5,3.5,3.9,6.2c-0.7,2.9-3.6,4.7-6.4,3.9l-2.2-0.6c-0.3-0.1-0.4-0.3-0.4-0.6
				l2.3-9.2C661.6,264.8,661.8,264.6,662.1,264.7z"/>
			<path class="st9" d="M655,262.7L655,262.7c-6.5-2.8-9.1-8.1-14.1-9.2c-3.1-0.7-6.9-1-10.5-0.8c-3.6,0.2-6.8,1-8.7,2.3
				c-1.3,1-1.6,3.2-1,4.4c2.4,4.6,12.4,13.2,17.8,14.4c6.3,1.4,9-0.8,14.1-0.5c0.5,0,1.1,0.1,1.5,0.2l1.7,0.4
				c0.2,0.1,0.5-0.1,0.6-0.4l2.3-9.2c0.1-0.3-0.1-0.5-0.3-0.6l-1.4-0.3C656.3,263.3,655.6,263,655,262.7L655,262.7z"/>
		</g>
		<g>
			<path class="st10" d="M505.3,213l2.1,0.6c2.7,0.8,5.7-0.6,6.6-3.3c0.9-2.8-0.7-5.8-3.5-6.7l-2.3-0.7c-0.3-0.1-0.5,0.1-0.6,0.3
				l-2.7,9.1C504.9,212.7,505,212.9,505.3,213z"/>
			<path class="st10" d="M498.1,211L498.1,211c-7-0.9-12,2.4-16.8,0.8c-6.1-1.9-13.8-6.8-15.6-11.2c-0.6-1.5,0.3-3.6,1.4-4.3
				c2.2-1.4,6.5-2.6,10.9-3.3c4.4-0.7,8.9-0.9,11.5,0c6.1,2,7.4,5.2,11.9,7.6c0.5,0.2,1,0.5,1.4,0.6l1.6,0.5
				c0.2,0.1,0.4,0.3,0.3,0.6l-2.7,9.1c-0.1,0.3-0.3,0.4-0.6,0.3l-1.4-0.4C499.5,211.3,498.8,211.1,498.1,211L498.1,211z"/>
			<path class="st11" d="M559.4,232.5l2.2,0.3c2.8,0.4,4.9,2.9,4.6,5.7c-0.3,3-3,5.1-5.8,4.7l-2.3-0.3c-0.3,0-0.5-0.3-0.4-0.6
				l1.2-9.4C558.8,232.7,559.1,232.5,559.4,232.5z"/>
			<path class="st11" d="M552,231.5L552,231.5c-3.4-1-5.9-2.7-8.2-4.2c-2.3-1.5-4.4-2.9-6.9-3c-6.3-0.5-15.4,1-18.8,4.3
				c-1.2,1.1-1.2,3.4-0.4,4.5c1.5,2.1,5.1,4.9,8.9,7.3c3.8,2.4,7.9,4.2,10.6,4.4c6.3,0.6,8.7-2,13.8-2.4c0.5,0,1-0.1,1.5-0.1
				l1.7,0.1c0.3,0,0.5-0.2,0.5-0.4l1.2-9.4c0-0.3-0.1-0.5-0.4-0.5L554,232C553.4,231.9,552.7,231.7,552,231.5L552,231.5z"/>
		</g>
		<g>
			<path class="st12" d="M402.3,184.4c0.6,0.4,1.3,0.7,1.9,1.1c2.5,1.4,5.6,0.6,7.1-1.8c1.5-2.6,0.6-5.8-1.8-7.2l-2-1.1
				c-0.2-0.1-0.5-0.1-0.7,0.2l-4.7,8.2C401.9,183.9,402,184.2,402.3,184.4z"/>
			<path class="st12" d="M395.8,180.8L395.8,180.8c-3.3-1.3-6.3-1.5-9-1.7c-2.7-0.3-5.2-0.5-7.3-1.9c-2.6-1.8-5.5-4.4-7.7-7.1
				c-2.2-2.8-3.8-5.7-4.1-8c-0.2-1.6,1.3-3.3,2.6-3.7c1.2-0.4,3-0.5,4.9-0.5c1,0,2,0,3.1,0.1c1.1,0.1,2.2,0.2,3.3,0.3
				c2.2,0.3,4.3,0.7,6.2,1.2c1.9,0.5,3.5,1.1,4.6,1.9c2.6,1.8,4,3.4,5.2,5.1c1.2,1.7,2.2,3.5,4,5.1c0.4,0.3,0.8,0.7,1.2,0.9l1.4,0.9
				c0.2,0.1,0.3,0.4,0.1,0.7l-4.8,8.2c-0.1,0.2-0.4,0.3-0.7,0.2l-1.2-0.8C397.1,181.3,396.5,181,395.8,180.8L395.8,180.8z"/>
			<path class="st13" d="M453.2,211.1l2.2,0.3c2.8,0.4,5,2.9,4.8,5.7c-0.2,3-3,5.1-6,4.7l-2.4-0.3c-0.3,0-0.5-0.3-0.4-0.6l1.3-9.4
				C452.7,211.3,452.9,211.1,453.2,211.1z"/>
			<path class="st13" d="M445.8,209.8L445.8,209.8c-6.9-2.3-9.8-7.5-14.7-8.6c-3.1-0.7-7-1-10.6-0.9c-1.8,0.1-3.5,0.2-5.1,0.6
				c-1.5,0.3-2.9,0.8-3.9,1.4c-1.4,0.9-1.8,3.1-1.2,4.3c1.1,2.5,4.3,5.9,8,8.9c1.8,1.5,3.8,2.9,5.7,3.9c0.9,0.5,1.9,1,2.7,1.4
				c0.9,0.4,1.7,0.6,2.4,0.8c1.7,0.3,3.2,0.5,4.5,0.4c1.3,0,2.5-0.2,3.6-0.4c2.2-0.4,4.3-1,6.9-1.1c0.5,0,1.1,0,1.6,0l1.8,0.2
				c0.3,0,0.5-0.2,0.6-0.4l1.4-9.4c0-0.3-0.1-0.5-0.4-0.6l-1.4-0.2C447.2,210.3,446.4,210.1,445.8,209.8L445.8,209.8z"/>
		</g>
		<g>
			<path class="st14" d="M312,127.9l1.4,1.6c1.9,2,5.2,2.3,7.3,0.4c2.2-2,2.4-5.3,0.5-7.4c-0.5-0.5-1-1.1-1.5-1.7
				c-0.2-0.2-0.5-0.2-0.7,0l-7,6.4C311.8,127.4,311.8,127.7,312,127.9z"/>
			<path class="st14" d="M307,122.5L307,122.5c-2.6-2.3-5.5-3.4-8-4.5c-2.5-1.1-4.7-2.2-6.3-4.2c-0.9-1.3-1.8-2.8-2.6-4.4
				c-0.8-1.6-1.6-3.2-2.1-4.9c-1.1-3.4-1.5-6.6-0.9-8.9c0.5-1.6,2.5-2.6,3.8-2.5c1.3,0.1,2.9,0.5,4.7,1.2c1.8,0.7,3.7,1.6,5.6,2.5
				c1.9,1,3.7,2,5.3,3.1c1.6,1.1,2.9,2.1,3.6,3.2c0.9,1.2,1.5,2.3,2,3.4c0.5,1,0.8,2,1.1,3c0.5,2,0.9,3.9,2.1,6
				c0.2,0.4,0.5,0.9,0.8,1.2l1,1.3c0.2,0.2,0.1,0.5-0.1,0.7l-7.1,6.3c-0.2,0.2-0.5,0.2-0.7,0l-0.9-1.1
				C308.1,123.5,307.5,123,307,122.5L307,122.5z"/>
			<path class="st15" d="M252.8,49.1l1.4,1.6c1.9,2,5.2,2.3,7.3,0.4c2.2-2,2.4-5.3,0.5-7.4c-0.5-0.5-1-1.1-1.5-1.7
				c-0.2-0.2-0.5-0.2-0.7,0l-7,6.4C252.6,48.5,252.6,48.9,252.8,49.1z"/>
			<path class="st15" d="M247.8,43.7L247.8,43.7c-2.6-2.3-5.5-3.4-8-4.5c-2.5-1.1-4.7-2.2-6.3-4.2c-0.9-1.3-1.8-2.8-2.6-4.4
				c-0.8-1.6-1.6-3.2-2.1-4.9c-1.1-3.4-1.5-6.6-0.9-8.9c0.5-1.6,2.5-2.6,3.8-2.5c1.3,0.1,2.9,0.5,4.7,1.2c1.8,0.7,3.7,1.6,5.6,2.5
				c1.9,1,3.7,2,5.3,3.1c1.6,1.1,2.9,2.1,3.6,3.2c0.9,1.2,1.5,2.3,2,3.4c0.5,1,0.8,2,1.1,3c0.5,2,0.9,3.9,2.1,6
				c0.2,0.4,0.5,0.9,0.8,1.2l1,1.3c0.2,0.2,0.1,0.5-0.1,0.7l-7.1,6.3c-0.2,0.2-0.5,0.2-0.7,0l-0.9-1.1
				C248.9,44.6,248.3,44.1,247.8,43.7L247.8,43.7z"/>
			<path class="st16" d="M352.8,168.4l2,0.9c2.6,1.2,4,4.2,2.9,6.9c-1.1,2.8-4.3,4-7.1,2.7l-2.2-1c-0.3-0.1-0.4-0.4-0.3-0.7l4-8.6
				C352.2,168.4,352.5,168.3,352.8,168.4z"/>
			<path class="st16" d="M346,165L346,165c-0.7-0.5-1.4-1.1-2-1.6c-0.6-0.6-1.1-1.2-1.7-1.8c-1-1.2-1.9-2.4-2.7-3.5
				c-1.6-2.2-3-4.3-5.3-5.5c-1.4-0.8-3-1.5-4.7-2.1c-1.7-0.7-3.4-1.3-5.2-1.7c-3.5-0.9-6.8-1.4-9.2-0.8c-1.6,0.4-2.7,2.4-2.5,3.8
				c0.2,1.3,0.8,3.1,1.7,5c0.9,1.9,2.1,3.9,3.5,5.9c0.7,1,1.4,2,2.1,2.9c0.7,0.9,1.5,1.8,2.3,2.6c1.5,1.6,3,2.8,4.3,3.6
				c3.1,1.6,5.5,2,7.7,2.3c2.2,0.3,4.3,0.3,6.9,1c0.5,0.1,1.1,0.3,1.5,0.5l1.6,0.7c0.2,0.1,0.5,0,0.7-0.2l4-8.6
				c0.1-0.2,0-0.5-0.2-0.7l-1.3-0.6C347.2,165.8,346.6,165.4,346,165L346,165z"/>
		</g>
		<g class="st17">
			<path class="st9" d="M271,95.9c0.5,0.6,1,1.1,1.5,1.7c2,2.1,2.1,5.4,0.2,7.5c-2,2.2-5.5,2.1-7.7-0.2l-1.7-1.8
				c-0.2-0.2-0.2-0.5,0-0.7l7-6.5C270.5,95.7,270.8,95.7,271,95.9z"/>
			<path class="st9" d="M266.1,90.1L266.1,90.1c-1.9-3.1-2.5-6.2-3-8.9c-0.5-2.8-0.9-5.2-2.5-7.3c-1-1.3-2.1-2.7-3.3-4
				c-1.2-1.3-2.6-2.7-4-3.9c-2.6-2.5-5.5-4.4-7.8-5c-1.6-0.4-3.5,0.9-3.9,2.2c-0.4,1.3-0.6,3.2-0.7,5.3c0,1.1,0,2.3,0.1,3.5
				c0.1,1.2,0.3,2.4,0.5,3.6c0.4,2.4,0.9,4.9,1.7,7.1c0.8,2.1,1.6,4,2.6,5.2c2.1,2.9,4.3,4.3,6.2,5.5c1,0.6,2,1.1,3,1.7
				c1,0.6,2,1.3,3.1,2.1c0.4,0.3,0.9,0.7,1.2,1.1l1.2,1.4c0.2,0.2,0.5,0.2,0.7,0l7-6.3c0.2-0.2,0.2-0.5,0.1-0.7l-1-1.1
				C266.9,91.4,266.5,90.7,266.1,90.1L266.1,90.1z"/>
		</g>
	</g>
	<g>
		<g>
			<path class="st18" d="M191.2,349.9l-2.9-1c-1.8-0.5-2.9-2.3-2.4-4.1c0.5-1.8,2.4-2.9,4.2-2.4l3,1c0.2,0,0.3,0.2,0.2,0.4l-1.7,5.8
				C191.5,349.8,191.3,349.9,191.2,349.9z"/>
			<path class="st18" d="M203.1,357.6c-4.8-1.3-4.4-5.8-3.1-10.4c1.3-4.6,6-6.7,10.8-5.4c4.8,1.3,15.6,8.1,14.4,12.7
				C223.9,359.2,207.9,358.9,203.1,357.6z"/>
			<path class="st19" d="M111.4,352.5l-3.1-0.1c-1.8,0-3.4-1.4-3.5-3.2c-0.1-1.9,1.4-3.5,3.3-3.5l3.2,0.1c0.2,0,0.3,0.1,0.3,0.3
				l0.1,6C111.7,352.4,111.5,352.5,111.4,352.5z"/>
			<path class="st19" d="M125,356.5c-5,0.1-5.9-4.3-6-9.1c-0.1-4.8,3.9-8.2,8.8-8.3c4.9-0.1,17.2,3.3,17.4,8.1
				C145.4,352.1,130,356.4,125,356.5z"/>
			<path class="st20" d="M158,315.6l-3-0.4c-1.8-0.3-3.5,0.9-3.9,2.7c-0.4,1.9,0.9,3.6,2.7,3.9l3.1,0.4c0.2,0,0.3-0.1,0.4-0.3l0.9-6
				C158.3,315.8,158.2,315.7,158,315.6z"/>
			<path class="st20" d="M171.7,313.5c-4.8-0.7-6.3,3.5-7,8.2c-0.7,4.8,2.7,8.6,7.6,9.3c4.9,0.7,17.4-1.4,18.1-6.2
				C191,320.1,176.5,314.2,171.7,313.5z"/>
		</g>
		<g>
			<path class="st18" d="M95.6,389.2l-3.1,0.5c-1.8,0.3-3.6-0.8-4-2.5c-0.4-1.9,0.8-3.7,2.7-4l3.1-0.5c0.2,0,0.3,0.1,0.4,0.3
				l1.1,5.9C95.9,389,95.7,389.2,95.6,389.2z"/>
			<path class="st18" d="M109.7,390.7c-4.9,1-6.6-3.1-7.5-7.9c-0.9-4.7,2.3-8.7,7.2-9.7c4.8-1,17.6,0.1,18.6,4.9
				C128.9,382.7,114.6,389.7,109.7,390.7z"/>
			<path class="st19" d="M25.6,427.8l-2.8,1.3c-1.6,0.8-3.7,0.3-4.5-1.3c-0.9-1.7-0.3-3.7,1.4-4.6l2.9-1.4c0.2-0.1,0.3,0,0.4,0.1
				l2.8,5.4C25.8,427.5,25.8,427.7,25.6,427.8z"/>
			<path class="st19" d="M39.6,425.1c-4.4,2.3-7.2-1.1-9.4-5.4c-2.2-4.3-0.3-9,4.1-11.4c4.4-2.3,16.9-4.9,19.2-0.6
				C55.7,412,44,422.8,39.6,425.1z"/>
			<path class="st20" d="M50.5,373.7l-2.9,1c-1.7,0.6-2.7,2.4-2.2,4.1c0.5,1.8,2.4,2.9,4.2,2.3l3-1.1c0.2-0.1,0.3-0.2,0.2-0.4
				l-1.9-5.7C50.8,373.8,50.6,373.7,50.5,373.7z"/>
			<path class="st20" d="M61.7,365.6c-4.6,1.6-4,5.9-2.5,10.5c1.5,4.6,6.3,6.4,11,4.8c4.7-1.6,14.9-9.1,13.3-13.7
				C81.9,362.8,66.4,364.1,61.7,365.6z"/>
		</g>
		<g>
			<path class="st21" d="M274.7,365l-3-0.8c-1.8-0.4-3-2.2-2.6-3.9c0.4-1.9,2.2-3,4.1-2.6l3.1,0.8c0.2,0,0.3,0.2,0.2,0.4l-1.4,5.9
				C275.1,364.9,274.9,365,274.7,365z"/>
			<path class="st21" d="M287,372c-4.9-1.1-4.7-5.5-3.6-10.2c1.1-4.7,5.7-7,10.5-6c4.8,1.1,16,7.3,15,12
				C307.9,372.6,291.9,373.1,287,372z"/>
			<path class="st22" d="M239.8,332.5l-3-0.2c-1.8-0.2-3.5,1.1-3.7,2.9c-0.3,1.9,1.1,3.6,2.9,3.8l3.1,0.2c0.2,0,0.3-0.1,0.3-0.3
				l0.6-6C240.1,332.6,240,332.5,239.8,332.5z"/>
			<path class="st22" d="M253.5,329.6c-4.9-0.4-6.1,3.8-6.6,8.6c-0.5,4.8,3.2,8.4,8.1,8.9c4.9,0.5,17.4-2.3,17.7-7.1
				C273.1,335.2,258.3,330.1,253.5,329.6z"/>
		</g>
		<g>
			<path class="st23" d="M359.1,375.5l-3-0.6c-1.8-0.3-3.1-2-2.8-3.8c0.3-1.9,2-3.1,3.9-2.8l3.1,0.6c0.2,0,0.3,0.2,0.3,0.4l-1,6
				C359.5,375.4,359.3,375.5,359.1,375.5z"/>
			<path class="st23" d="M371.9,381.8c-5-0.8-5.1-5.2-4.3-10c0.8-4.8,5.2-7.4,10.1-6.6c2.4,0.4,6.5,1.9,10,4c3.4,2,6.2,4.6,5.8,7
				c-0.3,2.4-4.5,4-9.2,4.9C379.6,382,374.4,382.2,371.9,381.8z"/>
			<path class="st24" d="M322.4,345l-3,0c-1.8-0.1-3.4,1.2-3.6,3c-0.2,1.9,1.3,3.5,3.1,3.6l3.2,0c0.2,0,0.3-0.1,0.3-0.3l0.3-6
				C322.7,345.2,322.5,345,322.4,345z"/>
			<path class="st24" d="M335.8,341.4c-4.9-0.2-5.9,4.1-6.1,9c-0.2,4.8,3.6,8.3,8.6,8.4c2.5,0.1,6.8-0.7,10.5-2.2
				c3.7-1.5,6.8-3.5,6.8-5.9c0-2.4-3.7-4.7-8-6.4C343.2,342.6,338.3,341.5,335.8,341.4z"/>
		</g>
		<g>
			<path class="st25" d="M444.4,379.8l-3.1-0.4c-1.8-0.2-3.3-1.7-3.2-3.5c0.1-1.9,1.8-3.3,3.7-3.2l3.2,0.4c0.2,0,0.3,0.2,0.3,0.3
				l-0.5,6C444.7,379.7,444.6,379.8,444.4,379.8z"/>
			<path class="st25" d="M457.8,384.9c-5.1-0.3-5.6-4.7-5.3-9.5c0.3-4.8,4.5-7.8,9.5-7.5c1.2,0.1,2.9,0.4,4.7,0.9
				c1.8,0.5,3.8,1.2,5.6,2c1.8,0.8,3.5,1.8,4.7,2.9c1.2,1.1,1.9,2.2,1.9,3.4c-0.1,2.4-4.1,4.5-8.7,5.9
				C465.6,384.4,460.3,385,457.8,384.9z"/>
			<path class="st26" d="M405.3,352.4l-3,0.2c-1.8,0-3.3,1.5-3.3,3.3c0,1.9,1.5,3.4,3.4,3.4l3.1-0.2c0.2,0,0.3-0.2,0.3-0.3l-0.2-6
				C405.6,352.6,405.5,352.4,405.3,352.4z"/>
			<path class="st26" d="M418.4,347.8c-4.8,0.2-5.5,4.6-5.3,9.4c0.2,4.8,4.2,8,9.2,7.7c1.2-0.1,2.9-0.4,4.7-0.9
				c1.8-0.5,3.8-1.3,5.5-2.1c3.6-1.7,6.4-4.1,6.3-6.5c-0.2-2.4-4.1-4.4-8.5-5.7C425.8,348.5,420.8,347.7,418.4,347.8z"/>
		</g>
		<g>
			<path class="st27" d="M530.4,374.1l-3.2,0.1c-1.9,0.2-3.5-1.2-3.7-3c-0.2-1.9,1.3-3.5,3.2-3.7l3.2-0.1c0.2,0,0.3,0.1,0.3,0.3
				l0.5,6C530.7,373.9,530.6,374.1,530.4,374.1z"/>
			<path class="st27" d="M544.8,376.9c-5.2,0.5-6.4-3.7-6.9-8.5c-0.4-4.8,3.2-8.4,8.1-9.1c1.2-0.2,2.9-0.1,4.8,0
				c1.9,0.1,4,0.4,5.9,0.9c1,0.2,1.9,0.5,2.8,0.8c0.9,0.3,1.7,0.6,2.4,1c1.4,0.8,2.4,1.8,2.6,2.9c0.2,1.2-0.6,2.5-2,3.8
				c-1.4,1.3-3.4,2.6-5.6,3.7c-1.1,0.6-2.3,1.1-3.4,1.6c-1.1,0.5-2.3,0.9-3.4,1.3C548,376.2,546,376.7,544.8,376.9z"/>
			<path class="st28" d="M488,352.2l-3,0.5c-1.8,0.2-3.1,1.8-2.9,3.6c0.2,1.9,1.9,3.2,3.7,3l3.1-0.6c0.2,0,0.3-0.2,0.3-0.4l-0.9-6
				C488.3,352.3,488.2,352.2,488,352.2z"/>
			<path class="st28" d="M500.2,346.1c-4.7,0.8-4.8,5.2-4.1,10c0.7,4.8,5.2,7.4,10,6.5c2.4-0.5,6.5-2.1,9.7-4.4
				c3.3-2.2,5.7-4.9,5.2-7.3c-0.5-2.4-4.6-3.7-9.1-4.4C507.5,345.7,502.6,345.7,500.2,346.1z"/>
		</g>
		<g>
			<path class="st29" d="M614.9,347.4l-3.1,1.3c-1.8,0.8-3.9,0.2-4.6-1.5c-0.8-1.7,0.1-3.8,1.8-4.6l3.1-1.3c0.2-0.1,0.4,0,0.4,0.2
				l2.6,5.5C615.1,347.2,615,347.4,614.9,347.4z"/>
			<path class="st29" d="M629.8,344.1c-4.7,2.8-7.5-0.6-9.8-4.9c-1.1-2.1-1.2-4.4-0.5-6.5c0.4-1,0.9-2,1.6-2.9
				c0.4-0.4,0.8-0.8,1.2-1.2c0.5-0.4,1-0.7,1.5-1.1c2.1-1.3,6.2-2.8,10.2-3.7c3.9-0.8,7.7-0.9,9.1,1.1c1.4,2-0.6,6.1-3.7,10
				c-1.5,2-3.3,3.9-5.1,5.5c-0.9,0.8-1.8,1.6-2.6,2.2c0,0,0,0,0,0l-0.1,0.1c-0.1,0.1-0.2,0.1-0.3,0.2c-0.2,0.1-0.4,0.3-0.5,0.4
				C630.4,343.7,630.1,343.9,629.8,344.1z"/>
			<path class="st30" d="M567.9,338.8l-2.7,1.2c-1.6,0.6-2.5,2.5-1.9,4.2c0.6,1.8,2.5,2.7,4.2,2.1l2.8-1.2c0.2-0.1,0.2-0.2,0.2-0.4
				l-2.2-5.6C568.2,338.9,568,338.8,567.9,338.8z"/>
			<path class="st30" d="M577.7,330c-1,0.5-1.7,1.1-2.1,1.9c-0.5,0.7-0.7,1.6-0.7,2.5c0,1.9,0.7,4,1.6,6.3c1,2.2,2.7,3.7,4.7,4.3
				c2,0.6,4.4,0.4,6.6-0.6c1.1-0.5,2.5-1.5,3.9-2.8c1.4-1.2,2.9-2.6,4-4.2c2.3-3.1,3.7-6.4,2.4-8.5c-0.6-1-2-1.5-3.7-1.7
				c-1.7-0.2-3.8,0-5.9,0.2c-2.2,0.2-4.3,0.7-6.2,1.2C580.4,329,578.7,329.5,577.7,330z"/>
		</g>
		<g>
			<path class="st29" d="M682.1,290.5l-2.4,2.1c-1.4,1.3-3.5,1.3-4.8,0c-1.3-1.4-1.2-3.6,0.2-4.9l2.4-2.1c0.1-0.1,0.3-0.1,0.5,0
				l4.1,4.4C682.2,290.2,682.2,290.4,682.1,290.5z"/>
			<path class="st29" d="M695,283.7c-3.6,3.7-7.3,1.2-10.7-2.3c-1.7-1.7-2.4-3.9-2.2-6c0.1-2.2,1.1-4.3,2.8-6.1c0.9-0.9,2.2-2,3.8-3
				c1.6-1.1,3.4-2.1,5.2-3c3.6-1.7,7.3-2.7,9.1-1.1c0.9,0.8,1.1,2.3,0.9,4.2c-0.3,1.9-1,4.1-2,6.4c-0.5,1.1-1,2.3-1.6,3.4
				c-0.6,1.1-1.2,2.1-1.8,3.1C697.1,281.1,695.9,282.7,695,283.7z"/>
			<path class="st29" d="M627,303.9l-2.2,1.9c-1.4,1.1-1.7,3.1-0.6,4.6c1.1,1.5,3.2,1.9,4.7,0.7c0.8-0.7,1.6-1.3,2.4-2
				c0.1-0.1,0.2-0.3,0-0.4l-3.8-4.7C627.3,303.8,627.1,303.8,627,303.9z"/>
			<path class="st29" d="M634.1,292.4c-3.5,3.1-1.4,6.9,1.8,10.6c3.1,3.7,8.3,3.6,11.9,0.3c1.8-1.6,4.4-5.2,5.9-8.8
				c1.6-3.6,2.2-7.2,0.5-8.9c-1.7-1.7-5.8-0.7-10,1C640.1,288.4,635.9,290.9,634.1,292.4z"/>
		</g>
		<g>
			<path class="st31" d="M732.3,218.9c-0.6,0.9-1.2,1.8-1.8,2.7c-1,1.6-3.1,2.2-4.6,1.3c-1.6-1-2.1-3.1-1.1-4.8
				c0.6-0.9,1.2-1.8,1.8-2.7c0.1-0.2,0.3-0.2,0.4-0.1l5.2,3.2C732.4,218.5,732.4,218.7,732.3,218.9z"/>
			<path class="st31" d="M743,208.6c-2.6,4.6-6.8,3.2-10.9,0.8c-4.2-2.4-5-7.5-2.8-11.9c0.6-1.1,1.6-2.5,2.8-4
				c1.2-1.5,2.7-3,4.1-4.4c3-2.7,6.2-4.7,8.4-3.8c2.2,1,2.6,5.6,2,10.6c-0.3,2.5-0.9,5.1-1.5,7.3C744.3,205.5,743.6,207.4,743,208.6
				z"/>
			<path class="st32" d="M689.3,239.5l-1.4,2.6c-0.9,1.5-0.5,3.5,1,4.5c1.6,1.1,3.7,0.6,4.6-1l1.5-2.7c0.1-0.1,0-0.3-0.1-0.4
				l-5.2-3.1C689.6,239.3,689.4,239.3,689.3,239.5z"/>
			<path class="st32" d="M691.9,226.3c-2.2,4.1,1.2,6.9,5.4,9.3c2.1,1.2,4.3,1.3,6.4,0.6c2-0.7,3.8-2.3,4.9-4.5
				c0.6-1.1,1.1-2.7,1.5-4.5c0.4-1.8,0.7-3.8,0.8-5.8c0.1-2-0.1-3.8-0.5-5.3c-0.4-1.5-1.2-2.6-2.3-3.1c-2.2-1-5.7,1.5-8.9,4.6
				C696,220.4,692.9,224.2,691.9,226.3z"/>
		</g>
		<g>
			<path class="st22" d="M758.5,134.4l-0.3,1.6l-0.4,1.6c-0.4,1.9-2.1,3.2-3.9,2.8c-1.9-0.4-3-2.2-2.6-4.1c0.3-1.1,0.5-2.1,0.7-3.2
				c0-0.2,0.2-0.3,0.4-0.3l5.9,1.2C758.4,134,758.5,134.2,758.5,134.4z"/>
			<path class="st22" d="M764.9,120.8c-0.8,5.3-5.2,5.5-10,4.7c-2.4-0.4-4.2-1.7-5.4-3.5c-1.1-1.8-1.7-4.1-1.4-6.6
				c0.1-1.2,0.6-2.9,1.2-4.7c0.6-1.8,1.3-3.8,2.2-5.6c1.8-3.6,4-6.7,6.4-6.6c1.2,0,2.3,1.1,3.3,2.8c0.5,0.8,1,1.8,1.4,2.9
				c0.4,1.1,0.7,2.3,1,3.5C764.9,112.6,765.1,118.2,764.9,120.8z"/>
			<path class="st33" d="M724.7,167.9l-0.5,2.9c-0.3,1.7,0.6,3.4,2.4,3.9c1.8,0.5,3.7-0.5,4.1-2.3l0.6-3c0-0.2-0.1-0.3-0.2-0.4
				l-5.9-1.3C724.9,167.7,724.7,167.8,724.7,167.9z"/>
			<path class="st33" d="M722.9,154.8c-0.7,4.5,3.4,6.1,8.1,7c4.8,0.9,8.7-2.4,9.4-7.3c0.3-2.4,0-6.8-1.3-10.5
				c-1.1-3.7-3.2-6.8-5.6-7c-1.2-0.1-2.4,0.7-3.5,2.1c-1.2,1.3-2.3,3.1-3.2,5.1C724.8,148.1,723.3,152.6,722.9,154.8z"/>
		</g>
		<g class="st34">
			<path class="st29" d="M733,89.6l0.5,2.8c0.3,1.7,1.9,2.9,3.7,2.8c1.9-0.2,3.2-1.9,2.9-3.7c-0.2-1-0.3-2-0.6-3
				c0-0.2-0.2-0.3-0.4-0.3l-6,1C733.1,89.3,732.9,89.5,733,89.6z"/>
			<path class="st29" d="M726.4,78.2c1,4.4,5.5,4.4,10.2,3.4c2.4-0.5,4.1-1.8,5.2-3.7c0.5-0.9,0.9-2,1-3.1c0.1-1.1,0.1-2.3-0.2-3.5
				c-0.6-2.4-2.5-6.3-5.1-9.3c-1.3-1.5-2.6-2.8-3.9-3.6c-1.3-0.8-2.7-1.2-3.8-0.8c-2.2,0.7-3.3,4.8-3.6,9.2
				c-0.2,2.2-0.3,4.5-0.2,6.5C726,75.3,726.1,77.1,726.4,78.2z"/>
		</g>
	</g>
</g>
</svg>
